<svg width="312" height="347" viewBox="0 0 312 347" fill="none" xmlns="http://www.w3.org/2000/svg">
<path d="M311.183 340.5H5.73047V5.72852H311.183" fill="#E8E8E8"/>
<path d="M0 0H311.187V11.4473H11.47V334.774H311.187V346.221H0V0Z" fill="#D6D6D6"/>
<path d="M163.898 212.909C200.158 212.909 229.553 183.565 229.553 147.369C229.553 111.172 200.158 81.8291 163.898 81.8291C127.637 81.8291 98.2422 111.172 98.2422 147.369C98.2422 183.565 127.637 212.909 163.898 212.909Z" stroke="#D6D6D6" stroke-width="2.64177" stroke-miterlimit="10"/>
<path d="M197.127 263.164C197.127 263.164 210.098 217.176 223.964 229.678C237.831 242.18 239.171 268.076 252.591 249.77C266.011 231.464 273.165 204.228 286.136 234.142L299.107 264.056" stroke="#D6D6D6" stroke-width="2.64177" stroke-miterlimit="10"/>
<path d="M232.123 312.906H178.285V334.772H232.123V312.906Z" fill="#D6D6D6"/>
</svg>
