<svg width="750" height="464" viewBox="0 0 750 464" fill="none" xmlns="http://www.w3.org/2000/svg">
<rect width="93.2153" height="15.2799" rx="2" transform="matrix(-0.455719 -0.890124 -0.890124 0.455719 257.6 175.875)" fill="#FA78C3"/>
<circle cx="520.104" cy="176.376" r="30.5" fill="#FA78C3"/>
<path d="M707.294 452.481C730.38 446.318 744.099 422.608 737.937 399.522C731.774 376.436 708.063 362.717 684.977 368.88C661.892 375.042 648.173 398.753 654.335 421.839C660.498 444.925 684.209 458.644 707.294 452.481Z" fill="#2D2D2D"/>
<path d="M695.258 403.892C684.565 406.936 677.777 416.917 680.097 426.186L707.277 451.894L695.259 403.892L695.258 403.892Z" fill="#C7EAFB"/>
<path d="M717.866 415.762L717.865 415.762C715.545 406.493 704.995 401.446 694.302 404.49L706.32 452.492L717.867 415.761L717.866 415.762Z" fill="#6E00FF"/>
<path d="M714.885 375.33C713.982 374.259 713.301 372.92 712.961 371.453C712.13 367.807 715.207 360.572 717.598 355.474C717.738 355.156 717.87 354.925 717.906 354.775C718.011 354.367 718.324 354.061 718.728 353.959C719.131 353.857 719.616 354.044 719.808 354.321C719.808 354.321 719.847 354.367 719.867 354.39C720.005 354.553 720.375 354.799 720.799 355.157C725.583 359.087 730.577 363.556 731.346 366.935C731.899 369.38 731.459 371.907 730.094 374.061C728.728 376.215 726.659 377.728 724.195 378.338C720.612 379.218 717.06 377.957 714.861 375.35L714.885 375.33ZM715.088 370.928C715.962 374.817 719.825 377.172 723.744 376.207C725.626 375.73 727.248 374.556 728.279 372.925C729.334 371.273 729.652 369.328 729.242 367.44C728.539 364.284 721.686 358.676 719.417 356.807L719.377 356.761C716.063 363.957 714.621 368.729 715.112 370.907L715.088 370.928Z" fill="#0082FF"/>
<path d="M671.679 391.402C678.041 389.704 684.575 393.459 686.263 399.783C686.475 400.577 686.014 401.369 685.215 401.582C684.416 401.795 683.622 401.339 683.41 400.545C682.138 395.78 677.2 392.967 672.436 394.238C667.672 395.51 664.801 400.439 666.065 405.175C666.277 405.969 665.816 406.761 665.017 406.974C664.218 407.187 663.424 406.731 663.212 405.937C661.524 399.612 665.317 393.101 671.679 391.402Z" fill="white"/>
<path d="M707.187 381.925C713.549 380.227 720.083 383.981 721.771 390.306C721.983 391.1 721.522 391.891 720.723 392.104C719.924 392.318 719.13 391.861 718.918 391.067C717.646 386.303 712.708 383.489 707.944 384.761C703.18 386.033 700.308 390.961 701.573 395.697C701.785 396.492 701.324 397.283 700.525 397.496C699.726 397.709 698.932 397.253 698.72 396.459C697.032 390.135 700.825 383.623 707.187 381.925Z" fill="white"/>
<path d="M13.1231 157.644L22.6004 161.279L23.4497 157.148L17.7603 154.965L19.1681 146.86L11.5846 143.951L12.9918 135.845L3.51485 132.209L2.66469 136.34L8.35542 138.524L6.94815 146.63L14.5309 149.539L13.1231 157.644Z" fill="#F8B552"/>
<path d="M644.782 197.273C646.525 197.825 648.385 196.861 648.938 195.119C649.49 193.377 648.526 191.516 646.784 190.964C645.041 190.411 643.181 191.375 642.628 193.118C642.076 194.86 643.04 196.72 644.782 197.273Z" fill="#FF00FF"/>
<path d="M575.093 98.9115C579.568 100.331 584.345 97.8539 585.765 93.379C587.184 88.9041 584.708 84.1259 580.233 82.7064C575.758 81.287 570.979 83.7639 569.56 88.2388C568.14 92.7137 570.618 97.4921 575.093 98.9115Z" fill="#FF5A00"/>
<path d="M651.213 273.266C666.617 268.829 675.507 252.745 671.07 237.341C666.633 221.937 650.549 213.047 635.145 217.484C619.741 221.921 610.851 238.005 615.288 253.409C619.725 268.813 635.809 277.703 651.213 273.266Z" fill="#2D2D2D"/>
<path d="M630.418 246.13C634.833 244.768 637.502 240.278 636.379 236.101C635.255 231.925 630.765 229.643 626.35 231.005C621.935 232.367 619.266 236.857 620.39 241.033C621.513 245.21 626.003 247.492 630.418 246.13Z" fill="white"/>
<path d="M629.402 242.353C631.61 241.672 632.944 239.427 632.382 237.339C631.82 235.25 629.576 234.11 627.368 234.791C625.161 235.471 623.826 237.716 624.388 239.805C624.95 241.893 627.195 243.034 629.402 242.353Z" fill="#231F20"/>
<path d="M654.114 239.308C658.529 237.946 661.197 233.456 660.074 229.28C658.951 225.103 654.461 222.821 650.045 224.183C645.63 225.545 642.961 230.035 644.085 234.212C645.208 238.388 649.698 240.67 654.114 239.308Z" fill="white"/>
<path d="M653.097 235.531C655.305 234.85 656.639 232.605 656.077 230.517C655.516 228.429 653.271 227.288 651.063 227.969C648.856 228.65 647.522 230.895 648.083 232.983C648.645 235.071 650.89 236.212 653.097 235.531Z" fill="#231F20"/>
<path d="M642.524 240.844C635.381 243.028 630.95 249.809 632.628 255.99L651.213 272.856L642.524 240.844L642.524 240.844Z" fill="#C7EAFB"/>
<path d="M657.843 248.499L657.843 248.499C656.165 242.318 649.014 239.077 641.871 241.26L650.56 273.272L657.843 248.498L657.843 248.499Z" fill="#6E00FF"/>
<path d="M619.568 241.13C618.165 236.257 620.977 231.17 625.848 229.767C630.72 228.364 635.808 231.176 637.211 236.048L619.567 241.13L619.568 241.13Z" fill="#FA03FF"/>
<path d="M643.26 234.31C641.856 229.438 644.668 224.351 649.54 222.947C654.411 221.544 659.499 224.357 660.902 229.229L643.258 234.311L643.26 234.31Z" fill="#FA03FF"/>
<path d="M388.43 244.121C393.357 244.121 397.351 240.127 397.351 235.2C397.351 230.273 393.357 226.279 388.43 226.279C383.504 226.279 379.51 230.273 379.51 235.2C379.51 240.127 383.504 244.121 388.43 244.121Z" fill="#0082FF"/>
<path d="M388.43 123.888C393.357 123.888 397.351 119.95 397.351 115.092C397.351 110.235 393.357 106.297 388.43 106.297C383.504 106.297 379.51 110.235 379.51 115.092C379.51 119.95 383.504 123.888 388.43 123.888Z" fill="#00C800"/>
<path d="M82.1163 114.711C103.432 124.328 128.508 114.845 138.125 93.5291C147.743 72.2133 138.259 47.1371 116.943 37.5199C95.6275 27.9027 70.5514 37.3863 60.9342 58.7021C51.317 80.0179 60.8005 105.094 82.1163 114.711Z" fill="#2D2D2D"/>
<path d="M84.9884 65.038C91.1144 67.9048 98.1145 65.5528 100.624 59.7845C103.133 54.0163 100.201 47.0162 94.0745 44.1494C87.9485 41.2825 80.9484 43.6346 78.4393 49.4028C75.9303 55.1711 78.8624 62.1712 84.9884 65.038Z" fill="white"/>
<path d="M86.9198 60.5416C90.2668 62.0652 94.1758 60.6263 95.6508 57.3277C97.1258 54.029 95.6083 50.1198 92.2614 48.5962C88.9144 47.0726 85.0054 48.5115 83.5304 51.8101C82.0554 55.1088 83.5729 59.018 86.9198 60.5416Z" fill="black"/>
<path d="M85.4053 53.3585C87.9491 54.549 90.856 53.5723 91.8979 51.177C92.9398 48.7817 91.7222 45.8748 89.1783 44.6844C86.6345 43.4939 83.7276 44.4706 82.6857 46.8659C81.6438 49.2612 82.8614 52.168 85.4053 53.3585Z" fill="white"/>
<path d="M117.801 79.8437C123.927 82.7105 130.927 80.3585 133.436 74.5902C135.945 68.822 133.013 61.8219 126.887 58.955C120.761 56.0882 113.761 58.4402 111.252 64.2085C108.743 69.9767 111.675 76.9768 117.801 79.8437Z" fill="white"/>
<path d="M119.732 75.3458C123.079 76.8694 126.988 75.4305 128.463 72.1319C129.938 68.8332 128.421 64.924 125.074 63.4004C121.727 61.8767 117.818 63.3157 116.343 66.6143C114.868 69.913 116.385 73.8222 119.732 75.3458Z" fill="black"/>
<path d="M118.218 68.1642C120.762 69.3547 123.668 68.378 124.71 65.9826C125.752 63.5873 124.535 60.6805 121.991 59.49C119.447 58.2995 116.54 59.2762 115.498 61.6716C114.456 64.0669 115.674 66.9737 118.218 68.1642Z" fill="white"/>
<path d="M69.6281 85.7524C78.3505 89.6878 88.6117 85.8071 92.5471 77.0846C96.4824 68.3622 92.6018 58.101 83.8793 54.1657C75.1569 50.2303 64.8957 54.111 60.9603 62.8334C57.025 71.5559 60.9056 81.817 69.6281 85.7524Z" fill="#2D2D2D"/>
<path d="M112.191 104.953C120.913 108.888 131.174 105.007 135.11 96.2848C139.045 87.5624 135.164 77.3012 126.442 73.3658C117.719 69.4305 107.458 73.3112 103.523 82.0336C99.5875 90.756 103.468 101.017 112.191 104.953Z" fill="#2D2D2D"/>
<path d="M102.367 70.4996C92.4849 65.9026 81.4448 69.0974 77.7089 77.6352L83.0188 114.717L102.367 70.4999L102.367 70.4996Z" fill="#C7EAFB"/>
<path d="M112.59 93.626L112.59 93.6256C116.326 85.0879 111.344 74.4398 101.462 69.8428L82.1132 114.06L112.591 93.6263L112.59 93.626Z" fill="#6E00FF"/>
<path d="M145.592 78.8457C145.622 78.1276 146.174 77.5399 146.888 77.4647L157.19 76.3811C159.102 76.1799 160.696 77.8259 160.434 79.7308V79.7308C160.203 81.4073 158.617 82.55 156.954 82.2382L146.773 80.3295C146.065 80.1969 145.563 79.5649 145.592 78.8457V78.8457Z" fill="#F8B552"/>
<path d="M66.484 41.7417C66.1029 42.5252 65.205 42.9109 64.3744 42.648L52.4013 38.8577C50.1787 38.154 49.2052 35.5521 50.4202 33.5623V33.5623C51.4895 31.8112 53.806 31.3103 55.5033 32.4632L65.8915 39.5204C66.6135 40.0108 66.8658 40.9569 66.484 41.7417V41.7417Z" fill="#F8B552"/>
<path d="M156.879 61.9669C156.807 61.1067 157.353 60.3152 158.183 60.078L176.887 54.7334C179.477 53.9935 182.033 56.0015 181.926 58.6925V58.6925C181.846 60.7258 180.236 62.3664 178.205 62.4849L158.784 63.6182C157.807 63.6753 156.962 62.9428 156.879 61.9669V61.9669Z" fill="#F8B552"/>
<path d="M63.2604 25.7531C62.6615 26.0071 61.9666 25.8116 61.588 25.2826L51.2344 10.8175C49.9669 9.04675 50.8579 6.5551 52.9608 5.98952V5.98952C54.434 5.5933 55.9776 6.32069 56.6099 7.70903L63.9825 23.8979C64.3066 24.6093 63.9801 25.448 63.2604 25.7531V25.7531Z" fill="#F8B552"/>
<path d="M151.962 90.7333C152.632 89.9491 153.785 89.7944 154.637 90.3743L162.175 95.4996C164.125 96.8259 164.395 99.5962 162.737 101.274V101.274C161.063 102.969 158.256 102.708 156.923 100.733L151.824 93.1778C151.316 92.4245 151.372 91.4245 151.962 90.7333V90.7333Z" fill="#F8B552"/>
<path d="M62.0551 49.7677C62.1835 50.5244 61.7219 51.2565 60.9838 51.4669L54.46 53.3267C52.7717 53.808 51.0605 52.6403 50.8931 50.8928V50.8928C50.724 49.1277 52.2124 47.6492 53.9764 47.8301L60.7248 48.5223C61.3977 48.5914 61.9419 49.1008 62.0551 49.7677V49.7677Z" fill="#F8B552"/>
<path d="M43.6192 11.8822C44.1559 11.3057 45.1159 11.7576 45.0506 12.5561L44.7867 15.7875C44.7573 16.1467 44.9548 16.4895 45.2784 16.6409L48.2947 18.0524C49.043 18.4025 48.9123 19.5225 48.1075 19.6561L45.088 20.1573C44.7173 20.2188 44.4383 20.5286 44.4088 20.9114L44.1713 23.992C44.1087 24.8027 43.0691 25.0458 42.6438 24.3492L40.8508 21.4119C40.6711 21.1176 40.3365 20.9605 40.0047 21.0147L36.6578 21.5609C35.8735 21.6889 35.3635 20.7206 35.9074 20.1364L37.9845 17.9052C38.2418 17.6289 38.2811 17.207 38.0803 16.878L36.4444 14.1983C36.0085 13.4842 36.7316 12.6414 37.4798 12.9916L40.4988 14.4043C40.8211 14.5551 41.198 14.4831 41.4385 14.2247L43.6192 11.8822Z" fill="#F8B552"/>
<path d="M81.8418 6.44181C82.3786 5.86524 83.3385 6.31716 83.2733 7.1157L83.0093 10.347C82.98 10.7063 83.1774 11.049 83.5011 11.2005L86.5174 12.612C87.2656 12.9621 87.1349 14.0821 86.3302 14.2156L83.3107 14.7169C82.94 14.7784 82.661 15.0882 82.6315 15.471L82.3939 18.5515C82.3314 19.3623 81.2917 19.6054 80.8665 18.9088L79.0734 15.9715C78.8937 15.6771 78.5592 15.5201 78.2273 15.5742L74.8804 16.1205C74.0962 16.2485 73.5861 15.2802 74.1301 14.6959L76.2072 12.4648C76.4644 12.1885 76.5037 11.7665 76.3029 11.4376L74.6671 8.75789C74.2311 8.04372 74.9542 7.20097 75.7025 7.55113L78.7215 8.96385C79.0438 9.11468 79.4206 9.04267 79.6612 8.78431L81.8418 6.44181Z" fill="#F8B552"/>
<path d="M37.7598 51.0365C38.2965 50.46 39.2565 50.9119 39.1913 51.7104L38.9273 54.9418C38.8979 55.301 39.0954 55.6438 39.419 55.7952L42.4353 57.2067C43.1836 57.5568 43.0529 58.6768 42.2482 58.8104L39.2286 59.3116C38.858 59.3731 38.5789 59.6829 38.5494 60.0657L38.3119 63.1463C38.2494 63.957 37.2097 64.2001 36.7844 63.5035L34.9914 60.5662C34.8117 60.2719 34.4772 60.1148 34.1453 60.169L30.7984 60.7152C30.0141 60.8432 29.5041 59.8749 30.048 59.2907L32.1252 57.0595C32.3824 56.7832 32.4217 56.3613 32.2209 56.0323L30.5851 53.3526C30.1491 52.6384 30.8722 51.7957 31.6205 52.1459L34.6394 53.5586C34.9617 53.7094 35.3386 53.6374 35.5791 53.379L37.7598 51.0365Z" fill="#F8B552"/>
<path d="M145.979 97.0316C146.515 96.4551 147.475 96.907 147.41 97.7055L147.146 100.937C147.117 101.296 147.314 101.639 147.638 101.79L150.654 103.202C151.402 103.552 151.272 104.672 150.467 104.805L147.447 105.307C147.077 105.368 146.798 105.678 146.768 106.061L146.531 109.141C146.468 109.952 145.428 110.195 145.003 109.499L143.21 106.561C143.03 106.267 142.696 106.11 142.364 106.164L139.017 106.71C138.233 106.838 137.723 105.87 138.267 105.286L140.344 103.055C140.601 102.778 140.64 102.356 140.44 102.027L138.804 99.3477C138.368 98.6336 139.091 97.7908 139.839 98.141L142.858 99.5537C143.18 99.7045 143.557 99.6325 143.798 99.3742L145.979 97.0316Z" fill="#F8B552"/>
<path d="M151.229 45.5512C151.765 44.9746 152.725 45.4265 152.66 46.2251L152.396 49.4564C152.367 49.8157 152.564 50.1584 152.888 50.3098L155.904 51.7213C156.652 52.0715 156.522 53.1914 155.717 53.325L152.697 53.8262C152.327 53.8878 152.048 54.1976 152.018 54.5804L151.781 57.6609C151.718 58.4716 150.678 58.7148 150.253 58.0181L148.46 55.0809C148.28 54.7865 147.946 54.6294 147.614 54.6836L144.267 55.2298C143.483 55.3578 142.973 54.3896 143.517 53.8053L145.594 51.5742C145.851 51.2979 145.89 50.8759 145.69 50.5469L144.054 47.8673C143.618 47.1531 144.341 46.3103 145.089 46.6605L148.108 48.0732C148.43 48.2241 148.807 48.152 149.048 47.8937L151.229 45.5512Z" fill="#F8B552"/>
</svg>
