<svg width="1443" height="999" viewBox="0 0 1443 999" fill="none" xmlns="http://www.w3.org/2000/svg">
<rect width="93.2153" height="15.2799" rx="2" transform="matrix(0.521562 0.853213 0.853213 -0.521562 318.832 140.094)" fill="#FED75A"/>
<rect width="93.2153" height="15.2799" rx="2" transform="matrix(-0.710673 0.703522 0.703522 0.710673 490.887 922.057)" fill="#FED75A"/>
<rect width="93.2153" height="15.2799" rx="2" transform="matrix(-0.455719 -0.890124 -0.890124 0.455719 951.219 175.875)" fill="#FA78C3"/>
<rect width="93.2153" height="15.2799" rx="2" transform="matrix(0.484561 -0.874757 -0.874757 -0.484561 739.207 888.741)" fill="#FA78C3"/>
<circle cx="18.5" cy="92.8779" r="18.5" fill="#FED75A"/>
<circle cx="1213.72" cy="176.376" r="30.5" fill="#FA78C3"/>
<circle cx="501.91" cy="724.094" r="30.5" fill="#FA78C3"/>
<path d="M869.283 796.411C900.319 791.06 921.174 761.756 915.864 730.959C910.554 700.162 881.09 679.534 850.055 684.885C819.019 690.236 798.164 719.54 803.474 750.337C808.783 781.134 838.247 801.762 869.283 796.411Z" fill="#2D2D2D"/>
<path d="M857.535 732.034C844 734.367 834.774 746.388 836.928 758.882L868.692 796.739L857.536 732.034L857.535 732.034Z" fill="#C7EAFB"/>
<path d="M885.942 750.431L885.941 750.431C883.787 737.938 871.068 729.701 857.533 732.034L868.689 796.739L885.943 750.431L885.942 750.431Z" fill="#6E00FF"/>
<path d="M876.971 699.509C877.014 699.209 877.418 699.14 877.558 699.41L883.004 709.85C883.067 709.971 883.201 710.037 883.335 710.014L894.985 708.005C895.284 707.953 895.474 708.315 895.263 708.532L887.045 716.968C886.951 717.065 886.929 717.212 886.993 717.332L892.496 727.771C892.638 728.04 892.353 728.332 892.081 728.198L881.511 723C881.39 722.941 881.244 722.966 881.15 723.062L872.87 731.515C872.659 731.731 872.294 731.551 872.337 731.251L874.028 719.567C874.048 719.433 873.978 719.301 873.857 719.241L863.289 714.045C863.017 713.911 863.075 713.507 863.374 713.455L875.025 711.446C875.159 711.423 875.262 711.317 875.282 711.183L876.971 699.509Z" fill="#FFE500"/>
<path d="M828.022 707.949C828.065 707.648 828.468 707.58 828.609 707.849L834.055 718.289C834.118 718.41 834.252 718.476 834.386 718.453L846.036 716.444C846.335 716.393 846.525 716.754 846.313 716.971L838.096 725.407C838.001 725.504 837.98 725.651 838.043 725.771L843.547 736.211C843.689 736.479 843.404 736.771 843.132 736.638L832.562 731.44C832.441 731.38 832.295 731.405 832.2 731.502L823.921 739.955C823.709 740.171 823.344 739.99 823.388 739.691L825.079 728.007C825.098 727.872 825.029 727.741 824.907 727.681L814.339 722.484C814.067 722.35 814.126 721.946 814.424 721.895L826.076 719.886C826.209 719.863 826.313 719.756 826.332 719.622L828.022 707.949Z" fill="#FFE500"/>
<path d="M910.619 706.04C910.143 705.269 910.304 704.266 910.997 703.683L923.715 692.984C924.622 692.221 926.004 692.511 926.528 693.575L928.713 698.008C929.174 698.944 928.758 700.075 927.801 700.49L912.996 706.912C912.163 707.273 911.192 706.968 910.715 706.196L910.619 706.04Z" fill="#FFE500"/>
<path d="M786.236 726.577C786.364 727.473 785.816 728.328 784.947 728.586L769.012 733.306C767.876 733.642 766.725 732.824 766.67 731.64L766.441 726.703C766.392 725.66 767.225 724.79 768.269 724.792L784.407 724.827C785.314 724.829 786.082 725.496 786.21 726.395L786.236 726.577Z" fill="#FFE500"/>
<path d="M798.899 711.79C798.434 712.507 797.533 712.806 796.732 712.508L771.307 703.083C770.112 702.64 769.727 701.14 770.561 700.176L774.06 696.133C774.645 695.458 775.632 695.305 776.394 695.771L798.347 709.197C799.223 709.732 799.485 710.886 798.926 711.748L798.899 711.79Z" fill="#FFE500"/>
<path d="M928.927 712.482C929.031 711.556 929.815 710.858 930.746 710.86L942.264 710.89C943.405 710.893 944.264 711.93 944.054 713.052L943.199 717.624C942.988 718.757 941.792 719.413 940.723 718.983L930.026 714.679C929.265 714.372 928.801 713.596 928.893 712.78L928.927 712.482Z" fill="#FFE500"/>
<path d="M799.621 730.732C800.371 731.284 800.585 732.312 800.119 733.118L794.345 743.084C793.773 744.071 792.446 744.298 791.578 743.557L788.042 740.534C787.166 739.785 787.195 738.422 788.101 737.71L797.169 730.588C797.814 730.081 798.718 730.067 799.379 730.554L799.621 730.732Z" fill="#FFE500"/>
<path d="M1119.43 659.586C1143.47 669.124 1170.7 657.364 1180.23 633.32C1189.77 609.277 1178.01 582.054 1153.97 572.516C1129.92 562.979 1102.7 574.738 1093.16 598.782C1083.63 622.826 1095.39 650.049 1119.43 659.586Z" fill="#2D2D2D"/>
<path d="M1149.14 630.65C1152.96 620.637 1148.04 609.214 1138.13 605.136L1101.36 609.146C1100.44 609.247 1100.29 610.536 1101.15 610.893L1149.14 630.65L1149.14 630.65Z" fill="#C7EAFB"/>
<path d="M1123.6 642.436L1123.6 642.435C1133.51 646.513 1144.64 641.703 1148.46 631.691L1100.48 611.934C1099.61 611.577 1098.88 612.627 1099.48 613.355L1123.6 642.437L1123.6 642.436Z" fill="#6E00FF"/>
<path d="M1127.91 583.531C1134.53 586.16 1137.79 593.639 1135.18 600.226C1134.85 601.053 1133.94 601.443 1133.11 601.113C1132.28 600.783 1131.88 599.874 1132.21 599.047C1134.18 594.085 1131.7 588.453 1126.74 586.485C1121.77 584.517 1116.1 586.949 1114.14 591.881C1113.81 592.708 1112.9 593.099 1112.07 592.769C1111.24 592.439 1110.84 591.53 1111.17 590.703C1113.78 584.116 1121.28 580.903 1127.91 583.531Z" fill="white"/>
<path d="M1164.9 598.198C1171.52 600.827 1174.78 608.306 1172.17 614.893C1171.84 615.72 1170.93 616.11 1170.1 615.78C1169.26 615.45 1168.87 614.541 1169.2 613.714C1171.16 608.752 1168.69 603.12 1163.72 601.152C1158.76 599.184 1153.09 601.616 1151.13 606.548C1150.8 607.375 1149.89 607.766 1149.06 607.436C1148.23 607.106 1147.83 606.197 1148.16 605.37C1150.77 598.783 1158.27 595.57 1164.9 598.198Z" fill="white"/>
<path d="M1085.89 598.952C1087.2 595.652 1085.59 591.882 1082.27 590.562C1078.94 589.242 1075.2 590.859 1073.88 594.188C1072.56 597.516 1074.17 601.258 1077.5 602.578L1079.5 603.372L1099.49 611.301" stroke="#00C800" stroke-width="1.75802" stroke-linecap="round" stroke-linejoin="round"/>
<path d="M1179.22 603.844L1147.3 572.13L1198.81 554.459L1179.22 603.844Z" fill="#00C800" stroke="#00C800" stroke-width="0.0775596" stroke-linecap="round" stroke-linejoin="round"/>
<path d="M1195.43 562.994C1200.15 564.863 1205.48 562.558 1207.35 557.847C1209.22 553.135 1206.91 547.8 1202.2 545.931C1197.49 544.062 1192.16 546.367 1190.29 551.079C1188.42 555.79 1190.72 561.125 1195.43 562.994Z" fill="#6E00FF"/>
<path d="M1196.97 615.673C1198.96 617.299 1201.89 617.003 1203.52 615.012C1205.14 613.022 1204.85 610.09 1202.86 608.465C1200.87 606.839 1197.94 607.135 1196.31 609.125C1194.68 611.116 1194.98 614.048 1196.97 615.673Z" fill="#FF5A00"/>
<path d="M1174.16 637.782C1176.15 639.407 1179.08 639.111 1180.71 637.121C1182.34 635.13 1182.04 632.198 1180.05 630.573C1178.06 628.947 1175.13 629.243 1173.5 631.234C1171.88 633.224 1172.17 636.156 1174.16 637.782Z" fill="#FF00FF"/>
<path d="M1112.15 563.479C1114.51 564.413 1117.17 563.261 1118.11 560.905C1119.04 558.549 1117.89 555.882 1115.53 554.947C1113.18 554.013 1110.51 555.165 1109.58 557.521C1108.64 559.877 1109.79 562.544 1112.15 563.479Z" fill="#0082FF"/>
<path d="M1131.81 561.246C1134.16 562.18 1136.82 561.055 1137.74 558.732C1138.66 556.41 1137.5 553.769 1135.14 552.835C1132.79 551.9 1130.13 553.025 1129.21 555.348C1128.29 557.671 1129.45 560.311 1131.81 561.246Z" fill="#00C800"/>
<path d="M1400.91 452.481C1424 446.318 1437.72 422.608 1431.56 399.522C1425.39 376.436 1401.68 362.717 1378.6 368.88C1355.51 375.042 1341.79 398.753 1347.95 421.839C1354.12 444.925 1377.83 458.644 1400.91 452.481Z" fill="#2D2D2D"/>
<path d="M1388.88 403.892C1378.18 406.936 1371.4 416.917 1373.72 426.186L1400.9 451.894L1388.88 403.892L1388.88 403.892Z" fill="#C7EAFB"/>
<path d="M1411.49 415.762L1411.48 415.762C1409.16 406.493 1398.61 401.446 1387.92 404.49L1399.94 452.492L1411.49 415.761L1411.49 415.762Z" fill="#6E00FF"/>
<path d="M1408.5 375.33C1407.6 374.259 1406.92 372.92 1406.58 371.453C1405.75 367.807 1408.83 360.572 1411.22 355.474C1411.36 355.156 1411.49 354.925 1411.53 354.775C1411.63 354.367 1411.94 354.061 1412.35 353.959C1412.75 353.857 1413.24 354.044 1413.43 354.321C1413.43 354.321 1413.47 354.367 1413.49 354.39C1413.62 354.553 1413.99 354.799 1414.42 355.157C1419.2 359.087 1424.2 363.556 1424.97 366.935C1425.52 369.38 1425.08 371.907 1423.71 374.061C1422.35 376.215 1420.28 377.728 1417.81 378.338C1414.23 379.218 1410.68 377.957 1408.48 375.35L1408.5 375.33ZM1408.71 370.928C1409.58 374.817 1413.44 377.172 1417.36 376.207C1419.25 375.73 1420.87 374.556 1421.9 372.925C1422.95 371.273 1423.27 369.328 1422.86 367.44C1422.16 364.284 1415.31 358.676 1413.04 356.807L1413 356.761C1409.68 363.957 1408.24 368.729 1408.73 370.907L1408.71 370.928Z" fill="#0082FF"/>
<path d="M1365.3 391.402C1371.66 389.704 1378.19 393.459 1379.88 399.783C1380.09 400.577 1379.63 401.369 1378.83 401.582C1378.04 401.795 1377.24 401.339 1377.03 400.545C1375.76 395.78 1370.82 392.967 1366.06 394.238C1361.29 395.51 1358.42 400.439 1359.68 405.175C1359.9 405.969 1359.43 406.761 1358.64 406.974C1357.84 407.187 1357.04 406.731 1356.83 405.937C1355.14 399.612 1358.94 393.101 1365.3 391.402Z" fill="white"/>
<path d="M1400.81 381.925C1407.17 380.227 1413.7 383.981 1415.39 390.306C1415.6 391.1 1415.14 391.891 1414.34 392.104C1413.54 392.318 1412.75 391.861 1412.54 391.067C1411.27 386.303 1406.33 383.489 1401.56 384.761C1396.8 386.033 1393.93 390.961 1395.19 395.697C1395.4 396.492 1394.94 397.283 1394.14 397.496C1393.35 397.709 1392.55 397.253 1392.34 396.459C1390.65 390.135 1394.44 383.623 1400.81 381.925Z" fill="white"/>
<path d="M1242.96 925.285C1261.32 930.399 1280.34 919.664 1285.46 901.308C1290.57 882.952 1279.84 863.926 1261.48 858.812C1243.12 853.699 1224.1 864.433 1218.98 882.789C1213.87 901.145 1224.61 920.171 1242.96 925.285Z" fill="#2D2D2D"/>
<path d="M1239.15 884.95C1244.41 886.522 1249.72 883.76 1251.02 878.781C1252.31 873.802 1249.09 868.491 1243.83 866.919C1238.57 865.346 1233.26 868.108 1231.97 873.087C1230.68 878.066 1233.89 883.377 1239.15 884.95Z" fill="white"/>
<path d="M1240.32 880.446C1242.95 881.232 1245.61 879.852 1246.25 877.362C1246.9 874.873 1245.29 872.217 1242.66 871.431C1240.03 870.645 1237.38 872.026 1236.73 874.515C1236.08 877.005 1237.69 879.66 1240.32 880.446Z" fill="#231F20"/>
<path d="M1267.39 892.819C1272.65 894.392 1277.96 891.63 1279.25 886.651C1280.55 881.672 1277.33 876.361 1272.07 874.788C1266.81 873.216 1261.5 875.977 1260.21 880.957C1258.92 885.936 1262.13 891.247 1267.39 892.819Z" fill="white"/>
<path d="M1268.56 888.316C1271.19 889.102 1273.84 887.721 1274.49 885.232C1275.14 882.742 1273.53 880.087 1270.9 879.301C1268.27 878.515 1265.61 879.895 1264.97 882.385C1264.32 884.874 1265.93 887.53 1268.56 888.316Z" fill="#231F20"/>
<path d="M1253.72 887.136C1245.22 884.615 1236.75 888.544 1234.82 895.911L1243.73 925.291L1253.72 887.136L1253.72 887.136Z" fill="#C7EAFB"/>
<path d="M1264.87 904.552L1264.87 904.552C1266.8 897.185 1261.46 889.169 1252.96 886.648L1242.96 924.804L1264.87 904.553L1264.87 904.552Z" fill="#6E00FF"/>
<path d="M1230.97 873.03C1232.59 867.224 1238.61 863.829 1244.41 865.446C1250.22 867.063 1253.61 873.082 1251.99 878.887L1230.97 873.03L1230.97 873.03Z" fill="#0082FF"/>
<path d="M1259.2 880.903C1260.82 875.096 1266.84 871.701 1272.64 873.319C1278.45 874.936 1281.84 880.954 1280.22 886.76L1259.2 880.902L1259.2 880.903Z" fill="#0082FF"/>
<path d="M174.178 220.207C193.483 213.089 203.364 191.669 196.246 172.363C189.128 153.058 167.708 143.177 148.402 150.295C129.097 157.413 119.216 178.833 126.334 198.139C133.452 217.444 154.872 227.325 174.178 220.207Z" fill="#2D2D2D"/>
<path d="M160.031 179.574C151.064 183.028 146.007 192.099 148.738 199.835L174.172 219.637L160.032 179.574L160.031 179.574Z" fill="#C7EAFB"/>
<path d="M180.373 187.906L180.373 187.906C177.642 180.17 168.16 176.698 159.192 180.152L173.332 220.215L180.374 187.905L180.373 187.906Z" fill="#6E00FF"/>
<path d="M138.811 170.678C144.131 168.717 150.032 171.417 151.982 176.706C152.227 177.37 151.894 178.085 151.226 178.331C150.558 178.578 149.841 178.249 149.596 177.585C148.127 173.601 143.669 171.581 139.685 173.05C135.701 174.518 133.631 178.973 135.091 182.933C135.336 183.597 135.003 184.312 134.335 184.559C133.667 184.805 132.95 184.477 132.705 183.813C130.755 178.524 133.491 172.639 138.811 170.678Z" fill="white"/>
<path d="M168.506 159.725C173.826 157.763 179.727 160.464 181.677 165.753C181.922 166.417 181.589 167.132 180.921 167.378C180.253 167.625 179.536 167.296 179.291 166.632C177.822 162.648 173.365 160.628 169.381 162.096C165.397 163.565 163.326 168.019 164.786 171.98C165.031 172.644 164.699 173.359 164.031 173.606C163.363 173.852 162.645 173.524 162.4 172.86C160.451 167.571 163.186 161.686 168.506 159.725Z" fill="white"/>
<path d="M200.819 160.366C198.306 161.293 196.994 164.085 197.933 166.634C197.006 164.118 194.215 162.801 191.669 163.74C189.124 164.678 187.844 167.459 188.784 170.007C191.817 178.234 202.956 180.357 202.956 180.357C202.956 180.357 210.051 171.511 207.018 163.285C206.091 160.768 203.3 159.452 200.754 160.39L200.819 160.366Z" fill="#FF5A00"/>
<path d="M208.085 139.474C206.09 140.21 205.049 142.427 205.796 144.452C205.059 142.453 202.843 141.407 200.823 142.152C198.803 142.896 197.788 145.105 198.534 147.129C200.943 153.664 209.785 155.352 209.785 155.352C209.785 155.352 215.415 148.328 213.006 141.794C212.269 139.795 210.053 138.749 208.033 139.493L208.085 139.474Z" fill="#FF5A00"/>
<path d="M187.846 130.033C186.171 130.651 185.296 132.515 185.924 134.216C185.304 132.536 183.443 131.656 181.746 132.282C180.049 132.907 179.197 134.763 179.824 136.465C181.849 141.958 189.278 143.38 189.278 143.38C189.278 143.38 194.006 137.477 191.98 131.983C191.361 130.303 189.5 129.423 187.803 130.049L187.846 130.033Z" fill="#FF5A00"/>
<path d="M486.221 92.2771L490.727 79.2294L485.073 78.2642L482.367 86.097L471.287 84.5547L467.68 94.9954L456.598 93.4539L452.09 106.501L457.745 107.468L460.452 99.6329L471.533 101.174L475.141 90.7348L486.221 92.2771Z" fill="#FF5A00"/>
<path d="M115.654 253.526L125.804 253.682L125.182 249.511L119.088 249.416L117.625 241.321L109.504 241.195L108.04 233.1L97.8905 232.942L98.5119 237.114L104.606 237.209L106.07 245.304L114.191 245.431L115.654 253.526Z" fill="#FF5A00"/>
<path d="M1332.08 913.116L1342.23 913.272L1341.61 909.101L1335.51 909.006L1334.05 900.911L1325.93 900.785L1324.46 892.69L1314.31 892.532L1314.94 896.704L1321.03 896.799L1322.49 904.894L1330.62 905.021L1332.08 913.116Z" fill="#FF5A00"/>
<path d="M288.869 553.062C276.433 548.662 263.998 544.262 251.564 539.866C249.756 539.226 247.948 538.585 246.136 537.947C243.34 536.957 242.331 541.466 245.103 542.444C257.539 546.844 269.975 551.244 282.408 555.64C284.216 556.281 286.024 556.921 287.837 557.559C290.633 558.549 291.641 554.04 288.869 553.062Z" fill="#6E00FF"/>
<path d="M294.827 566.47C275.763 559.777 256.7 553.077 237.636 546.383C234.91 545.426 232.181 544.464 229.454 543.507C226.728 542.55 225.646 547.029 228.422 548.004C247.486 554.698 266.548 561.398 285.612 568.091C288.339 569.049 291.068 570.01 293.794 570.968C296.521 571.925 297.603 567.446 294.827 566.47Z" fill="#6E00FF"/>
<path d="M706.742 157.644L716.219 161.279L717.069 157.148L711.379 154.965L712.787 146.86L705.204 143.951L706.611 135.845L697.134 132.209L696.284 136.34L701.975 138.524L700.567 146.63L708.15 149.539L706.742 157.644Z" fill="#F8B552"/>
<path d="M1338.4 197.273C1340.14 197.825 1342 196.861 1342.56 195.119C1343.11 193.377 1342.14 191.516 1340.4 190.964C1338.66 190.411 1336.8 191.375 1336.25 193.118C1335.69 194.86 1336.66 196.72 1338.4 197.273Z" fill="#FF00FF"/>
<path d="M1036.12 506.951C1041.05 506.951 1045.04 502.957 1045.04 498.03C1045.04 493.103 1041.05 489.109 1036.12 489.109C1031.19 489.109 1027.2 493.103 1027.2 498.03C1027.2 502.957 1031.19 506.951 1036.12 506.951Z" fill="#0082FF"/>
<rect width="93.2153" height="15.2799" rx="2" transform="matrix(0.484561 -0.874757 -0.874757 -0.484561 739.207 888.741)" fill="#FA78C3"/>
<path d="M869.283 796.411C900.319 791.06 921.174 761.756 915.864 730.959C910.554 700.162 881.09 679.534 850.055 684.885C819.019 690.236 798.164 719.54 803.474 750.337C808.783 781.134 838.247 801.762 869.283 796.411Z" fill="#2D2D2D"/>
<path d="M857.535 732.034C844 734.367 834.774 746.388 836.928 758.882L868.692 796.739L857.536 732.034L857.535 732.034Z" fill="#C7EAFB"/>
<path d="M885.942 750.431L885.941 750.431C883.787 737.938 871.068 729.701 857.533 732.034L868.689 796.739L885.943 750.431L885.942 750.431Z" fill="#6E00FF"/>
<path d="M876.971 699.509C877.014 699.209 877.418 699.14 877.558 699.41L883.004 709.85C883.067 709.971 883.201 710.037 883.335 710.014L894.985 708.005C895.284 707.953 895.474 708.315 895.263 708.532L887.045 716.968C886.951 717.065 886.929 717.212 886.993 717.332L892.496 727.771C892.638 728.04 892.353 728.332 892.081 728.198L881.511 723C881.39 722.941 881.244 722.966 881.15 723.062L872.87 731.515C872.659 731.731 872.294 731.551 872.337 731.251L874.028 719.567C874.048 719.433 873.978 719.301 873.857 719.241L863.289 714.045C863.017 713.911 863.075 713.507 863.374 713.455L875.025 711.446C875.159 711.423 875.262 711.317 875.282 711.183L876.971 699.509Z" fill="#FFE500"/>
<path d="M828.022 707.949C828.065 707.648 828.468 707.58 828.609 707.849L834.055 718.289C834.118 718.41 834.252 718.476 834.386 718.453L846.036 716.444C846.335 716.393 846.525 716.754 846.313 716.971L838.096 725.407C838.001 725.504 837.98 725.651 838.043 725.771L843.547 736.211C843.689 736.479 843.404 736.771 843.132 736.638L832.562 731.44C832.441 731.38 832.295 731.405 832.2 731.502L823.921 739.955C823.709 740.171 823.344 739.99 823.388 739.691L825.079 728.007C825.098 727.872 825.029 727.741 824.907 727.681L814.339 722.484C814.067 722.35 814.126 721.946 814.424 721.895L826.076 719.886C826.209 719.863 826.313 719.756 826.332 719.622L828.022 707.949Z" fill="#FFE500"/>
<path d="M910.619 706.04C910.143 705.269 910.304 704.266 910.997 703.683L923.715 692.984C924.622 692.221 926.004 692.511 926.528 693.575L928.713 698.008C929.174 698.944 928.758 700.075 927.801 700.49L912.996 706.912C912.163 707.273 911.192 706.968 910.715 706.196L910.619 706.04Z" fill="#FFE500"/>
<path d="M786.236 726.577C786.364 727.473 785.816 728.328 784.947 728.586L769.012 733.306C767.876 733.642 766.725 732.824 766.67 731.64L766.441 726.703C766.392 725.66 767.225 724.79 768.269 724.792L784.407 724.827C785.314 724.829 786.082 725.496 786.21 726.395L786.236 726.577Z" fill="#FFE500"/>
<path d="M798.899 711.79C798.434 712.507 797.533 712.806 796.732 712.508L771.307 703.083C770.112 702.64 769.727 701.14 770.561 700.176L774.06 696.133C774.645 695.458 775.632 695.305 776.394 695.771L798.347 709.197C799.223 709.732 799.485 710.886 798.926 711.748L798.899 711.79Z" fill="#FFE500"/>
<path d="M928.927 712.482C929.031 711.556 929.815 710.858 930.746 710.86L942.264 710.89C943.405 710.893 944.264 711.93 944.054 713.052L943.199 717.624C942.988 718.757 941.792 719.413 940.723 718.983L930.026 714.679C929.265 714.372 928.801 713.596 928.893 712.78L928.927 712.482Z" fill="#FFE500"/>
<path d="M799.621 730.732C800.371 731.284 800.585 732.312 800.119 733.118L794.345 743.084C793.773 744.071 792.446 744.298 791.578 743.557L788.042 740.534C787.166 739.785 787.195 738.422 788.101 737.71L797.169 730.588C797.814 730.081 798.718 730.067 799.379 730.554L799.621 730.732Z" fill="#FFE500"/>
<path d="M1119.43 659.586C1143.47 669.124 1170.7 657.364 1180.23 633.32C1189.77 609.277 1178.01 582.054 1153.97 572.516C1129.92 562.979 1102.7 574.738 1093.16 598.782C1083.63 622.826 1095.39 650.049 1119.43 659.586Z" fill="#2D2D2D"/>
<path d="M1149.14 630.65C1152.96 620.637 1148.04 609.214 1138.13 605.136L1101.36 609.146C1100.44 609.247 1100.29 610.536 1101.15 610.893L1149.14 630.65L1149.14 630.65Z" fill="#C7EAFB"/>
<path d="M1123.6 642.436L1123.6 642.435C1133.51 646.513 1144.64 641.703 1148.46 631.691L1100.48 611.934C1099.61 611.577 1098.88 612.627 1099.48 613.355L1123.6 642.437L1123.6 642.436Z" fill="#6E00FF"/>
<path d="M1127.91 583.531C1134.53 586.16 1137.79 593.639 1135.18 600.226C1134.85 601.053 1133.94 601.443 1133.11 601.113C1132.28 600.783 1131.88 599.874 1132.21 599.047C1134.18 594.085 1131.7 588.453 1126.74 586.485C1121.77 584.517 1116.1 586.949 1114.14 591.881C1113.81 592.708 1112.9 593.099 1112.07 592.769C1111.24 592.439 1110.84 591.53 1111.17 590.703C1113.78 584.116 1121.28 580.903 1127.91 583.531Z" fill="white"/>
<path d="M1164.9 598.198C1171.52 600.827 1174.78 608.306 1172.17 614.893C1171.84 615.72 1170.93 616.11 1170.1 615.78C1169.26 615.45 1168.87 614.541 1169.2 613.714C1171.16 608.752 1168.69 603.12 1163.72 601.152C1158.76 599.184 1153.09 601.616 1151.13 606.548C1150.8 607.375 1149.89 607.766 1149.06 607.436C1148.23 607.106 1147.83 606.197 1148.16 605.37C1150.77 598.783 1158.27 595.57 1164.9 598.198Z" fill="white"/>
<path d="M1085.89 598.952C1087.2 595.652 1085.59 591.882 1082.27 590.562C1078.94 589.242 1075.2 590.859 1073.88 594.188C1072.56 597.516 1074.17 601.258 1077.5 602.578L1079.5 603.372L1099.49 611.301" stroke="#00C800" stroke-width="1.75802" stroke-linecap="round" stroke-linejoin="round"/>
<path d="M1179.22 603.844L1147.3 572.13L1198.81 554.459L1179.22 603.844Z" fill="#00C800" stroke="#00C800" stroke-width="0.0775596" stroke-linecap="round" stroke-linejoin="round"/>
<path d="M1195.43 562.994C1200.15 564.863 1205.48 562.558 1207.35 557.847C1209.22 553.135 1206.91 547.8 1202.2 545.931C1197.49 544.062 1192.16 546.367 1190.29 551.079C1188.42 555.79 1190.72 561.125 1195.43 562.994Z" fill="#6E00FF"/>
<path d="M1196.97 615.673C1198.96 617.299 1201.89 617.003 1203.52 615.012C1205.14 613.022 1204.85 610.09 1202.86 608.465C1200.87 606.839 1197.94 607.135 1196.31 609.125C1194.68 611.116 1194.98 614.048 1196.97 615.673Z" fill="#FF5A00"/>
<path d="M1174.16 637.782C1176.15 639.407 1179.08 639.111 1180.71 637.121C1182.34 635.13 1182.04 632.198 1180.05 630.573C1178.06 628.947 1175.13 629.243 1173.5 631.234C1171.88 633.224 1172.17 636.156 1174.16 637.782Z" fill="#FF00FF"/>
<path d="M1112.15 563.479C1114.51 564.413 1117.17 563.261 1118.11 560.905C1119.04 558.549 1117.89 555.882 1115.53 554.947C1113.18 554.013 1110.51 555.165 1109.58 557.521C1108.64 559.877 1109.79 562.544 1112.15 563.479Z" fill="#0082FF"/>
<path d="M1131.81 561.246C1134.16 562.18 1136.82 561.055 1137.74 558.732C1138.66 556.41 1137.5 553.769 1135.14 552.835C1132.79 551.9 1130.13 553.025 1129.21 555.348C1128.29 557.671 1129.45 560.311 1131.81 561.246Z" fill="#00C800"/>
<path d="M1242.96 925.285C1261.32 930.399 1280.34 919.664 1285.46 901.308C1290.57 882.952 1279.84 863.926 1261.48 858.812C1243.12 853.699 1224.1 864.433 1218.98 882.789C1213.87 901.145 1224.61 920.171 1242.96 925.285Z" fill="#2D2D2D"/>
<path d="M1239.15 884.95C1244.41 886.522 1249.72 883.76 1251.02 878.781C1252.31 873.802 1249.09 868.491 1243.83 866.919C1238.57 865.346 1233.26 868.108 1231.97 873.087C1230.68 878.066 1233.89 883.377 1239.15 884.95Z" fill="white"/>
<path d="M1240.32 880.446C1242.95 881.232 1245.61 879.852 1246.25 877.362C1246.9 874.873 1245.29 872.217 1242.66 871.431C1240.03 870.645 1237.38 872.026 1236.73 874.515C1236.08 877.005 1237.69 879.66 1240.32 880.446Z" fill="#231F20"/>
<path d="M1267.39 892.819C1272.65 894.392 1277.96 891.63 1279.25 886.651C1280.55 881.672 1277.33 876.361 1272.07 874.788C1266.81 873.216 1261.5 875.977 1260.21 880.957C1258.92 885.936 1262.13 891.247 1267.39 892.819Z" fill="white"/>
<path d="M1268.56 888.316C1271.19 889.102 1273.84 887.721 1274.49 885.232C1275.14 882.742 1273.53 880.087 1270.9 879.301C1268.27 878.515 1265.61 879.895 1264.97 882.385C1264.32 884.874 1265.93 887.53 1268.56 888.316Z" fill="#231F20"/>
<path d="M1253.72 887.136C1245.22 884.615 1236.75 888.544 1234.82 895.911L1243.73 925.291L1253.72 887.136L1253.72 887.136Z" fill="#C7EAFB"/>
<path d="M1264.87 904.552L1264.87 904.552C1266.8 897.185 1261.46 889.169 1252.96 886.648L1242.96 924.804L1264.87 904.553L1264.87 904.552Z" fill="#6E00FF"/>
<path d="M1230.97 873.03C1232.59 867.224 1238.61 863.829 1244.41 865.446C1250.22 867.063 1253.61 873.082 1251.99 878.887L1230.97 873.03L1230.97 873.03Z" fill="#0082FF"/>
<path d="M1259.2 880.903C1260.82 875.096 1266.84 871.701 1272.64 873.319C1278.45 874.936 1281.84 880.954 1280.22 886.76L1259.2 880.902L1259.2 880.903Z" fill="#0082FF"/>
<path d="M1332.08 913.116L1342.23 913.272L1341.61 909.101L1335.51 909.006L1334.05 900.911L1325.93 900.785L1324.46 892.69L1314.31 892.532L1314.94 896.704L1321.03 896.799L1322.49 904.894L1330.62 905.021L1332.08 913.116Z" fill="#FF5A00"/>
<path d="M1036.12 506.951C1041.05 506.951 1045.04 502.957 1045.04 498.03C1045.04 493.103 1041.05 489.109 1036.12 489.109C1031.19 489.109 1027.2 493.103 1027.2 498.03C1027.2 502.957 1031.19 506.951 1036.12 506.951Z" fill="#0082FF"/>
<path d="M264.259 346.216C269.185 346.216 273.179 342.278 273.179 337.421C273.179 332.564 269.185 328.626 264.259 328.626C259.332 328.626 255.338 332.564 255.338 337.421C255.338 342.278 259.332 346.216 264.259 346.216Z" fill="#00C800"/>
<rect width="93.2153" height="15.2799" rx="2" transform="matrix(0.521562 0.853213 0.853213 -0.521562 318.832 140.094)" fill="#FED75A"/>
<circle cx="18.5" cy="92.8779" r="18.5" fill="#FED75A"/>
<path d="M174.178 220.207C193.483 213.089 203.364 191.669 196.246 172.363C189.128 153.058 167.708 143.177 148.402 150.295C129.097 157.413 119.216 178.833 126.334 198.139C133.452 217.444 154.872 227.325 174.178 220.207Z" fill="#2D2D2D"/>
<path d="M160.031 179.574C151.064 183.028 146.007 192.099 148.738 199.835L174.172 219.637L160.032 179.574L160.031 179.574Z" fill="#C7EAFB"/>
<path d="M180.373 187.906L180.373 187.906C177.642 180.17 168.16 176.698 159.192 180.152L173.332 220.215L180.374 187.905L180.373 187.906Z" fill="#6E00FF"/>
<path d="M138.811 170.678C144.131 168.717 150.032 171.417 151.982 176.706C152.227 177.37 151.894 178.085 151.226 178.331C150.558 178.578 149.841 178.249 149.596 177.585C148.127 173.601 143.669 171.581 139.685 173.05C135.701 174.518 133.631 178.973 135.091 182.933C135.336 183.597 135.003 184.312 134.335 184.559C133.667 184.805 132.95 184.477 132.705 183.813C130.755 178.524 133.491 172.639 138.811 170.678Z" fill="white"/>
<path d="M168.506 159.725C173.826 157.763 179.727 160.464 181.677 165.753C181.922 166.417 181.589 167.132 180.921 167.378C180.253 167.625 179.536 167.296 179.291 166.632C177.822 162.648 173.365 160.628 169.381 162.096C165.397 163.565 163.326 168.019 164.786 171.98C165.031 172.644 164.699 173.359 164.031 173.606C163.363 173.852 162.645 173.524 162.4 172.86C160.451 167.571 163.186 161.686 168.506 159.725Z" fill="white"/>
<path d="M200.819 160.366C198.306 161.293 196.994 164.085 197.933 166.634C197.006 164.118 194.215 162.801 191.669 163.74C189.124 164.678 187.844 167.459 188.784 170.007C191.817 178.234 202.956 180.357 202.956 180.357C202.956 180.357 210.051 171.511 207.018 163.285C206.091 160.768 203.3 159.452 200.754 160.39L200.819 160.366Z" fill="#FF5A00"/>
<path d="M208.085 139.474C206.09 140.21 205.049 142.427 205.796 144.452C205.059 142.453 202.843 141.407 200.823 142.152C198.803 142.896 197.788 145.105 198.534 147.129C200.943 153.664 209.785 155.352 209.785 155.352C209.785 155.352 215.415 148.328 213.006 141.794C212.269 139.795 210.053 138.749 208.033 139.493L208.085 139.474Z" fill="#FF5A00"/>
<path d="M187.846 130.033C186.171 130.651 185.296 132.515 185.924 134.216C185.304 132.536 183.443 131.656 181.746 132.282C180.049 132.907 179.197 134.763 179.824 136.465C181.849 141.958 189.278 143.38 189.278 143.38C189.278 143.38 194.006 137.477 191.98 131.983C191.361 130.303 189.5 129.423 187.803 130.049L187.846 130.033Z" fill="#FF5A00"/>
<path d="M486.221 92.2771L490.727 79.2294L485.073 78.2642L482.367 86.097L471.287 84.5547L467.68 94.9954L456.598 93.4539L452.09 106.501L457.745 107.468L460.452 99.6329L471.533 101.174L475.141 90.7348L486.221 92.2771Z" fill="#FF5A00"/>
<path d="M115.654 253.526L125.804 253.682L125.182 249.511L119.088 249.416L117.625 241.321L109.504 241.195L108.04 233.1L97.8905 232.942L98.5119 237.114L104.606 237.209L106.07 245.304L114.191 245.431L115.654 253.526Z" fill="#FF5A00"/>
<path d="M288.869 553.062C276.433 548.662 263.998 544.262 251.564 539.866C249.756 539.226 247.948 538.585 246.136 537.947C243.34 536.957 242.331 541.466 245.103 542.444C257.539 546.844 269.975 551.244 282.408 555.64C284.216 556.281 286.024 556.921 287.837 557.559C290.633 558.549 291.641 554.04 288.869 553.062Z" fill="#6E00FF"/>
<path d="M294.827 566.47C275.763 559.777 256.7 553.077 237.636 546.383C234.91 545.426 232.181 544.464 229.454 543.507C226.728 542.55 225.646 547.029 228.422 548.004C247.486 554.698 266.548 561.398 285.612 568.091C288.339 569.049 291.068 570.01 293.794 570.968C296.521 571.925 297.603 567.446 294.827 566.47Z" fill="#6E00FF"/>
<path d="M264.259 346.216C269.185 346.216 273.179 342.278 273.179 337.421C273.179 332.564 269.185 328.626 264.259 328.626C259.332 328.626 255.338 332.564 255.338 337.421C255.338 342.278 259.332 346.216 264.259 346.216Z" fill="#00C800"/>
<path d="M1268.71 98.9115C1273.19 100.331 1277.96 97.8539 1279.38 93.379C1280.8 88.9041 1278.33 84.1259 1273.85 82.7064C1269.38 81.287 1264.6 83.7639 1263.18 88.2388C1261.76 92.7137 1264.24 97.4921 1268.71 98.9115Z" fill="#FF5A00"/>
<path d="M1344.83 273.266C1360.24 268.829 1369.13 252.745 1364.69 237.341C1360.25 221.937 1344.17 213.047 1328.76 217.484C1313.36 221.921 1304.47 238.005 1308.91 253.409C1313.34 268.813 1329.43 277.703 1344.83 273.266Z" fill="#2D2D2D"/>
<path d="M1324.04 246.13C1328.45 244.768 1331.12 240.278 1330 236.101C1328.87 231.925 1324.38 229.643 1319.97 231.005C1315.55 232.367 1312.89 236.857 1314.01 241.033C1315.13 245.21 1319.62 247.492 1324.04 246.13Z" fill="white"/>
<path d="M1323.02 242.353C1325.23 241.672 1326.56 239.427 1326 237.339C1325.44 235.25 1323.19 234.11 1320.99 234.791C1318.78 235.471 1317.45 237.716 1318.01 239.805C1318.57 241.893 1320.81 243.034 1323.02 242.353Z" fill="#231F20"/>
<path d="M1347.73 239.308C1352.15 237.946 1354.82 233.456 1353.69 229.28C1352.57 225.103 1348.08 222.821 1343.66 224.183C1339.25 225.545 1336.58 230.035 1337.7 234.212C1338.83 238.388 1343.32 240.67 1347.73 239.308Z" fill="white"/>
<path d="M1346.72 235.531C1348.92 234.85 1350.26 232.605 1349.7 230.517C1349.13 228.429 1346.89 227.288 1344.68 227.969C1342.48 228.65 1341.14 230.895 1341.7 232.983C1342.26 235.071 1344.51 236.212 1346.72 235.531Z" fill="#231F20"/>
<path d="M1336.14 240.844C1329 243.028 1324.57 249.809 1326.25 255.99L1344.83 272.856L1336.14 240.844L1336.14 240.844Z" fill="#C7EAFB"/>
<path d="M1351.46 248.499L1351.46 248.499C1349.78 242.318 1342.63 239.077 1335.49 241.26L1344.18 273.272L1351.46 248.498L1351.46 248.499Z" fill="#6E00FF"/>
<path d="M1313.19 241.13C1311.78 236.257 1314.6 231.17 1319.47 229.767C1324.34 228.364 1329.43 231.176 1330.83 236.048L1313.19 241.13L1313.19 241.13Z" fill="#FA03FF"/>
<path d="M1336.88 234.31C1335.48 229.438 1338.29 224.351 1343.16 222.947C1348.03 221.544 1353.12 224.357 1354.52 229.229L1336.88 234.311L1336.88 234.31Z" fill="#FA03FF"/>
<path d="M1082.05 244.121C1086.98 244.121 1090.97 240.127 1090.97 235.2C1090.97 230.273 1086.98 226.279 1082.05 226.279C1077.12 226.279 1073.13 230.273 1073.13 235.2C1073.13 240.127 1077.12 244.121 1082.05 244.121Z" fill="#0082FF"/>
<path d="M1082.05 123.888C1086.98 123.888 1090.97 119.95 1090.97 115.092C1090.97 110.235 1086.98 106.297 1082.05 106.297C1077.12 106.297 1073.13 110.235 1073.13 115.092C1073.13 119.95 1077.12 123.888 1082.05 123.888Z" fill="#00C800"/>
<path d="M775.735 114.711C797.051 124.328 822.127 114.845 831.745 93.5291C841.362 72.2133 831.878 47.1371 810.562 37.5199C789.247 27.9027 764.171 37.3863 754.553 58.7021C744.936 80.0179 754.42 105.094 775.735 114.711Z" fill="#2D2D2D"/>
<path d="M778.608 65.038C784.734 67.9048 791.734 65.5528 794.243 59.7845C796.752 54.0163 793.82 47.0162 787.694 44.1494C781.568 41.2825 774.568 43.6346 772.058 49.4028C769.549 55.1711 772.482 62.1712 778.608 65.038Z" fill="white"/>
<path d="M780.539 60.5416C783.886 62.0652 787.795 60.6263 789.27 57.3277C790.745 54.029 789.227 50.1198 785.881 48.5962C782.534 47.0726 778.625 48.5115 777.15 51.8101C775.675 55.1088 777.192 59.018 780.539 60.5416Z" fill="black"/>
<path d="M779.024 53.3585C781.568 54.549 784.475 53.5723 785.517 51.177C786.559 48.7817 785.341 45.8748 782.797 44.6844C780.254 43.4939 777.347 44.4706 776.305 46.8659C775.263 49.2612 776.481 52.168 779.024 53.3585Z" fill="white"/>
<path d="M811.42 79.8437C817.546 82.7105 824.546 80.3585 827.055 74.5902C829.564 68.822 826.632 61.8219 820.506 58.955C814.38 56.0882 807.38 58.4402 804.871 64.2085C802.362 69.9767 805.294 76.9768 811.42 79.8437Z" fill="white"/>
<path d="M813.351 75.3458C816.698 76.8694 820.607 75.4305 822.082 72.1319C823.557 68.8332 822.04 64.924 818.693 63.4004C815.346 61.8767 811.437 63.3157 809.962 66.6143C808.487 69.913 810.005 73.8222 813.351 75.3458Z" fill="black"/>
<path d="M811.837 68.1642C814.381 69.3547 817.288 68.378 818.33 65.9826C819.371 63.5873 818.154 60.6805 815.61 59.49C813.066 58.2995 810.159 59.2762 809.117 61.6716C808.075 64.0669 809.293 66.9737 811.837 68.1642Z" fill="white"/>
<path d="M763.247 85.7524C771.97 89.6878 782.231 85.8071 786.166 77.0846C790.102 68.3622 786.221 58.101 777.498 54.1657C768.776 50.2303 758.515 54.111 754.579 62.8334C750.644 71.5559 754.525 81.817 763.247 85.7524Z" fill="#2D2D2D"/>
<path d="M805.81 104.953C814.532 108.888 824.793 105.007 828.729 96.2848C832.664 87.5624 828.783 77.3012 820.061 73.3658C811.339 69.4305 801.077 73.3112 797.142 82.0336C793.207 90.756 797.087 101.017 805.81 104.953Z" fill="#2D2D2D"/>
<path d="M795.986 70.4996C786.104 65.9026 775.064 69.0974 771.328 77.6352L776.638 114.717L795.987 70.4999L795.986 70.4996Z" fill="#C7EAFB"/>
<path d="M806.209 93.626L806.209 93.6256C809.945 85.0879 804.963 74.4398 795.081 69.8428L775.732 114.06L806.21 93.6263L806.209 93.626Z" fill="#6E00FF"/>
<path d="M839.211 78.8457C839.241 78.1276 839.793 77.5399 840.507 77.4647L850.809 76.3811C852.721 76.1799 854.315 77.8259 854.053 79.7308V79.7308C853.822 81.4073 852.236 82.55 850.573 82.2382L840.392 80.3295C839.685 80.1969 839.182 79.5649 839.211 78.8457V78.8457Z" fill="#F8B552"/>
<path d="M760.103 41.7417C759.722 42.5252 758.824 42.9109 757.994 42.648L746.02 38.8577C743.798 38.154 742.824 35.5521 744.039 33.5623V33.5623C745.109 31.8112 747.425 31.3103 749.122 32.4632L759.511 39.5204C760.233 40.0108 760.485 40.9569 760.103 41.7417V41.7417Z" fill="#F8B552"/>
<path d="M850.498 61.9669C850.426 61.1067 850.972 60.3152 851.802 60.078L870.507 54.7334C873.096 53.9935 875.652 56.0015 875.545 58.6925V58.6925C875.465 60.7258 873.855 62.3664 871.824 62.4849L852.404 63.6182C851.426 63.6753 850.581 62.9428 850.498 61.9669V61.9669Z" fill="#F8B552"/>
<path d="M756.88 25.7531C756.281 26.0071 755.586 25.8116 755.207 25.2826L744.854 10.8175C743.586 9.04675 744.477 6.5551 746.58 5.98952V5.98952C748.053 5.5933 749.597 6.32069 750.229 7.70903L757.602 23.8979C757.926 24.6093 757.599 25.448 756.88 25.7531V25.7531Z" fill="#F8B552"/>
<path d="M845.582 90.7333C846.251 89.9491 847.404 89.7944 848.256 90.3743L855.794 95.4996C857.744 96.8259 858.014 99.5962 856.356 101.274V101.274C854.682 102.969 851.875 102.708 850.542 100.733L845.443 93.1778C844.935 92.4245 844.991 91.4245 845.582 90.7333V90.7333Z" fill="#F8B552"/>
<path d="M755.674 49.7677C755.803 50.5244 755.341 51.2565 754.603 51.4669L748.079 53.3267C746.391 53.808 744.68 52.6403 744.512 50.8928V50.8928C744.343 49.1277 745.832 47.6492 747.596 47.8301L754.344 48.5223C755.017 48.5914 755.561 49.1008 755.674 49.7677V49.7677Z" fill="#F8B552"/>
<path d="M737.238 11.8822C737.775 11.3057 738.735 11.7576 738.67 12.5561L738.406 15.7875C738.376 16.1467 738.574 16.4895 738.898 16.6409L741.914 18.0524C742.662 18.4025 742.531 19.5225 741.727 19.6561L738.707 20.1573C738.336 20.2188 738.057 20.5286 738.028 20.9114L737.79 23.992C737.728 24.8027 736.688 25.0458 736.263 24.3492L734.47 21.4119C734.29 21.1176 733.956 20.9605 733.624 21.0147L730.277 21.5609C729.493 21.6889 728.983 20.7206 729.527 20.1364L731.604 17.9052C731.861 17.6289 731.9 17.207 731.699 16.878L730.064 14.1983C729.628 13.4842 730.351 12.6414 731.099 12.9916L734.118 14.4043C734.44 14.5551 734.817 14.4831 735.058 14.2247L737.238 11.8822Z" fill="#F8B552"/>
<path d="M775.461 6.44181C775.998 5.86524 776.958 6.31716 776.892 7.1157L776.628 10.347C776.599 10.7063 776.797 11.049 777.12 11.2005L780.137 12.612C780.885 12.9621 780.754 14.0821 779.949 14.2156L776.93 14.7169C776.559 14.7784 776.28 15.0882 776.251 15.471L776.013 18.5515C775.951 19.3623 774.911 19.6054 774.486 18.9088L772.693 15.9715C772.513 15.6771 772.178 15.5201 771.846 15.5742L768.5 16.1205C767.715 16.2485 767.205 15.2802 767.749 14.6959L769.826 12.4648C770.084 12.1885 770.123 11.7665 769.922 11.4376L768.286 8.75789C767.85 8.04372 768.573 7.20097 769.322 7.55113L772.341 8.96385C772.663 9.11468 773.04 9.04267 773.28 8.78431L775.461 6.44181Z" fill="#F8B552"/>
<path d="M1100.91 762.886C1101.45 762.309 1102.41 762.761 1102.34 763.56L1101.68 771.604C1101.65 771.963 1101.85 772.306 1102.17 772.458L1109.84 776.043C1110.58 776.393 1110.45 777.513 1109.65 777.646L1101.77 778.954C1101.4 779.016 1101.12 779.326 1101.09 779.708L1100.48 787.612C1100.42 788.423 1099.38 788.666 1098.95 787.969L1094.53 780.719C1094.35 780.425 1094.01 780.268 1093.68 780.322L1085.45 781.665C1084.67 781.793 1084.16 780.825 1084.7 780.24L1090.02 774.528C1090.28 774.252 1090.32 773.83 1090.12 773.501L1085.85 766.509C1085.41 765.795 1086.14 764.952 1086.88 765.302L1094.55 768.889C1094.87 769.039 1095.25 768.967 1095.49 768.709L1100.91 762.886Z" fill="#F8B552"/>
<path d="M731.379 51.0365C731.916 50.46 732.876 50.9119 732.81 51.7104L732.546 54.9418C732.517 55.301 732.715 55.6438 733.038 55.7952L736.054 57.2067C736.803 57.5568 736.672 58.6768 735.867 58.8104L732.848 59.3116C732.477 59.3731 732.198 59.6829 732.169 60.0657L731.931 63.1463C731.869 63.957 730.829 64.2001 730.404 63.5035L728.611 60.5662C728.431 60.2719 728.096 60.1148 727.764 60.169L724.418 60.7152C723.633 60.8432 723.123 59.8749 723.667 59.2907L725.744 57.0595C726.002 56.7832 726.041 56.3613 725.84 56.0323L724.204 53.3526C723.768 52.6384 724.491 51.7957 725.24 52.1459L728.259 53.5586C728.581 53.7094 728.958 53.6374 729.198 53.379L731.379 51.0365Z" fill="#F8B552"/>
<path d="M839.598 97.0316C840.134 96.4551 841.094 96.907 841.029 97.7055L840.765 100.937C840.736 101.296 840.933 101.639 841.257 101.79L844.273 103.202C845.022 103.552 844.891 104.672 844.086 104.805L841.067 105.307C840.696 105.368 840.417 105.678 840.387 106.061L840.15 109.141C840.087 109.952 839.048 110.195 838.622 109.499L836.829 106.561C836.65 106.267 836.315 106.11 835.983 106.164L832.636 106.71C831.852 106.838 831.342 105.87 831.886 105.286L833.963 103.055C834.22 102.778 834.26 102.356 834.059 102.027L832.423 99.3477C831.987 98.6336 832.71 97.7908 833.458 98.141L836.477 99.5537C836.8 99.7045 837.177 99.6325 837.417 99.3742L839.598 97.0316Z" fill="#F8B552"/>
<path d="M1231.32 438.561C1231.86 437.985 1232.82 438.437 1232.75 439.235L1232.49 442.467C1232.46 442.826 1232.66 443.169 1232.98 443.32L1236 444.732C1236.75 445.082 1236.62 446.202 1235.81 446.335L1232.79 446.836C1232.42 446.898 1232.14 447.208 1232.11 447.591L1231.87 450.671C1231.81 451.482 1230.77 451.725 1230.35 451.028L1228.55 448.091C1228.37 447.797 1228.04 447.64 1227.71 447.694L1224.36 448.24C1223.58 448.368 1223.07 447.4 1223.61 446.816L1225.69 444.584C1225.94 444.308 1225.98 443.886 1225.78 443.557L1224.15 440.878C1223.71 440.163 1224.43 439.321 1225.18 439.671L1228.2 441.083C1228.52 441.234 1228.9 441.162 1229.14 440.904L1231.32 438.561Z" fill="#F8B552"/>
<path d="M844.848 45.5512C845.384 44.9746 846.344 45.4265 846.279 46.2251L846.015 49.4564C845.986 49.8157 846.183 50.1584 846.507 50.3098L849.523 51.7213C850.272 52.0715 850.141 53.1914 849.336 53.325L846.317 53.8262C845.946 53.8878 845.667 54.1976 845.637 54.5804L845.4 57.6609C845.337 58.4716 844.298 58.7148 843.872 58.0181L842.079 55.0809C841.9 54.7865 841.565 54.6294 841.233 54.6836L837.886 55.2298C837.102 55.3578 836.592 54.3896 837.136 53.8053L839.213 51.5742C839.47 51.2979 839.51 50.8759 839.309 50.5469L837.673 47.8673C837.237 47.1531 837.96 46.3103 838.708 46.6605L841.727 48.0732C842.05 48.2241 842.427 48.152 842.667 47.8937L844.848 45.5512Z" fill="#F8B552"/>
</svg>
