<svg width="174" height="183" viewBox="0 0 174 183" fill="none" xmlns="http://www.w3.org/2000/svg">
<g clip-path="url(#clip0_2_9231)">
<rect width="174" height="183" rx="4" fill="#F4F734"/>
<path d="M67.818 92.1716C70.8134 105.495 62.4417 118.723 49.1188 121.719C35.7958 124.714 22.5669 116.343 19.5715 103.02L67.818 92.1716Z" fill="#231F20"/>
<path d="M19.5701 103.019C21.3676 111.013 29.3047 116.036 37.2984 114.238L34.0438 99.7647L19.5701 103.019Z" fill="#231F20"/>
<path d="M80.7144 104.472L77.4609 89.998L34.039 99.7585L37.2925 114.232L80.7144 104.472Z" fill="#231F20"/>
<path d="M47.4202 110.748C49.5902 118.649 57.7537 123.294 65.6542 121.125L61.7257 106.819L47.4202 110.748Z" fill="#231F20"/>
<path d="M57.4553 108.92C59.6253 116.821 67.7889 121.467 75.6894 119.297L71.7608 104.992L57.4553 108.92Z" fill="#6E00FF"/>
<path d="M36.7561 117.058C38.9261 124.959 47.0897 129.605 54.9902 127.435L51.0616 113.13L36.7561 117.058Z" fill="#6E00FF"/>
<path d="M66.1663 106.136C68.3363 114.037 76.4998 118.682 84.4003 116.513L80.4718 102.207L66.1663 106.136Z" fill="#231F20"/>
<path d="M76.2131 104.221C78.3831 112.122 86.5467 116.768 94.4472 114.598L90.5186 100.293L76.2131 104.221Z" fill="#6E00FF"/>
<path d="M56.2787 84.1949C59.4905 98.4807 50.5138 112.666 36.228 115.878C21.9421 119.09 7.75704 110.113 4.54516 95.827L56.2787 84.1949Z" fill="#231F20"/>
<path d="M4.54573 95.8274C6.47314 104.399 14.9839 109.785 23.5553 107.857L20.0655 92.3376L4.54573 95.8274Z" fill="#231F20"/>
<path d="M70.1058 97.3836L66.6172 81.8638L20.057 92.3297L23.5455 107.85L70.1058 97.3836Z" fill="#231F20"/>
<path d="M45.17 102.154C47.4968 110.626 56.2504 115.607 64.7219 113.281L60.5094 97.9415L45.17 102.154Z" fill="#C7EAFB"/>
<path d="M54.5098 99.1686C56.8367 107.641 65.5902 112.622 74.0618 110.296L69.8492 94.9561L54.5098 99.1686Z" fill="#231F20"/>
<path d="M65.2754 97.1144C67.6023 105.586 76.3559 110.568 84.8274 108.241L80.6149 92.9019L65.2754 97.1144Z" fill="#C7EAFB"/>
<path d="M56.8203 72.7576C56.818 73.119 56.5511 73.424 56.1933 73.4743L47.1844 74.7411C46.716 74.807 46.3101 74.4161 46.3582 73.9456L46.6711 70.8853C46.7135 70.4713 47.0935 70.1768 47.505 70.2391L56.2041 71.5578C56.562 71.612 56.8257 71.9208 56.8234 72.2827L56.8203 72.7576Z" fill="#FF9900"/>
<path d="M49.6853 66.5602C49.5769 66.9049 49.2322 67.1182 48.8754 67.0612L39.8916 65.6269C39.4246 65.5523 39.1513 65.0594 39.3355 64.6238L40.5332 61.7903C40.6952 61.407 41.145 61.237 41.5201 61.4175L49.4485 65.2323C49.7747 65.3892 49.9361 65.7618 49.8276 66.1071L49.6853 66.5602Z" fill="#FF9900"/>
<path d="M62.1351 66.7576C61.9233 66.9973 61.5736 67.0581 61.2934 66.9038L52.613 62.1247C52.1675 61.8794 52.104 61.2646 52.49 60.9335L53.89 59.7326C54.1604 59.5006 54.5589 59.4983 54.8321 59.727L62.0616 65.7814C62.3564 66.0282 62.3895 66.4695 62.1351 66.7576V66.7576Z" fill="#FF9900"/>
<path d="M61.3326 73.6747C61.5959 73.9367 61.6199 74.355 61.3882 74.6454L58.8124 77.8742C58.5285 78.2301 57.9914 78.2413 57.6929 77.8977L56.6561 76.7041C56.3545 76.357 56.446 75.8207 56.8457 75.5932L60.4447 73.5444C60.7293 73.3824 61.0869 73.4302 61.319 73.6612L61.3326 73.6747Z" fill="#FF9900"/>
<path d="M41.3456 138.474L38.0664 140.512L39.9411 143.528L43.2203 141.491L41.3456 138.474Z" fill="#0A6FCB"/>
<path d="M34.4004 104.114C36.7273 112.586 45.4809 117.567 53.9524 115.241L49.7399 99.9015L34.4004 104.114Z" fill="#231F20"/>
<path d="M22.1153 109.342C24.4421 117.814 33.1957 122.795 41.6672 120.469L37.4547 105.129L22.1153 109.342Z" fill="#C7EAFB"/>
<path d="M110.967 93.3532C107.972 106.676 116.343 119.905 129.666 122.9C142.989 125.896 156.218 117.524 159.214 104.201L110.967 93.3532Z" fill="#231F20"/>
<path d="M159.215 104.201C157.418 112.195 149.48 117.218 141.487 115.42L144.741 100.946L159.215 104.201Z" fill="#231F20"/>
<path d="M98.0708 105.653L101.324 91.1797L144.746 100.94L141.493 115.414L98.0708 105.653Z" fill="#231F20"/>
<path d="M131.365 111.93C129.195 119.831 121.031 124.476 113.131 122.307L117.059 108.001L131.365 111.93Z" fill="#231F20"/>
<path d="M121.33 110.102C119.16 118.003 110.996 122.649 103.096 120.479L107.024 106.173L121.33 110.102Z" fill="#6E00FF"/>
<path d="M143.592 115.603C141.422 123.503 133.258 128.149 125.357 125.979L129.286 111.674L143.592 115.603Z" fill="#6E00FF"/>
<path d="M112.619 107.317C110.449 115.218 102.285 119.864 94.3848 117.694L98.3134 103.389L112.619 107.317Z" fill="#231F20"/>
<path d="M102.572 105.403C100.402 113.304 92.2385 117.949 84.338 115.78L88.2665 101.474L102.572 105.403Z" fill="#6E00FF"/>
<path d="M122.506 85.3765C119.295 99.6624 128.271 113.847 142.557 117.059C156.843 120.271 171.028 111.294 174.24 97.0086L122.506 85.3765Z" fill="#231F20"/>
<path d="M174.239 97.009C172.312 105.58 163.801 110.966 155.23 109.039L158.72 93.5192L174.239 97.009Z" fill="#231F20"/>
<path d="M108.679 98.5653L112.168 83.0454L158.728 93.5113L155.24 109.031L108.679 98.5653Z" fill="#231F20"/>
<path d="M144.385 105.296C142.058 113.768 133.304 118.749 124.833 116.423L129.045 101.083L144.385 105.296Z" fill="#231F20"/>
<path d="M133.529 103.342C131.202 111.814 122.449 116.796 113.977 114.469L118.19 99.13L133.529 103.342Z" fill="#C7EAFB"/>
<path d="M156.549 108.697C154.222 117.169 145.468 122.15 136.997 119.824L141.209 104.484L156.549 108.697Z" fill="#C7EAFB"/>
<path d="M124.275 100.35C121.948 108.822 113.195 113.804 104.723 111.477L108.936 96.1378L124.275 100.35Z" fill="#231F20"/>
<path d="M113.51 98.2961C111.183 106.768 102.429 111.749 93.9578 109.423L98.1703 94.0836L113.51 98.2961Z" fill="#C7EAFB"/>
<path d="M122.08 72.6134C122.082 72.9668 122.343 73.2651 122.693 73.3143L128.657 74.1529C129.125 74.2187 129.531 73.8278 129.483 73.3574L129.311 71.6727C129.269 71.2587 128.889 70.9642 128.477 71.0265L122.686 71.9044C122.336 71.9575 122.078 72.2594 122.08 72.6134V72.6134Z" fill="#FF9900"/>
<path d="M124.65 67.9392C124.862 68.179 125.212 68.2397 125.492 68.0855L134.172 63.3063C134.618 63.061 134.681 62.4463 134.295 62.1152L132.895 60.9142C132.625 60.6823 132.226 60.6799 131.953 60.9086L124.724 66.963C124.429 67.2098 124.396 67.6511 124.65 67.9392V67.9392Z" fill="#FF9900"/>
<path d="M117.453 74.8563C117.189 75.1184 117.165 75.5366 117.397 75.827L119.973 79.0559C120.257 79.4117 120.794 79.423 121.092 79.0793L122.129 77.8858C122.431 77.5386 122.339 77.0024 121.939 76.7749L118.34 74.7261C118.056 74.5641 117.698 74.6118 117.466 74.8428L117.453 74.8563Z" fill="#FF9900"/>
<path d="M137.44 139.656L140.719 141.693L138.844 144.71L135.565 142.672L137.44 139.656Z" fill="#0A6FCB"/>
<path d="M87.9656 165.8H83.8083L79.0297 134.739C78.958 134.273 78.5218 133.953 78.0557 134.025C77.5895 134.096 77.2698 134.533 77.3415 134.999L82.0802 165.8H73.2958C72.824 165.8 72.4414 166.183 72.4414 166.655C72.4414 167.126 72.824 167.509 73.2958 167.509H83.0723C83.0723 167.509 83.0742 167.509 83.0748 167.509C83.0761 167.509 83.0767 167.509 83.0779 167.509H87.9662C88.4379 167.509 88.8206 167.126 88.8206 166.655C88.8206 166.183 88.4379 165.8 87.9662 165.8L87.9656 165.8Z" fill="#2D2D2D"/>
<path d="M82.8911 166.092C81.2426 162.195 76.7475 160.373 72.8509 162.021" stroke="#2D2D2D" stroke-width="2.07467" stroke-linecap="round"/>
<path d="M87.503 161.595C85.2987 161.5 83.4351 163.211 83.3406 165.415" stroke="#2D2D2D" stroke-width="1.67569" stroke-linecap="round"/>
<path d="M108.878 165.845L100.094 165.789L105.027 135.018C105.101 134.553 104.784 134.114 104.319 134.04C103.853 133.965 103.415 134.282 103.34 134.748L98.3662 165.778L94.209 165.752C93.7372 165.749 93.3522 166.129 93.3492 166.601C93.3463 167.072 93.7265 167.457 94.1982 167.46L99.0864 167.491C99.0864 167.491 99.0882 167.491 99.0895 167.491C99.0901 167.491 99.0914 167.491 99.092 167.491L108.868 167.553C109.34 167.556 109.725 167.175 109.728 166.704C109.731 166.232 109.351 165.847 108.879 165.844L108.878 165.845Z" fill="#2D2D2D"/>
<path d="M104.759 100.902C99.6877 93.7276 101.392 83.8011 108.566 78.73L117.748 91.7196L104.759 100.902Z" fill="#231F20"/>
<path d="M75.9467 100.889C81.0178 93.7149 79.3132 83.7885 72.1391 78.7173L62.957 91.7069L75.9467 100.889Z" fill="#231F20"/>
<path d="M114.293 83.0845H66.5391V106.961H114.293V83.0845Z" fill="#2D2D2D"/>
<path d="M114.293 106.962H66.5391V130.839H114.293V106.962Z" fill="#2D2D2D"/>
<path d="M90.408 106.961C103.595 106.961 114.285 96.2715 114.285 83.0847C114.285 69.898 103.595 59.208 90.408 59.208C77.2212 59.208 66.5312 69.898 66.5312 83.0847C66.5312 96.2715 77.2212 106.961 90.408 106.961Z" fill="#2D2D2D"/>
<path d="M90.4158 154.715C103.603 154.715 114.292 144.025 114.292 130.839C114.292 117.652 103.603 106.962 90.4158 106.962C77.229 106.962 66.5391 117.652 66.5391 130.839C66.5391 144.025 77.229 154.715 90.4158 154.715Z" fill="#2D2D2D"/>
<path d="M80.2548 81.0013C83.9358 81.0013 86.9198 78.0173 86.9198 74.3363C86.9198 70.6554 83.9358 67.6714 80.2548 67.6714C76.5738 67.6714 73.5898 70.6554 73.5898 74.3363C73.5898 78.0173 76.5738 81.0013 80.2548 81.0013Z" fill="white"/>
<path d="M80.2586 79.2378C82.0992 79.2378 83.5914 77.7457 83.5914 75.9051C83.5914 74.0644 82.0992 72.5723 80.2586 72.5723C78.4179 72.5723 76.9258 74.0644 76.9258 75.9051C76.9258 77.7457 78.4179 79.2378 80.2586 79.2378Z" fill="#231F20"/>
<path d="M77.9803 75.466C79.43 75.466 80.6052 74.2908 80.6052 72.8412C80.6052 71.3915 79.43 70.2163 77.9803 70.2163C76.5307 70.2163 75.3555 71.3915 75.3555 72.8412C75.3555 74.2908 76.5307 75.466 77.9803 75.466Z" fill="white"/>
<path d="M77.2429 96.334C82.6389 96.334 87.0132 91.9597 87.0132 86.5638C87.0132 81.1678 82.6389 76.7935 77.2429 76.7935C71.847 76.7935 67.4727 81.1678 67.4727 86.5638C67.4727 91.9597 71.847 96.334 77.2429 96.334Z" fill="#2D2D2D"/>
<path d="M100.552 81.0013C104.233 81.0013 107.217 78.0173 107.217 74.3363C107.217 70.6554 104.233 67.6714 100.552 67.6714C96.8707 67.6714 93.8867 70.6554 93.8867 74.3363C93.8867 78.0173 96.8707 81.0013 100.552 81.0013Z" fill="white"/>
<path d="M100.555 79.2378C102.396 79.2378 103.888 77.7457 103.888 75.9051C103.888 74.0644 102.396 72.5723 100.555 72.5723C98.7148 72.5723 97.2227 74.0644 97.2227 75.9051C97.2227 77.7457 98.7148 79.2378 100.555 79.2378Z" fill="#231F20"/>
<path d="M98.2772 75.4655C99.7269 75.4655 100.902 74.2903 100.902 72.8407C100.902 71.391 99.7269 70.2158 98.2772 70.2158C96.8275 70.2158 95.6523 71.391 95.6523 72.8407C95.6523 74.2903 96.8275 75.4655 98.2772 75.4655Z" fill="white"/>
<path d="M103.583 96.334C108.979 96.334 113.353 91.9597 113.353 86.5638C113.353 81.1678 108.979 76.7935 103.583 76.7935C98.1868 76.7935 93.8125 81.1678 93.8125 86.5638C93.8125 91.9597 98.1868 96.334 103.583 96.334Z" fill="#2D2D2D"/>
<path d="M116.271 66.8792C116.139 66.5514 116.268 66.1764 116.573 65.9982L121.773 62.9606C122.182 62.722 122.706 62.9298 122.84 63.3834L123.319 65.0075C123.437 65.4067 123.197 65.8233 122.792 65.9216L117.1 67.3055C116.757 67.3892 116.403 67.2076 116.271 66.8792V66.8792Z" fill="#FF9900"/>
<path d="M117.054 59.6939C116.818 59.4379 116.796 59.0507 117.002 58.7697L126.752 45.4543C127.045 45.0541 127.644 45.0574 127.932 45.4608L130.574 49.1537C130.792 49.4585 130.743 49.8791 130.461 50.1259L118.691 60.4228C118.394 60.6829 117.944 60.6587 117.676 60.3683L117.054 59.6939Z" fill="#FF9900"/>
<path d="M133.703 78.8257C133.779 78.462 134.117 78.2138 134.486 78.2496L138.598 78.6476C139.051 78.6915 139.353 79.1355 139.228 79.5732L138.793 81.0932C138.666 81.5353 138.167 81.751 137.758 81.5402L134.078 79.6409C133.787 79.4908 133.632 79.1649 133.699 78.8444L133.703 78.8257Z" fill="#FF9900"/>
<path d="M90.5681 76.3555C85.3443 76.3555 81.1094 80.2647 81.1094 85.0865L90.5687 101.329V76.3555H90.5681Z" fill="#C7EAFB"/>
<path d="M100.025 85.0865C100.025 80.2647 95.7902 76.3555 90.5664 76.3555V101.329L100.026 85.0865H100.025Z" fill="#6E00FF"/>
<path d="M103.777 86.2499C97.8197 86.2499 92.7315 82.1608 91.6795 76.5276C91.5677 75.9311 91.0335 75.4981 90.4083 75.4981C89.7832 75.4981 89.2482 75.9311 89.1372 76.5276C88.0844 82.1608 82.997 86.2499 77.0393 86.2499C73.7587 86.2499 70.6725 85.019 68.3493 82.7838C66.0262 80.5485 64.7461 77.5792 64.7461 74.4228C64.7461 67.9013 70.2605 62.5957 77.0385 62.5957H103.777C110.555 62.5957 116.07 67.9013 116.07 74.4228C116.07 77.5792 114.791 80.5485 112.467 82.7838C110.144 85.019 107.058 86.2499 103.777 86.2499Z" fill="#D4D4D4" fill-opacity="0.3"/>
<path d="M103.777 86.2499C97.8197 86.2499 92.7315 82.1608 91.6795 76.5276C91.5677 75.9311 91.0335 75.4981 90.4083 75.4981C89.7832 75.4981 89.2482 75.9311 89.1372 76.5276C88.0844 82.1608 82.997 86.2499 77.0393 86.2499C73.7587 86.2499 70.6725 85.019 68.3493 82.7838C66.0262 80.5485 64.7461 77.5792 64.7461 74.4228C64.7461 67.9013 70.2605 62.5957 77.0385 62.5957H103.777C110.555 62.5957 116.07 67.9013 116.07 74.4228C116.07 77.5792 114.791 80.5485 112.467 82.7838C110.144 85.019 107.058 86.2499 103.777 86.2499ZM90.4076 73.3475C92.1161 73.3475 93.5757 74.5253 93.8789 76.1476C94.7395 80.755 98.9023 84.0992 103.777 84.0992C106.46 84.0992 108.985 83.092 110.886 81.2633C112.788 79.4345 113.834 77.005 113.834 74.4228C113.834 69.0871 109.322 64.7463 103.777 64.7463H77.0385C71.4928 64.7463 66.9814 69.0871 66.9814 74.4228C66.9814 77.005 68.0282 79.4338 69.9289 81.2633C71.8296 83.0927 74.3547 84.0992 77.0385 84.0992C81.9129 84.0992 86.0757 80.755 86.9362 76.1476C87.2395 74.5253 88.6991 73.3475 90.4076 73.3475Z" fill="#FFCC01"/>
<path d="M187.003 167.274H-1.89453V184.266H187.003V167.274Z" fill="#C5C900"/>
<path d="M22.0869 111.44H8.41797V112.959H22.0869V111.44Z" fill="#AFA2FB"/>
<path d="M31.7698 118.275H8.98828V120.933H31.7698V118.275Z" fill="#0A6FCB"/>
<path d="M31.7698 118.275H8.98828V115.64H20.6443L21.4345 110.014L28.4352 107.074L31.7698 118.275Z" fill="#AFA2FB"/>
<path d="M17.5107 82.3993L13.8008 81.3306L12.8176 84.7435L16.5275 85.8122L17.5107 82.3993Z" fill="#0A6FCB"/>
<path d="M18.7462 84.9344L11.4141 82.8223L7.60124 96.0581L14.9334 98.1702L18.7462 84.9344Z" fill="#AFA2FB"/>
<path d="M16.6754 95.3035C18.4054 95.3035 19.8079 93.901 19.8079 92.171C19.8079 90.441 18.4054 89.0386 16.6754 89.0386C14.9454 89.0386 13.543 90.441 13.543 92.171C13.543 93.901 14.9454 95.3035 16.6754 95.3035Z" fill="#0A6FCB"/>
<path d="M21.2268 111.251V109.041C25.8179 109.041 29.5532 105.477 29.5532 101.094C29.5532 96.7119 25.8179 93.147 21.2268 93.147H14.1133V90.9375H21.2268C24.0346 90.9375 26.6767 91.9888 28.666 93.8974C30.6668 95.8175 31.769 98.373 31.769 101.094C31.769 103.816 30.6668 106.371 28.666 108.291C26.6767 110.2 24.0346 111.251 21.2268 111.251Z" fill="#0A6FCB"/>
<path d="M169.728 120.933H166.121V167.255H169.728V120.933Z" fill="#C5C900"/>
<path d="M7.59926 120.933H3.99219V167.255H7.59926V120.933Z" fill="#C5C900"/>
<path d="M163.453 104.116V97.8942L164.272 96.063H156.969L157.583 97.8942V104.116C154.9 105.269 153.02 107.955 153.02 111.084C153.02 115.265 156.377 118.655 160.518 118.655C164.66 118.655 168.017 115.265 168.017 111.084C168.017 107.955 166.137 105.269 163.454 104.116H163.453Z" fill="#E2F4FD"/>
<path d="M160.426 86.3808L167.07 77.458H153.781L160.426 86.3808Z" fill="#E2F4FD"/>
<path d="M163.845 81.6348H156.82L159.398 85.1274V88.8489L161.267 87.1078V85.1274L163.845 81.6348Z" fill="#8CEB4D"/>
<path d="M174.852 120.933H-1.89453V127.957H174.852V120.933Z" fill="#C5C900"/>
<path d="M168.017 111.061C168.017 115.255 164.66 118.655 160.518 118.655C156.377 118.655 153.02 115.255 153.02 111.061H168.017H168.017Z" fill="#8CEB4D"/>
<path d="M171.056 118.465H147.895V120.743H171.056V118.465Z" fill="#5FBCFF"/>
<path d="M147.895 79.5468V120.174H149.034V79.5468H147.895Z" fill="#5FBCFF"/>
<path d="M170.677 84.4824H143.719V85.6215H170.677V84.4824Z" fill="#5FBCFF"/>
<path d="M148.463 87.3304C149.617 87.3304 150.552 86.3955 150.552 85.2421C150.552 84.0888 149.617 83.1538 148.463 83.1538C147.31 83.1538 146.375 84.0888 146.375 85.2421C146.375 86.3955 147.31 87.3304 148.463 87.3304Z" fill="#0A6FCB"/>
<path d="M161.588 91.0325L160.524 89.2463V89.2285L160.519 89.2374L160.514 89.2298V89.2445L159.451 91.0307C159.23 91.4025 159.23 91.861 159.451 92.2328C159.671 92.6019 160.075 92.8303 160.514 92.8338V92.8356C160.957 92.8356 161.366 92.6064 161.587 92.2346C161.808 91.8627 161.808 91.4043 161.587 91.0325H161.588Z" fill="#8CEB4D"/>
<path d="M155.775 112.39C156.562 112.39 157.199 111.71 157.199 110.871C157.199 110.032 156.562 109.352 155.775 109.352C154.989 109.352 154.352 110.032 154.352 110.871C154.352 111.71 154.989 112.39 155.775 112.39Z" fill="#9CD9F8"/>
<path d="M158.054 109.162C158.525 109.162 158.908 108.737 158.908 108.213C158.908 107.689 158.525 107.264 158.054 107.264C157.582 107.264 157.199 107.689 157.199 108.213C157.199 108.737 157.582 109.162 158.054 109.162Z" fill="#9CD9F8"/>
<path d="M100.192 123.517L96.2929 116.831V112.516L96.7352 110.966H91.8758L92.3181 112.516V116.831L88.419 123.517C87.8833 124.436 88.553 125.584 89.6239 125.584H98.9871C100.058 125.584 100.728 124.436 100.192 123.517Z" fill="#E2F4FD"/>
<circle cx="94.3055" cy="121.819" r="7.82107" fill="url(#paint0_radial_2_9231)"/>
<path d="M94.3097 115.285L89.4107 123.203C88.9649 123.924 89.5223 124.824 90.4135 124.824H98.206C99.0976 124.824 99.6545 123.924 99.2087 123.203L94.3097 115.285Z" fill="#5FBCFF"/>
<path d="M94.3097 115.285L89.4107 123.203C88.9649 123.924 89.5223 124.824 90.4135 124.824H98.206C99.0976 124.824 99.6545 123.924 99.2087 123.203L94.3097 115.285Z" fill="#BA85FF"/>
<rect x="93.1172" y="112.669" width="2.38766" height="4.51287" fill="#BA85FF"/>
<path d="M99.5714 166.697C101.189 162.788 105.669 160.929 109.579 162.547" stroke="#2D2D2D" stroke-width="2.07467" stroke-linecap="round"/>
<path d="M94.9243 162.238C97.1277 162.126 99.0049 163.821 99.117 166.025" stroke="#2D2D2D" stroke-width="1.67569" stroke-linecap="round"/>
<g opacity="0.4">
<path d="M90.9319 109.767C92.3268 109.767 93.4576 108.636 93.4576 107.242C93.4576 105.847 92.3268 104.716 90.9319 104.716C89.537 104.716 88.4062 105.847 88.4062 107.242C88.4062 108.636 89.537 109.767 90.9319 109.767Z" fill="#AD79F4"/>
<path d="M91.5205 106.329C92.5717 106.329 93.4238 105.476 93.4238 104.425C93.4238 103.374 92.5717 102.522 91.5205 102.522C90.4693 102.522 89.6172 103.374 89.6172 104.425C89.6172 105.476 90.4693 106.329 91.5205 106.329Z" fill="#AD79F4"/>
<path d="M93.8721 105.051C94.9233 105.051 95.7754 104.199 95.7754 103.148C95.7754 102.097 94.9233 101.245 93.8721 101.245C92.8209 101.245 91.9688 102.097 91.9688 103.148C91.9688 104.199 92.8209 105.051 93.8721 105.051Z" fill="#AD79F4"/>
<path d="M97.0518 106.955C98.1029 106.955 98.9551 106.102 98.9551 105.051C98.9551 104 98.1029 103.148 97.0518 103.148C96.0006 103.148 95.1484 104 95.1484 105.051C95.1484 106.102 96.0006 106.955 97.0518 106.955Z" fill="#AD79F4"/>
<path d="M93.4554 109.767C94.8503 109.767 95.9811 108.636 95.9811 107.242C95.9811 105.847 94.8503 104.716 93.4554 104.716C92.0605 104.716 90.9297 105.847 90.9297 107.242C90.9297 108.636 92.0605 109.767 93.4554 109.767Z" fill="#AD79F4"/>
<path d="M93.9434 111.266C94.515 110.947 94.72 110.225 94.4013 109.654C94.0825 109.082 93.3607 108.877 92.789 109.196C92.2173 109.515 92.0123 110.236 92.3311 110.808C92.6498 111.38 93.3717 111.585 93.9434 111.266Z" fill="#AD79F4"/>
<path d="M95.1507 106.875C96.5456 106.875 97.6764 105.744 97.6764 104.349C97.6764 102.954 96.5456 101.823 95.1507 101.823C93.7558 101.823 92.625 102.954 92.625 104.349C92.625 105.744 93.7558 106.875 95.1507 106.875Z" fill="#AD79F4"/>
<path d="M96.4319 105.051C97.8268 105.051 98.9576 103.921 98.9576 102.526C98.9576 101.131 97.8268 100 96.4319 100C95.037 100 93.9062 101.131 93.9062 102.526C93.9062 103.921 95.037 105.051 96.4319 105.051Z" fill="#AD79F4"/>
<path d="M96.6077 109.767C98.0026 109.767 99.1334 108.636 99.1334 107.242C99.1334 105.847 98.0026 104.716 96.6077 104.716C95.2128 104.716 94.082 105.847 94.082 107.242C94.082 108.636 95.2128 109.767 96.6077 109.767Z" fill="#AD79F4"/>
<path d="M95.6113 110.852C96.183 110.534 96.388 109.812 96.0692 109.24C95.7505 108.668 95.0286 108.463 94.457 108.782C93.8853 109.101 93.6803 109.823 93.999 110.394C94.3178 110.966 95.0396 111.171 95.6113 110.852Z" fill="#AD79F4"/>
<path d="M95.2715 112.007C95.8431 111.688 96.0482 110.966 95.7294 110.394C95.4106 109.823 94.6888 109.618 94.1171 109.936C93.5455 110.255 93.3404 110.977 93.6592 111.549C93.978 112.12 94.6998 112.325 95.2715 112.007Z" fill="#AD79F4"/>
<path d="M94.7441 112.67C95.3158 112.351 95.5208 111.629 95.2021 111.058C94.8833 110.486 94.1615 110.281 93.5898 110.6C93.0181 110.918 92.8131 111.64 93.1319 112.212C93.4506 112.784 94.1725 112.989 94.7441 112.67Z" fill="#AD79F4"/>
<path d="M98.303 106.875C99.6979 106.875 100.829 105.744 100.829 104.349C100.829 102.954 99.6979 101.823 98.303 101.823C96.9081 101.823 95.7773 102.954 95.7773 104.349C95.7773 105.744 96.9081 106.875 98.303 106.875Z" fill="#AD79F4"/>
</g>
</g>
<defs>
<radialGradient id="paint0_radial_2_9231" cx="0" cy="0" r="1" gradientUnits="userSpaceOnUse" gradientTransform="translate(94.3054 121.819) rotate(90) scale(7.82107)">
<stop stop-color="#C5AFF5"/>
<stop offset="1" stop-color="#C5AFF5" stop-opacity="0"/>
</radialGradient>
<clipPath id="clip0_2_9231">
<rect width="174" height="183" rx="4" fill="white"/>
</clipPath>
</defs>
</svg>
