<svg width="127" height="152" viewBox="0 0 127 152" fill="none" xmlns="http://www.w3.org/2000/svg">
<path d="M14.9109 46.7993L7.32617 49.7295L36.6284 125.576L44.2131 122.646L14.9109 46.7993Z" fill="#D6D6D6"/>
<path d="M30.0798 40.9379L22.4951 43.8682L51.7973 119.715L59.382 116.785L30.0798 40.9379Z" fill="#D6D6D6"/>
<path d="M30.0802 40.9388L7.32617 49.7295L36.6284 125.576L59.3824 116.786L30.0802 40.9388Z" fill="#E8E8E8"/>
<path d="M68.6273 5.34321C74.9068 2.91724 82.0239 6.17323 84.5099 12.6083L95.3887 40.7672L72.6346 49.5579L61.7559 21.3989C59.2698 14.9639 62.3492 7.76867 68.6273 5.34321Z" fill="#D6D6D6"/>
<path d="M74.9854 10.5146L95.7101 64.1593C96.603 66.4704 95.4173 69.0861 93.0619 69.9961C90.7079 70.9055 88.0707 69.7682 87.1774 67.4558L66.4526 13.8111L74.984 10.5152L74.9854 10.5146Z" fill="#D6D6D6"/>
<path d="M86.965 18.9613L64.2109 27.752L102.67 127.301L125.424 118.51L86.965 18.9613Z" fill="#E8E8E8"/>
<path d="M68.6273 5.34321C74.9068 2.91724 82.0239 6.17323 84.5099 12.6083L95.3887 40.7672L72.6346 49.5579L61.7559 21.3989C59.2698 14.9639 62.3492 7.76867 68.6273 5.34321Z" fill="#D6D6D6"/>
<path d="M74.9854 10.5146L95.7101 64.1593C96.603 66.4704 95.4173 69.0861 93.0619 69.9961C90.7079 70.9055 88.0707 69.7682 87.1774 67.4558L66.4526 13.8111L74.984 10.5152L74.9854 10.5146Z" fill="#D6D6D6"/>
<path d="M86.965 18.9613L64.2109 27.752L102.67 127.301L125.424 118.51L86.965 18.9613Z" fill="#E8E8E8"/>
<path d="M16.6685 24.328L6.08419 28.417C2.72355 29.7154 1.09567 33.6036 2.44764 37.1031L6.95928 48.7812L29.7133 39.9905L25.2017 28.3125C23.8497 24.813 20.0305 23.0291 16.6699 24.3274L16.6685 24.328Z" fill="#E8E8E8"/>
<path d="M58.1076 146.696L51.1719 140.659L58.7566 137.729L58.1076 146.696Z" fill="#D6D6D6"/>
<path d="M58.2833 113.941L35.5293 122.731L51.6691 140.467L58.2598 137.921L58.2833 113.941Z" fill="#E8E8E8"/>
<path d="M30.0798 40.9379L22.4951 43.8682L51.7973 119.715L59.382 116.785L30.0798 40.9379Z" fill="#D6D6D6"/>
<path d="M30.0802 40.9388L7.32617 49.7295L36.6284 125.576L59.3824 116.786L30.0802 40.9388Z" fill="#E8E8E8"/>
<path d="M14.9109 46.7993L7.32617 49.7295L36.6284 125.576L44.2131 122.646L14.9109 46.7993Z" fill="#D6D6D6"/>
</svg>
