<svg width="191" height="140" viewBox="0 0 191 140" fill="none" xmlns="http://www.w3.org/2000/svg">
<path d="M71.1071 47.5295C74.1024 60.8524 65.7308 74.0813 52.4078 77.0767C39.0849 80.0721 25.856 71.7005 22.8606 58.3775L71.1071 47.5295Z" fill="#231F20"/>
<path d="M22.8592 58.3772C24.6567 66.3709 32.5938 71.3938 40.5875 69.5963L37.3329 55.1226L22.8592 58.3772Z" fill="#231F20"/>
<path d="M84.0034 59.8297L80.75 45.356L37.3281 55.1164L40.5815 69.5902L84.0034 59.8297Z" fill="#231F20"/>
<path d="M50.7092 66.1059C52.8792 74.0069 61.0428 78.6524 68.9433 76.4829L65.0147 62.1774L50.7092 66.1059Z" fill="#231F20"/>
<path d="M60.7444 64.2783C62.9144 72.1792 71.0779 76.8248 78.9784 74.6552L75.0499 60.3497L60.7444 64.2783Z" fill="#6E00FF"/>
<path d="M40.0452 72.416C42.2152 80.3169 50.3787 84.9625 58.2792 82.7929L54.3507 68.4874L40.0452 72.416Z" fill="#6E00FF"/>
<path d="M69.4553 61.4936C71.6253 69.3946 79.7889 74.0401 87.6894 71.8706L83.7608 57.5651L69.4553 61.4936Z" fill="#231F20"/>
<path d="M79.5022 59.5791C81.6722 67.48 89.8357 72.1255 97.7363 69.956L93.8077 55.6505L79.5022 59.5791Z" fill="#6E00FF"/>
<path d="M59.5677 39.5528C62.7796 53.8386 53.8029 68.0237 39.517 71.2356C25.2311 74.4474 11.0461 65.4707 7.83422 51.1849L59.5677 39.5528Z" fill="#231F20"/>
<path d="M7.83479 51.1853C9.7622 59.7567 18.2729 65.1426 26.8444 63.2152L23.3545 47.6955L7.83479 51.1853Z" fill="#231F20"/>
<path d="M73.3948 52.7415L69.9062 37.2217L23.346 47.6876L26.8346 63.2074L73.3948 52.7415Z" fill="#231F20"/>
<path d="M48.459 57.5119C50.7859 65.9839 59.5395 70.9652 68.011 68.6388L63.7985 53.2994L48.459 57.5119Z" fill="#C7EAFB"/>
<path d="M57.7989 54.5266C60.1257 62.9985 68.8793 67.9798 77.3508 65.6535L73.1383 50.314L57.7989 54.5266Z" fill="#231F20"/>
<path d="M68.5645 52.4724C70.8913 60.9443 79.6449 65.9256 88.1164 63.5993L83.9039 48.2599L68.5645 52.4724Z" fill="#C7EAFB"/>
<path d="M60.1094 28.1155C60.1071 28.4769 59.8402 28.7819 59.4823 28.8322L50.4734 30.099C50.0051 30.1649 49.5991 29.774 49.6473 29.3035L49.9602 26.2432C50.0025 25.8292 50.3826 25.5347 50.7941 25.5971L59.4931 26.9157C59.851 26.9699 60.1148 27.2787 60.1125 27.6407L60.1094 28.1155Z" fill="#FF9900"/>
<path d="M52.9743 21.9181C52.866 22.2628 52.5213 22.4761 52.1645 22.4191L43.1807 20.9848C42.7137 20.9102 42.4404 20.4174 42.6245 19.9817L43.8222 17.1482C43.9843 16.7649 44.4341 16.5949 44.8091 16.7754L52.7375 20.5902C53.0637 20.7471 53.2252 21.1197 53.1167 21.465L52.9743 21.9181Z" fill="#FF9900"/>
<path d="M65.4241 22.1155C65.2124 22.3552 64.8626 22.416 64.5824 22.2617L55.9021 17.4826C55.4565 17.2373 55.3931 16.6226 55.7791 16.2914L57.1791 15.0905C57.4495 14.8585 57.848 14.8562 58.1211 15.0849L65.3507 21.1393C65.6454 21.3861 65.6786 21.8274 65.4241 22.1155V22.1155Z" fill="#FF9900"/>
<path d="M64.6217 29.0326C64.885 29.2947 64.9089 29.7129 64.6773 30.0033L62.1015 33.2321C61.8176 33.588 61.2805 33.5992 60.982 33.2556L59.9452 32.062C59.6436 31.7149 59.7351 31.1786 60.1347 30.9511L63.7338 28.9023C64.0183 28.7404 64.376 28.7881 64.6081 29.0191L64.6217 29.0326Z" fill="#FF9900"/>
<path d="M44.6346 93.8318L41.3555 95.8696L43.2302 98.8863L46.5093 96.8485L44.6346 93.8318Z" fill="#0A6FCB"/>
<path d="M37.6895 59.4719C40.0164 67.9438 48.7699 72.9251 57.2414 70.5988L53.0289 55.2594L37.6895 59.4719Z" fill="#231F20"/>
<path d="M25.4044 64.6999C27.7312 73.1719 36.4848 78.1532 44.9563 75.8268L40.7438 60.4874L25.4044 64.6999Z" fill="#C7EAFB"/>
<path d="M114.256 48.7111C111.261 62.0341 119.632 75.263 132.955 78.2584C146.278 81.2538 159.507 72.8821 162.503 59.5592L114.256 48.7111Z" fill="#231F20"/>
<path d="M162.504 59.5589C160.707 67.5525 152.769 72.5754 144.776 70.7779L148.03 56.3043L162.504 59.5589Z" fill="#231F20"/>
<path d="M101.36 61.0114L104.613 46.5376L148.035 56.2981L144.782 70.7718L101.36 61.0114Z" fill="#231F20"/>
<path d="M134.654 67.2876C132.484 75.1885 124.32 79.834 116.42 77.6645L120.349 63.359L134.654 67.2876Z" fill="#231F20"/>
<path d="M124.619 65.4599C122.449 73.3609 114.285 78.0064 106.385 75.8369L110.313 61.5314L124.619 65.4599Z" fill="#6E00FF"/>
<path d="M146.881 70.9604C144.711 78.8614 136.547 83.5069 128.647 81.3374L132.575 67.0319L146.881 70.9604Z" fill="#6E00FF"/>
<path d="M115.908 62.6753C113.738 70.5762 105.574 75.2218 97.6739 73.0522L101.602 58.7467L115.908 62.6753Z" fill="#231F20"/>
<path d="M105.861 60.7607C103.691 68.6616 95.5275 73.3072 87.627 71.1376L91.5556 56.8322L105.861 60.7607Z" fill="#6E00FF"/>
<path d="M125.796 40.7344C122.584 55.0203 131.56 69.2053 145.846 72.4172C160.132 75.6291 174.317 66.6524 177.529 52.3665L125.796 40.7344Z" fill="#231F20"/>
<path d="M177.528 52.3669C175.601 60.9383 167.09 66.3243 158.519 64.3969L162.009 48.8771L177.528 52.3669Z" fill="#231F20"/>
<path d="M111.968 53.9232L115.457 38.4033L162.017 48.8692L158.529 64.3891L111.968 53.9232Z" fill="#231F20"/>
<path d="M147.674 60.6535C145.347 69.1255 136.593 74.1068 128.122 71.7804L132.334 56.441L147.674 60.6535Z" fill="#231F20"/>
<path d="M136.818 58.7004C134.491 67.1723 125.738 72.1537 117.266 69.8273L121.479 54.4879L136.818 58.7004Z" fill="#C7EAFB"/>
<path d="M159.838 64.0549C157.511 72.5268 148.757 77.5081 140.286 75.1818L144.498 59.8424L159.838 64.0549Z" fill="#C7EAFB"/>
<path d="M127.564 55.7082C125.238 64.1802 116.484 69.1615 108.012 66.8351L112.225 51.4957L127.564 55.7082Z" fill="#231F20"/>
<path d="M116.799 53.654C114.472 62.126 105.718 67.1073 97.2468 64.7809L101.459 49.4415L116.799 53.654Z" fill="#C7EAFB"/>
<path d="M125.369 27.9713C125.371 28.3247 125.632 28.623 125.982 28.6722L131.946 29.5108C132.414 29.5766 132.82 29.1857 132.772 28.7153L132.6 27.0306C132.558 26.6166 132.178 26.3221 131.766 26.3845L125.975 27.2624C125.625 27.3154 125.367 27.6173 125.369 27.9713V27.9713Z" fill="#FF9900"/>
<path d="M127.939 23.2971C128.151 23.5369 128.501 23.5976 128.781 23.4434L137.461 18.6642C137.907 18.4189 137.97 17.8042 137.584 17.4731L136.184 16.2721C135.914 16.0402 135.515 16.0378 135.242 16.2665L128.013 22.3209C127.718 22.5677 127.685 23.009 127.939 23.2971V23.2971Z" fill="#FF9900"/>
<path d="M120.742 30.2142C120.478 30.4763 120.454 30.8945 120.686 31.1849L123.262 34.4138C123.546 34.7696 124.083 34.7809 124.381 34.4372L125.418 33.2437C125.72 32.8965 125.628 32.3603 125.229 32.1328L121.63 30.084C121.345 29.922 120.987 29.9698 120.755 30.2007L120.742 30.2142Z" fill="#FF9900"/>
<path d="M140.729 95.0135L144.008 97.0513L142.133 100.068L138.854 98.0302L140.729 95.0135Z" fill="#0A6FCB"/>
<path d="M91.2546 121.158H87.0974L82.3188 90.0968C82.2471 89.6306 81.8109 89.3109 81.3447 89.3826C80.8786 89.4543 80.5589 89.8905 80.6306 90.3566L85.3693 121.158H76.5849C76.1131 121.158 75.7305 121.541 75.7305 122.013C75.7305 122.484 76.1131 122.867 76.5849 122.867H86.3614C86.3614 122.867 86.3633 122.867 86.3639 122.867C86.3651 122.867 86.3657 122.867 86.367 122.867H91.2553C91.727 122.867 92.1096 122.484 92.1096 122.013C92.1096 121.541 91.727 121.158 91.2553 121.158L91.2546 121.158Z" fill="#2D2D2D"/>
<path d="M86.1802 121.449C84.5317 117.552 80.0366 115.73 76.14 117.379" stroke="#2D2D2D" stroke-width="2.07467" stroke-linecap="round"/>
<path d="M90.7921 116.953C88.5878 116.859 86.7242 118.569 86.6297 120.773" stroke="#2D2D2D" stroke-width="1.67569" stroke-linecap="round"/>
<path d="M112.168 121.203L103.383 121.147L108.316 90.3761C108.39 89.9105 108.073 89.4722 107.608 89.3976C107.142 89.323 106.704 89.64 106.629 90.1057L101.655 121.136L97.498 121.11C97.0263 121.107 96.6413 121.487 96.6383 121.959C96.6353 122.43 97.0155 122.815 97.4873 122.818L102.375 122.849C102.375 122.849 102.377 122.849 102.379 122.849C102.379 122.849 102.38 122.849 102.381 122.849L112.157 122.911C112.629 122.914 113.014 122.533 113.017 122.062C113.02 121.59 112.64 121.205 112.168 121.202L112.168 121.203Z" fill="#2D2D2D"/>
<path d="M108.048 56.2596C102.977 49.0855 104.681 39.1591 111.855 34.0879L121.038 47.0775L108.048 56.2596Z" fill="#231F20"/>
<path d="M79.2357 56.2469C84.3069 49.0729 82.6023 39.1464 75.4282 34.0752L66.2461 47.0648L79.2357 56.2469Z" fill="#231F20"/>
<path d="M117.582 38.4424H69.8281V62.3191H117.582V38.4424Z" fill="#2D2D2D"/>
<path d="M117.582 62.3198H69.8281V86.1965H117.582V62.3198Z" fill="#2D2D2D"/>
<path d="M93.697 62.3193C106.884 62.3193 117.574 51.6294 117.574 38.4426C117.574 25.2559 106.884 14.5659 93.697 14.5659C80.5103 14.5659 69.8203 25.2559 69.8203 38.4426C69.8203 51.6294 80.5103 62.3193 93.697 62.3193Z" fill="#2D2D2D"/>
<path d="M93.7048 110.073C106.892 110.073 117.582 99.3833 117.582 86.1965C117.582 73.0098 106.892 62.3198 93.7048 62.3198C80.5181 62.3198 69.8281 73.0098 69.8281 86.1965C69.8281 99.3833 80.5181 110.073 93.7048 110.073Z" fill="#2D2D2D"/>
<path d="M83.5439 36.3592C87.2248 36.3592 90.2088 33.3752 90.2088 29.6943C90.2088 26.0133 87.2248 23.0293 83.5439 23.0293C79.8629 23.0293 76.8789 26.0133 76.8789 29.6943C76.8789 33.3752 79.8629 36.3592 83.5439 36.3592Z" fill="white"/>
<path d="M83.5476 34.5962C85.3883 34.5962 86.8804 33.1041 86.8804 31.2635C86.8804 29.4228 85.3883 27.9307 83.5476 27.9307C81.707 27.9307 80.2148 29.4228 80.2148 31.2635C80.2148 33.1041 81.707 34.5962 83.5476 34.5962Z" fill="#231F20"/>
<path d="M81.2694 30.8239C82.7191 30.8239 83.8942 29.6487 83.8942 28.1991C83.8942 26.7494 82.7191 25.5742 81.2694 25.5742C79.8197 25.5742 78.6445 26.7494 78.6445 28.1991C78.6445 29.6487 79.8197 30.8239 81.2694 30.8239Z" fill="white"/>
<path d="M80.532 51.6919C85.928 51.6919 90.3023 47.3176 90.3023 41.9217C90.3023 36.5257 85.928 32.1514 80.532 32.1514C75.136 32.1514 70.7617 36.5257 70.7617 41.9217C70.7617 47.3176 75.136 51.6919 80.532 51.6919Z" fill="#2D2D2D"/>
<path d="M103.841 36.3592C107.522 36.3592 110.506 33.3752 110.506 29.6943C110.506 26.0133 107.522 23.0293 103.841 23.0293C100.16 23.0293 97.1758 26.0133 97.1758 29.6943C97.1758 33.3752 100.16 36.3592 103.841 36.3592Z" fill="white"/>
<path d="M103.845 34.5958C105.685 34.5958 107.177 33.1036 107.177 31.263C107.177 29.4223 105.685 27.9302 103.845 27.9302C102.004 27.9302 100.512 29.4223 100.512 31.263C100.512 33.1036 102.004 34.5958 103.845 34.5958Z" fill="#231F20"/>
<path d="M101.566 30.8239C103.016 30.8239 104.191 29.6487 104.191 28.1991C104.191 26.7494 103.016 25.5742 101.566 25.5742C100.117 25.5742 98.9414 26.7494 98.9414 28.1991C98.9414 29.6487 100.117 30.8239 101.566 30.8239Z" fill="white"/>
<path d="M106.872 51.6919C112.268 51.6919 116.642 47.3176 116.642 41.9217C116.642 36.5257 112.268 32.1514 106.872 32.1514C101.476 32.1514 97.1016 36.5257 97.1016 41.9217C97.1016 47.3176 101.476 51.6919 106.872 51.6919Z" fill="#2D2D2D"/>
<path d="M119.56 22.2371C119.428 21.9093 119.557 21.5343 119.862 21.3561L125.062 18.3185C125.471 18.0799 125.995 18.2877 126.129 18.7413L126.608 20.3654C126.726 20.7646 126.486 21.1812 126.081 21.2796L120.39 22.6635C120.046 22.7471 119.692 22.5655 119.56 22.2371V22.2371Z" fill="#FF9900"/>
<path d="M120.343 15.0518C120.107 14.7958 120.086 14.4086 120.291 14.1276L130.041 0.812205C130.334 0.411982 130.933 0.415286 131.221 0.818719L133.863 4.5116C134.081 4.81643 134.032 5.237 133.75 5.48378L121.98 15.7807C121.683 16.0408 121.233 16.0166 120.965 15.7262L120.343 15.0518Z" fill="#FF9900"/>
<path d="M136.992 34.1831C137.068 33.8195 137.406 33.5713 137.775 33.6071L141.887 34.0051C142.34 34.0489 142.642 34.4929 142.517 34.9306L142.082 36.4506C141.955 36.8927 141.456 37.1085 141.047 36.8976L137.367 34.9983C137.076 34.8482 136.921 34.5223 136.988 34.2018L136.992 34.1831Z" fill="#FF9900"/>
<path d="M93.8572 31.7134C88.6333 31.7134 84.3984 35.6226 84.3984 40.4445L93.8578 56.6867V31.7134H93.8572Z" fill="#C7EAFB"/>
<path d="M103.314 40.4445C103.314 35.6226 99.0793 31.7134 93.8555 31.7134V56.6867L103.315 40.4445H103.314Z" fill="#6E00FF"/>
<path d="M107.066 41.6078C101.109 41.6078 96.0206 37.5187 94.9685 31.8855C94.8568 31.289 94.3225 30.856 93.6974 30.856C93.0723 30.856 92.5373 31.289 92.4263 31.8855C91.3735 37.5187 86.286 41.6078 80.3283 41.6078C77.0477 41.6078 73.9616 40.3769 71.6384 38.1417C69.3152 35.9064 68.0352 32.9371 68.0352 29.7807C68.0352 23.2592 73.5495 17.9536 80.3276 17.9536H107.066C113.845 17.9536 119.359 23.2592 119.359 29.7807C119.359 32.9371 118.08 35.9064 115.756 38.1417C113.433 40.3769 110.347 41.6078 107.066 41.6078Z" fill="#D4D4D4" fill-opacity="0.3"/>
<path d="M107.066 41.6078C101.109 41.6078 96.0206 37.5187 94.9685 31.8855C94.8568 31.289 94.3225 30.856 93.6974 30.856C93.0723 30.856 92.5373 31.289 92.4263 31.8855C91.3735 37.5187 86.286 41.6078 80.3283 41.6078C77.0477 41.6078 73.9616 40.3769 71.6384 38.1417C69.3152 35.9064 68.0352 32.9371 68.0352 29.7807C68.0352 23.2592 73.5495 17.9536 80.3276 17.9536H107.066C113.845 17.9536 119.359 23.2592 119.359 29.7807C119.359 32.9371 118.08 35.9064 115.756 38.1417C113.433 40.3769 110.347 41.6078 107.066 41.6078ZM93.6967 28.7054C95.4051 28.7054 96.8648 29.8832 97.168 31.5055C98.0286 36.1129 102.191 39.4572 107.066 39.4572C109.75 39.4572 112.274 38.4499 114.175 36.6212C116.077 34.7924 117.123 32.3629 117.123 29.7807C117.123 24.445 112.611 20.1043 107.066 20.1043H80.3276C74.7819 20.1043 70.2704 24.445 70.2704 29.7807C70.2704 32.3629 71.3173 34.7917 73.218 36.6212C75.1187 38.4507 77.6438 39.4572 80.3276 39.4572C85.2019 39.4572 89.3647 36.1129 90.2253 31.5055C90.5285 29.8832 91.9882 28.7054 93.6967 28.7054Z" fill="#FFCC01"/>
<path d="M190.292 122.632H1.39453V139.624H190.292V122.632Z" fill="#C5C900"/>
<path d="M25.3759 66.7983H11.707V68.3171H25.3759V66.7983Z" fill="#AFA2FB"/>
<path d="M35.0589 73.6328H12.2773V76.2907H35.0589V73.6328Z" fill="#0A6FCB"/>
<path d="M35.0589 73.6326H12.2773V70.9971H23.9333L24.7235 65.3713L31.7242 62.4316L35.0589 73.6326Z" fill="#AFA2FB"/>
<path d="M20.7997 37.7572L17.0898 36.6885L16.1067 40.1014L19.8166 41.1701L20.7997 37.7572Z" fill="#0A6FCB"/>
<path d="M22.0352 40.2923L14.7031 38.1802L10.8903 51.416L18.2224 53.5282L22.0352 40.2923Z" fill="#AFA2FB"/>
<path d="M19.9645 50.6614C21.6945 50.6614 23.0969 49.259 23.0969 47.5289C23.0969 45.7989 21.6945 44.3965 19.9645 44.3965C18.2345 44.3965 16.832 45.7989 16.832 47.5289C16.832 49.259 18.2345 50.6614 19.9645 50.6614Z" fill="#0A6FCB"/>
<path d="M24.5158 66.6089V64.3994C29.1069 64.3994 32.8423 60.8346 32.8423 56.4522C32.8423 52.0698 29.1069 48.5049 24.5158 48.5049H17.4023V46.2954H24.5158C27.3237 46.2954 29.9657 47.3467 31.9551 49.2553C33.9559 51.1754 35.058 53.7309 35.058 56.4522C35.058 59.1734 33.9559 61.729 31.9551 63.649C29.9657 65.5576 27.3237 66.6089 24.5158 66.6089Z" fill="#0A6FCB"/>
<path d="M173.017 76.2905H169.41V122.613H173.017V76.2905Z" fill="#C5C900"/>
<path d="M10.8883 76.2905H7.28125V122.613H10.8883V76.2905Z" fill="#C5C900"/>
<path d="M166.742 59.4735V53.2522L167.561 51.4209H160.258L160.872 53.2522V59.4735C158.189 60.6264 156.309 63.3127 156.309 66.4421C156.309 70.6231 159.666 74.0126 163.808 74.0126C167.949 74.0126 171.306 70.6231 171.306 66.4421C171.306 63.3127 169.426 60.6269 166.743 59.4735H166.742Z" fill="#E2F4FD"/>
<path d="M163.715 41.7387L170.36 32.8159H157.07L163.715 41.7387Z" fill="#E2F4FD"/>
<path d="M167.134 36.9927H160.109L162.687 40.4854V44.2068L164.556 42.4657V40.4854L167.134 36.9927Z" fill="#8CEB4D"/>
<path d="M178.141 76.2905H1.39453V83.3148H178.141V76.2905Z" fill="#C5C900"/>
<path d="M171.306 66.4189C171.306 70.6129 167.949 74.0128 163.808 74.0128C159.666 74.0128 156.309 70.6129 156.309 66.4189H171.306H171.306Z" fill="#8CEB4D"/>
<path d="M174.345 73.8228H151.184V76.1009H174.345V73.8228Z" fill="#5FBCFF"/>
<path d="M151.184 34.9047V75.5317H152.323V34.9047H151.184Z" fill="#5FBCFF"/>
<path d="M173.966 39.8398H147.008V40.9789H173.966V39.8398Z" fill="#5FBCFF"/>
<path d="M151.752 42.6878C152.906 42.6878 153.841 41.7529 153.841 40.5995C153.841 39.4462 152.906 38.5112 151.752 38.5112C150.599 38.5112 149.664 39.4462 149.664 40.5995C149.664 41.7529 150.599 42.6878 151.752 42.6878Z" fill="#0A6FCB"/>
<path d="M164.877 46.3904L163.813 44.6042V44.5864L163.808 44.5953L163.803 44.5878V44.6024L162.74 46.3886C162.519 46.7604 162.519 47.2189 162.74 47.5907C162.96 47.9598 163.364 48.1882 163.803 48.1917V48.1935C164.246 48.1935 164.655 47.9643 164.876 47.5925C165.098 47.2207 165.098 46.7622 164.876 46.3904H164.877Z" fill="#8CEB4D"/>
<path d="M159.064 67.7475C159.851 67.7475 160.488 67.0675 160.488 66.2287C160.488 65.3899 159.851 64.71 159.064 64.71C158.278 64.71 157.641 65.3899 157.641 66.2287C157.641 67.0675 158.278 67.7475 159.064 67.7475Z" fill="#9CD9F8"/>
<path d="M161.343 64.52C161.814 64.52 162.197 64.0951 162.197 63.5708C162.197 63.0466 161.814 62.6216 161.343 62.6216C160.871 62.6216 160.488 63.0466 160.488 63.5708C160.488 64.0951 160.871 64.52 161.343 64.52Z" fill="#9CD9F8"/>
<path d="M103.481 78.8753L99.582 72.1889V67.874L100.024 66.3237H95.1649L95.6072 67.874V72.1889L91.708 78.8753C91.1724 79.7936 91.8421 80.9419 92.913 80.9419H102.276C103.348 80.9419 104.017 79.7941 103.481 78.8753Z" fill="#E2F4FD"/>
<circle cx="97.5945" cy="77.1765" r="7.82107" fill="url(#paint0_radial_2_8844)"/>
<path d="M97.5988 70.6426L92.6998 78.5611C92.254 79.2815 92.8113 80.1822 93.7026 80.1822H101.495C102.387 80.1822 102.944 79.2818 102.498 78.5611L97.5988 70.6426Z" fill="#5FBCFF"/>
<path d="M97.5988 70.6426L92.6998 78.5611C92.254 79.2815 92.8113 80.1822 93.7026 80.1822H101.495C102.387 80.1822 102.944 79.2818 102.498 78.5611L97.5988 70.6426Z" fill="#BA85FF"/>
<rect x="96.4062" y="68.0273" width="2.38766" height="4.51287" fill="#BA85FF"/>
<path d="M102.861 122.055C104.478 118.146 108.958 116.287 112.868 117.905" stroke="#2D2D2D" stroke-width="2.07467" stroke-linecap="round"/>
<path d="M98.2133 117.596C100.417 117.483 102.294 119.179 102.406 121.382" stroke="#2D2D2D" stroke-width="1.67569" stroke-linecap="round"/>
<g opacity="0.4">
<path d="M94.221 65.1251C95.6159 65.1251 96.7467 63.9943 96.7467 62.5994C96.7467 61.2045 95.6159 60.0737 94.221 60.0737C92.8261 60.0737 91.6953 61.2045 91.6953 62.5994C91.6953 63.9943 92.8261 65.1251 94.221 65.1251Z" fill="#AD79F4"/>
<path d="M94.8096 61.6865C95.8608 61.6865 96.7129 60.8344 96.7129 59.7832C96.7129 58.732 95.8608 57.8799 94.8096 57.8799C93.7584 57.8799 92.9062 58.732 92.9062 59.7832C92.9062 60.8344 93.7584 61.6865 94.8096 61.6865Z" fill="#AD79F4"/>
<path d="M97.1611 60.4092C98.2123 60.4092 99.0645 59.557 99.0645 58.5059C99.0645 57.4547 98.2123 56.6025 97.1611 56.6025C96.11 56.6025 95.2578 57.4547 95.2578 58.5059C95.2578 59.557 96.11 60.4092 97.1611 60.4092Z" fill="#AD79F4"/>
<path d="M100.341 62.3125C101.392 62.3125 102.244 61.4604 102.244 60.4092C102.244 59.358 101.392 58.5059 100.341 58.5059C99.2896 58.5059 98.4375 59.358 98.4375 60.4092C98.4375 61.4604 99.2896 62.3125 100.341 62.3125Z" fill="#AD79F4"/>
<path d="M96.7444 65.1256C98.1393 65.1256 99.2701 63.9948 99.2701 62.5999C99.2701 61.205 98.1393 60.0742 96.7444 60.0742C95.3495 60.0742 94.2188 61.205 94.2188 62.5999C94.2188 63.9948 95.3495 65.1256 96.7444 65.1256Z" fill="#AD79F4"/>
<path d="M97.2324 66.6239C97.8041 66.3051 98.0091 65.5833 97.6903 65.0116C97.3716 64.4399 96.6497 64.2349 96.0781 64.5537C95.5064 64.8725 95.3014 65.5943 95.6201 66.166C95.9389 66.7376 96.6607 66.9426 97.2324 66.6239Z" fill="#AD79F4"/>
<path d="M98.4397 62.232C99.8346 62.232 100.965 61.1012 100.965 59.7063C100.965 58.3115 99.8346 57.1807 98.4397 57.1807C97.0448 57.1807 95.9141 58.3115 95.9141 59.7063C95.9141 61.1012 97.0448 62.232 98.4397 62.232Z" fill="#AD79F4"/>
<path d="M99.721 60.4093C101.116 60.4093 102.247 59.2785 102.247 57.8836C102.247 56.4887 101.116 55.3579 99.721 55.3579C98.3261 55.3579 97.1953 56.4887 97.1953 57.8836C97.1953 59.2785 98.3261 60.4093 99.721 60.4093Z" fill="#AD79F4"/>
<path d="M99.8968 65.1256C101.292 65.1256 102.422 63.9948 102.422 62.5999C102.422 61.205 101.292 60.0742 99.8968 60.0742C98.5019 60.0742 97.3711 61.205 97.3711 62.5999C97.3711 63.9948 98.5019 65.1256 99.8968 65.1256Z" fill="#AD79F4"/>
<path d="M98.9004 66.2103C99.4721 65.8915 99.6771 65.1697 99.3583 64.598C99.0395 64.0264 98.3177 63.8213 97.746 64.1401C97.1744 64.4589 96.9693 65.1807 97.2881 65.7524C97.6069 66.3241 98.3287 66.5291 98.9004 66.2103Z" fill="#AD79F4"/>
<path d="M98.5605 67.3646C99.1322 67.0458 99.3372 66.324 99.0185 65.7523C98.6997 65.1807 97.9779 64.9756 97.4062 65.2944C96.8345 65.6132 96.6295 66.335 96.9483 66.9067C97.267 67.4784 97.9889 67.6834 98.5605 67.3646Z" fill="#AD79F4"/>
<path d="M98.0332 68.0282C98.6049 67.7094 98.8099 66.9876 98.4911 66.4159C98.1724 65.8442 97.4505 65.6392 96.8788 65.958C96.3072 66.2767 96.1022 66.9986 96.4209 67.5703C96.7397 68.1419 97.4615 68.3469 98.0332 68.0282Z" fill="#AD79F4"/>
<path d="M101.592 62.232C102.987 62.232 104.118 61.1012 104.118 59.7063C104.118 58.3115 102.987 57.1807 101.592 57.1807C100.197 57.1807 99.0664 58.3115 99.0664 59.7063C99.0664 61.1012 100.197 62.232 101.592 62.232Z" fill="#AD79F4"/>
</g>
<defs>
<radialGradient id="paint0_radial_2_8844" cx="0" cy="0" r="1" gradientUnits="userSpaceOnUse" gradientTransform="translate(97.5945 77.1765) rotate(90) scale(7.82107)">
<stop stop-color="#C5AFF5"/>
<stop offset="1" stop-color="#C5AFF5" stop-opacity="0"/>
</radialGradient>
</defs>
</svg>
