<svg width="70" height="66" viewBox="0 0 70 66" fill="none" xmlns="http://www.w3.org/2000/svg">
<path d="M34.8199 53.9269C45.5604 49.9671 51.0572 38.0502 47.0973 27.3097C43.1375 16.5692 31.2205 11.0724 20.4801 15.0322C9.73959 18.9921 4.24279 30.909 8.20262 41.6495C12.1625 52.39 24.0794 57.8868 34.8199 53.9269Z" fill="#2D2D2D"/>
<path d="M28.24 31.322C22.5384 33.9964 18.9454 39.4401 20.2151 43.4804L34.8163 52.2469L28.2404 31.3219L28.24 31.322Z" fill="#C7EAFB"/>
<path d="M39.106 35.4797L39.1056 35.4799C37.8359 31.4396 32.1846 30.332 26.4829 33.0063L33.0588 53.9314L39.1064 35.4795L39.106 35.4797Z" fill="#6E00FF"/>
<path d="M15.1442 26.3725C18.104 25.2813 21.3868 26.7837 22.4716 29.726C22.6078 30.0955 22.4228 30.4934 22.0512 30.6304C21.6796 30.7674 21.2806 30.5848 21.1444 30.2154C20.3271 27.9988 17.8472 26.8748 15.6307 27.6919C13.4142 28.5091 12.2622 30.9871 13.0746 33.1906C13.2108 33.56 13.0258 33.9579 12.6542 34.0949C12.2826 34.232 11.8835 34.0493 11.7473 33.6799C10.6626 30.7376 12.1845 27.4637 15.1442 26.3725Z" fill="white"/>
<path d="M31.6638 20.2788C34.6235 19.1876 37.9064 20.69 38.9912 23.6323C39.1274 24.0017 38.9424 24.3996 38.5708 24.5367C38.1991 24.6737 37.8001 24.4911 37.6639 24.1216C36.8467 21.905 34.3667 20.781 32.1502 21.5982C29.9337 22.4154 28.7818 24.8934 29.5941 27.0968C29.7303 27.4662 29.5453 27.8642 29.1737 28.0012C28.8021 28.1382 28.4031 27.9556 28.2669 27.5861C27.1821 24.6439 28.704 21.37 31.6638 20.2788Z" fill="white"/>
<path d="M49.6373 20.6357C48.2392 21.1511 47.5091 22.7048 48.0319 24.1227C47.5157 22.7227 45.963 21.9903 44.547 22.5124C43.1311 23.0344 42.4188 24.5814 42.9416 25.9994C44.629 30.5762 50.8263 31.7574 50.8263 31.7574C50.8263 31.7574 54.7736 26.8361 53.0862 22.2592C52.5701 20.8592 51.0173 20.1269 49.6014 20.6489L49.6373 20.6357Z" fill="#D718C4"/>
<path d="M53.6809 9.01245C52.5713 9.42151 51.9921 10.6553 52.4073 11.7816C51.9974 10.6696 50.7647 10.0876 49.641 10.5019C48.5172 10.9162 47.9522 12.1447 48.3675 13.271C49.7078 16.9064 54.627 17.8459 54.627 17.8459C54.627 17.8459 57.7591 13.9381 56.4187 10.3026C56.0088 9.19063 54.7761 8.60864 53.6524 9.02295L53.6809 9.01245Z" fill="#B132A4"/>
<path d="M42.4222 3.76005C41.4902 4.10366 41.0039 5.14062 41.353 6.08741C41.0083 5.15261 39.9727 4.66315 39.0287 5.01117C38.0848 5.35919 37.6104 6.39175 37.9595 7.33853C39.0862 10.3946 43.2189 11.1853 43.2189 11.1853C43.2189 11.1853 45.8492 7.90118 44.7225 4.8451C44.3779 3.9103 43.3423 3.42085 42.3983 3.76887L42.4222 3.76005Z" fill="#D718C4"/>
</svg>
