<svg width="684" height="690" viewBox="0 0 684 690" fill="none" xmlns="http://www.w3.org/2000/svg">
<circle cx="360.856" cy="313.175" r="216.063" transform="rotate(33.1359 360.856 313.175)" fill="url(#paint0_radial_1_6673)"/>
<path d="M200.152 547.411L188.872 540.048L230.923 447.302C231.554 445.911 230.937 444.27 229.545 443.639C228.153 443.008 226.513 443.625 225.882 445.017L184.182 536.988L160.346 521.429C159.066 520.593 157.35 520.953 156.514 522.234C155.679 523.514 156.039 525.23 157.319 526.065L183.847 543.382C183.847 543.382 183.852 543.386 183.854 543.387C183.857 543.389 183.859 543.39 183.862 543.392L197.126 552.051C198.406 552.886 200.122 552.526 200.958 551.246C201.794 549.966 201.433 548.25 200.153 547.414L200.152 547.411Z" fill="#2D2D2D"/>
<path d="M300.643 563.117L273.078 570.221L263.038 469.739C262.886 468.218 261.53 467.108 260.009 467.26C258.489 467.412 257.378 468.768 257.531 470.289L267.655 571.617L254.611 574.979C253.13 575.361 252.239 576.871 252.621 578.351C253.002 579.831 254.512 580.722 255.992 580.341L271.331 576.388C271.331 576.388 271.337 576.386 271.341 576.385C271.343 576.385 271.347 576.384 271.349 576.383L302.026 568.477C303.506 568.095 304.397 566.585 304.016 565.105C303.634 563.625 302.124 562.733 300.644 563.115L300.643 563.117Z" fill="#2D2D2D"/>
<path d="M415.046 380.894C416.684 425.113 453.857 459.633 498.076 457.995C542.295 456.357 576.815 419.184 575.177 374.965L415.046 380.894Z" fill="#231F20"/>
<path d="M336.765 431.897C335.783 405.366 356.494 383.062 383.026 382.08L384.804 430.119L336.765 431.897Z" fill="#231F20"/>
<path d="M575.175 374.965C576.157 401.496 555.446 423.799 528.915 424.781L527.137 376.743L575.175 374.965Z" fill="#231F20"/>
<path d="M528.942 424.796L527.16 376.758L383.045 382.103L384.826 430.141L528.942 424.796Z" fill="#231F20"/>
<path d="M494.336 422.214C494.074 448.763 472.341 470.072 445.794 469.811L446.266 421.742L494.336 422.214Z" fill="#231F20"/>
<path d="M461.366 424.794C461.104 451.343 439.371 472.651 412.824 472.39L413.297 424.321L461.366 424.794Z" fill="#6E00FF"/>
<path d="M431.778 423.276C431.516 449.825 409.783 471.134 383.236 470.873L383.709 422.804L431.778 423.276Z" fill="#231F20"/>
<path d="M398.729 425.585C398.467 452.134 376.734 473.442 350.187 473.182L350.66 425.112L398.729 425.585Z" fill="#6E00FF"/>
<path d="M279.088 292.09C237.948 308.384 191.388 288.245 175.094 247.105C158.8 205.965 178.94 159.405 220.08 143.111L279.088 292.09Z" fill="#231F20"/>
<path d="M263.901 384.281C288.584 374.504 300.668 346.569 290.891 321.886L246.198 339.588L263.901 384.281Z" fill="#231F20"/>
<path d="M220.084 143.111C195.4 152.888 183.316 180.823 193.094 205.507L237.787 187.804L220.084 143.111Z" fill="#231F20"/>
<path d="M246.208 339.569L290.902 321.87L237.804 187.786L193.11 205.485L246.208 339.569Z" fill="#231F20"/>
<path d="M209.348 236.13C185.149 247.053 174.387 275.523 185.308 299.721L229.124 279.945L209.348 236.13Z" fill="#231F20"/>
<path d="M220.253 267.35C196.054 278.273 185.292 306.743 196.213 330.941L240.029 311.165L220.253 267.35Z" fill="#6E00FF"/>
<path d="M233.554 293.831C209.355 304.754 198.593 333.224 209.514 357.422L253.33 337.647L233.554 293.831Z" fill="#231F20"/>
<path d="M244.735 325.017C220.536 335.94 209.774 364.41 220.695 388.608L264.51 368.833L244.735 325.017Z" fill="#6E00FF"/>
<path d="M444.605 346.36C446.361 393.775 486.221 430.79 533.636 429.033C581.05 427.277 618.065 387.417 616.309 340.002L444.605 346.36Z" fill="#231F20"/>
<path d="M360.657 401.048C359.604 372.6 381.812 348.684 410.261 347.631L412.167 399.142L360.657 401.048Z" fill="#231F20"/>
<path d="M616.302 339.999C617.355 368.448 595.147 392.363 566.698 393.416L564.792 341.906L616.302 339.999Z" fill="#231F20"/>
<path d="M566.738 393.437L564.827 341.927L410.296 347.658L412.206 399.168L566.738 393.437Z" fill="#231F20"/>
<path d="M529.621 390.665C529.34 419.133 506.037 441.981 477.571 441.701L478.078 390.158L529.621 390.665Z" fill="#231F20"/>
<path d="M494.275 393.433C493.994 421.901 470.69 444.749 442.224 444.47L442.731 392.926L494.275 393.433Z" fill="#C7EAFB"/>
<path d="M462.543 391.805C462.262 420.273 438.959 443.121 410.493 442.842L411 391.298L462.543 391.805Z" fill="#231F20"/>
<path d="M427.103 394.279C426.822 422.747 403.518 445.595 375.052 445.316L375.559 393.772L427.103 394.279Z" fill="#C7EAFB"/>
<path d="M298.812 251.136C254.699 268.607 204.774 247.012 187.302 202.898C169.83 158.785 191.426 108.86 235.539 91.3882L298.812 251.136Z" fill="#231F20"/>
<path d="M282.527 349.989C308.994 339.506 321.951 309.551 311.468 283.084L263.544 302.066L282.527 349.989Z" fill="#231F20"/>
<path d="M235.541 91.3876C209.073 101.871 196.116 131.826 206.6 158.293L254.523 139.311L235.541 91.3876Z" fill="#231F20"/>
<path d="M263.556 302.046L311.48 283.068L254.544 139.293L206.62 158.272L263.556 302.046Z" fill="#231F20"/>
<path d="M224.036 191.132C198.088 202.844 186.549 233.372 198.259 259.319L245.241 238.114L224.036 191.132Z" fill="#231F20"/>
<path d="M235.73 224.608C209.782 236.32 198.242 266.848 209.953 292.795L256.935 271.59L235.73 224.608Z" fill="#C7EAFB"/>
<path d="M249.983 253.001C224.035 264.713 212.495 295.241 224.205 321.188L271.188 299.983L249.983 253.001Z" fill="#231F20"/>
<path d="M261.982 286.444C236.034 298.157 224.494 328.685 236.204 354.632L283.187 333.427L261.982 286.444Z" fill="#C7EAFB"/>
<path d="M418.103 369.598L288.526 285.012L246.234 349.799L375.811 434.385L418.103 369.598Z" fill="#2D2D2D"/>
<path d="M375.807 434.387L246.23 349.801L203.938 414.589L333.515 499.175L375.807 434.387Z" fill="#2D2D2D"/>
<path d="M310.994 392.077C346.775 415.434 394.716 405.363 418.074 369.581C441.431 333.8 431.36 285.859 395.579 262.501C359.797 239.144 311.856 249.215 288.499 284.997C265.141 320.778 275.213 368.719 310.994 392.077Z" fill="#2D2D2D"/>
<path d="M226.433 521.669C262.214 545.026 310.156 534.955 333.513 499.174C356.871 463.392 346.799 415.451 311.018 392.094C275.237 368.736 227.296 378.808 203.938 414.589C180.581 450.37 190.652 498.311 226.433 521.669Z" fill="#2D2D2D"/>
<path fill-rule="evenodd" clip-rule="evenodd" d="M445.462 408.327C454.483 414.216 466.571 411.677 472.46 402.655C478.35 393.633 475.81 381.546 466.789 375.656C464.324 374.048 461.631 373.068 458.897 372.677C460.206 373.143 461.481 373.77 462.696 374.563C470.983 379.972 473.315 391.075 467.906 399.362C462.505 407.635 451.43 409.973 443.148 404.598L442.627 405.397L441.026 404.351L441.03 404.357L444.208 406.431L443.775 407.094C444.309 407.53 444.871 407.942 445.462 408.327ZM435.523 378.543C433.005 382.402 431.708 386.705 431.539 390.997L400.961 371.036L400.125 372.318L385.322 362.655L383.595 365.302L398.397 374.964L398.397 374.965L383.594 365.302L381.866 367.948L396.667 377.61L394.402 381.08L440.93 411.453L440.977 411.38C441.521 411.804 442.088 412.209 442.677 412.594C454.055 420.021 469.3 416.818 476.727 405.44C484.155 394.062 480.952 378.817 469.574 371.39C458.196 363.962 442.951 367.165 435.523 378.543ZM429.408 396.767L432.474 398.769L432.475 398.772L429.407 396.769L429.408 396.767ZM445.892 400.305C451.822 404.176 459.768 402.507 463.639 396.577C467.511 390.646 465.841 382.7 459.911 378.829C458.724 378.054 457.457 377.502 456.157 377.16C456.192 377.182 456.226 377.205 456.261 377.227C461.859 380.882 463.435 388.383 459.781 393.982C456.126 399.581 448.624 401.157 443.026 397.502C442.882 397.408 442.741 397.312 442.603 397.213C443.483 398.399 444.584 399.451 445.892 400.305ZM455.514 391.197C453.397 394.439 449.053 395.352 445.811 393.235C442.568 391.119 441.656 386.775 443.772 383.532C445.889 380.29 450.233 379.377 453.476 381.494C456.718 383.61 457.631 387.955 455.514 391.197Z" fill="#FEF138"/>
<mask id="mask0_1_6673" style="mask-type:alpha" maskUnits="userSpaceOnUse" x="381" y="362" width="100" height="55">
<path fill-rule="evenodd" clip-rule="evenodd" d="M445.461 408.33C454.482 414.219 466.57 411.68 472.46 402.658C478.349 393.636 475.809 381.549 466.788 375.659C464.323 374.05 461.63 373.071 458.897 372.68C460.205 373.146 461.48 373.773 462.695 374.565C470.982 379.975 473.314 391.078 467.905 399.365C462.504 407.638 451.429 409.976 443.147 404.601L442.626 405.4L441.025 404.354L441.029 404.36L444.207 406.434L443.774 407.097C444.308 407.533 444.87 407.945 445.461 408.33ZM435.522 378.546C433.004 382.404 431.707 386.708 431.538 391L400.96 371.039L400.124 372.321L385.322 362.658L383.594 365.304L398.396 374.967L398.396 374.968L383.593 365.304L381.865 367.951L396.666 377.613L394.401 381.083L440.929 411.455L440.976 411.383C441.52 411.807 442.087 412.212 442.676 412.597C454.054 420.024 469.299 416.821 476.726 405.443C484.154 394.065 480.951 378.82 469.573 371.393C458.195 363.965 442.95 367.168 435.522 378.546ZM429.407 396.77L432.473 398.772L432.474 398.775L429.406 396.772L429.407 396.77ZM445.891 400.308C451.821 404.179 459.767 402.51 463.638 396.579C467.51 390.649 465.84 382.703 459.91 378.832C458.723 378.057 457.456 377.504 456.156 377.163C456.191 377.185 456.225 377.208 456.26 377.23C461.858 380.885 463.434 388.386 459.78 393.985C456.125 399.584 448.623 401.16 443.025 397.505C442.881 397.411 442.74 397.315 442.602 397.216C443.482 398.402 444.583 399.454 445.891 400.308ZM455.513 391.2C453.396 394.442 449.052 395.355 445.81 393.238C442.567 391.122 441.655 386.777 443.771 383.535C445.888 380.293 450.232 379.38 453.475 381.497C456.717 383.613 457.63 387.958 455.513 391.2Z" fill="#FEF138"/>
</mask>
<g mask="url(#mask0_1_6673)">
<circle cx="382.6" cy="370.461" r="4.42652" transform="rotate(33.1359 382.6 370.461)" fill="#FF7EF2"/>
<circle cx="394.967" cy="365.329" r="4.42652" transform="rotate(33.1359 394.967 365.329)" fill="#FF7EF2"/>
<circle cx="399.918" cy="383.778" r="4.42652" transform="rotate(33.1359 399.918 383.778)" fill="#FF7EF2"/>
<circle cx="415.546" cy="393.979" r="4.42652" transform="rotate(33.1359 415.546 393.979)" fill="#FF7EF2"/>
<circle cx="412.91" cy="377.545" r="4.42652" transform="rotate(33.1359 412.91 377.545)" fill="#FF7EF2"/>
<circle cx="429.883" cy="391.693" r="4.42652" transform="rotate(33.1359 429.883 391.693)" fill="#FF7EF2"/>
<circle cx="432.538" cy="400.429" r="4.42652" transform="rotate(33.1359 432.538 400.429)" fill="#FF7EF2"/>
<circle cx="444.251" cy="402.146" r="4.42652" transform="rotate(33.1359 444.251 402.146)" fill="#FF7EF2"/>
<circle cx="457.354" cy="370.879" r="4.42652" transform="rotate(33.1359 457.354 370.879)" fill="#FF7EF2"/>
<circle cx="440.152" cy="377.874" r="3.09125" transform="rotate(33.1359 440.152 377.874)" fill="#FF7EF2"/>
<circle cx="439.801" cy="390.262" r="3.09125" transform="rotate(33.1359 439.801 390.262)" fill="#FF7EF2"/>
<circle cx="458.144" cy="386.519" r="3.09125" transform="rotate(33.1359 458.144 386.519)" fill="#FF7EF2"/>
<circle cx="466.865" cy="383.365" r="3.09125" transform="rotate(33.1359 466.865 383.365)" fill="#FF7EF2"/>
<circle cx="476.717" cy="399.803" r="3.09125" transform="rotate(33.1359 476.717 399.803)" fill="#FF7EF2"/>
<circle cx="463.117" cy="411.413" r="3.09125" transform="rotate(33.1359 463.117 411.413)" fill="#FF7EF2"/>
</g>
<path d="M319.743 327.396C309.458 343.152 312.91 363.623 327.454 373.117L395.07 376.566L319.744 327.394L319.743 327.396Z" fill="#C7EAFB"/>
<path d="M359.88 314.806C344.223 307.287 324.926 314.942 316.78 331.904L397.869 370.846L359.88 314.804L359.88 314.806Z" fill="#6E00FF"/>
<rect x="398.203" y="369.066" width="3.54477" height="12.1383" transform="rotate(33.1359 398.203 369.066)" fill="#FF7EF2"/>
<path d="M452.276 328.762C452.456 327.859 453.27 327.223 454.19 327.269L474.714 328.29C475.917 328.35 476.746 329.523 476.4 330.677L474.487 337.057C474.183 338.073 473.09 338.627 472.09 338.274L453.327 331.64C452.457 331.333 451.945 330.433 452.124 329.529L452.276 328.762Z" fill="#FFE500"/>
<path d="M281.645 246.826C281.12 247.582 280.119 247.839 279.295 247.429L260.891 238.286C259.812 237.75 259.521 236.343 260.3 235.423L264.604 230.341C265.29 229.532 266.513 229.46 267.288 230.184L281.834 243.768C282.508 244.397 282.617 245.426 282.091 246.184L281.645 246.826Z" fill="#FFE500"/>
<path d="M466.594 310.752C466.447 309.877 466.94 309.02 467.771 308.707L503.309 295.312C504.492 294.867 505.765 295.708 505.819 296.971L506.253 307.135C506.293 308.089 505.603 308.918 504.658 309.052L468.989 314.093C467.993 314.234 467.065 313.555 466.899 312.563L466.594 310.752Z" fill="#FFE500"/>
<path d="M304.667 244.025C303.824 244.237 302.947 243.836 302.556 243.06L287.652 213.48C287.069 212.322 287.821 210.939 289.11 210.799L296.199 210.028C297.102 209.93 297.943 210.499 298.188 211.374L306.636 241.565C306.917 242.571 306.314 243.611 305.301 243.866L304.667 244.025Z" fill="#FFE500"/>
<path d="M460.775 352.592C461.232 351.763 462.24 351.41 463.114 351.774L476.449 357.318C477.52 357.763 477.925 359.071 477.293 360.043L473.837 365.363C473.198 366.345 471.82 366.498 470.982 365.679L460.671 355.602C460.074 355.018 459.94 354.109 460.342 353.378L460.775 352.592Z" fill="#FFE500"/>
<path d="M290.193 261.406C290.369 262.336 289.817 263.25 288.912 263.526L275.101 267.748C273.992 268.087 272.846 267.337 272.714 266.184L271.989 259.882C271.856 258.718 272.821 257.722 273.988 257.82L288.356 259.019C289.188 259.089 289.871 259.704 290.026 260.524L290.193 261.406Z" fill="#FFE500"/>
<path d="M350.051 262.598C360.711 269.554 363.751 283.802 356.836 294.4C355.967 295.73 354.233 296.09 352.895 295.216C351.556 294.343 351.187 292.611 352.055 291.28C357.265 283.296 354.933 272.559 346.95 267.35C338.966 262.14 328.168 264.377 322.989 272.313C322.121 273.644 320.387 274.003 319.049 273.13C317.71 272.256 317.341 270.524 318.209 269.194C325.124 258.596 339.39 255.641 350.051 262.598Z" fill="white"/>
<path d="M414.732 304.795C425.392 311.751 428.432 325.999 421.516 336.597C420.648 337.928 418.914 338.287 417.576 337.413C416.237 336.54 415.868 334.808 416.736 333.477C421.946 325.494 419.614 314.757 411.63 309.547C403.647 304.337 392.849 306.574 387.67 314.511C386.802 315.841 385.068 316.2 383.729 315.327C382.391 314.453 382.021 312.722 382.89 311.391C389.805 300.793 404.071 297.838 414.732 304.795Z" fill="white"/>
<path d="M385.685 359.078C367.583 347.261 360.234 324.744 368.21 305.541C369.054 303.507 368.289 301.132 366.39 299.892C364.49 298.652 362.006 298.907 360.486 300.499C346.114 315.527 322.545 317.861 304.443 306.044C294.475 299.537 287.539 289.676 284.914 278.276C282.288 266.876 284.289 255.315 290.549 245.725C303.484 225.909 330.763 220.726 351.358 234.17L432.603 287.206C453.197 300.65 459.429 327.708 446.494 347.523C440.233 357.114 430.457 363.598 418.964 365.782C407.472 367.966 395.653 365.585 385.685 359.078Z" fill="#D4D4D4" fill-opacity="0.3"/>
<path d="M385.685 359.078C367.583 347.261 360.234 324.744 368.21 305.541C369.054 303.507 368.289 301.132 366.39 299.892C364.49 298.652 362.006 298.907 360.486 300.499C346.114 315.527 322.545 317.861 304.443 306.044C294.475 299.537 287.539 289.676 284.914 278.276C282.288 266.876 284.289 255.315 290.549 245.725C303.484 225.909 330.763 220.726 351.358 234.17L432.603 287.206C453.197 300.65 459.429 327.708 446.494 347.523C440.233 357.114 430.457 363.598 418.964 365.782C407.472 367.966 395.653 365.585 385.685 359.078ZM370.653 293.356C375.844 296.745 377.943 303.218 375.647 308.749C369.123 324.455 375.138 342.874 389.949 352.542C398.104 357.865 407.771 359.811 417.176 358.026C426.581 356.241 434.578 350.934 439.7 343.088C450.283 326.876 445.185 304.738 428.335 293.739L347.092 240.705C330.242 229.705 307.924 233.946 297.341 250.158C292.219 258.004 290.583 267.46 292.729 276.789C294.876 286.118 300.552 294.184 308.706 299.508C323.517 309.176 342.798 307.271 354.552 294.979C358.691 290.651 365.462 289.967 370.653 293.356Z" fill="#D0D0D0"/>
<path d="M343.673 405.602L339.469 410.214L342.589 415.646L336.896 413.09L332.707 417.726L333.368 411.521L327.661 408.94L333.777 407.658L334.437 401.453L337.557 406.885L343.673 405.602Z" fill="#FFE500"/>
<path d="M298.93 403.451L299.304 407.001L302.812 407.732L299.555 409.194L299.945 412.747L297.543 410.106L294.271 411.565L296.047 408.463L293.646 405.822L297.154 406.553L298.93 403.451Z" fill="#FFE500"/>
<rect width="94.7781" height="15.5361" rx="2.03353" transform="matrix(0.104958 -0.994477 -0.994477 -0.104958 525.529 480.504)" fill="#FA78C3"/>
<path d="M338.349 148.376L346.503 142.048L343.358 139.134L338.462 142.931L332.156 137.437L325.63 142.5L319.323 137.006L311.168 143.332L314.313 146.248L319.21 142.449L325.518 147.943L332.043 142.882L338.349 148.376Z" fill="#FF5A00"/>
<path d="M552.95 286.781L561.744 281.38L558.935 278.14L553.655 281.382L547.984 275.234L540.947 279.555L535.275 273.407L526.48 278.808L529.289 282.049L534.57 278.806L540.242 284.954L547.279 280.633L552.95 286.781Z" fill="#00C800"/>
<path d="M440.992 209.67L449.546 215.444L451.335 211.546L446.2 208.079L449.453 200.374L442.608 195.753L445.861 188.047L437.308 182.271L435.518 186.169L440.654 189.637L437.401 197.343L444.245 201.965L440.992 209.67Z" fill="#FF5A00"/>
<path d="M273.574 98.8077C277.768 101.546 283.389 100.365 286.127 96.1705C288.865 91.9758 287.684 86.3554 283.49 83.6172C279.295 80.8791 273.675 82.0597 270.936 86.2544C268.198 90.4492 269.379 96.0695 273.574 98.8077Z" fill="#0082FF"/>
<path d="M365.207 207.78C369.402 210.518 374.991 209.386 377.691 205.25C380.391 201.114 379.179 195.542 374.984 192.804C370.789 190.066 365.2 191.198 362.5 195.334C359.801 199.47 361.013 205.042 365.207 207.78Z" fill="#00C800"/>
<defs>
<radialGradient id="paint0_radial_1_6673" cx="0" cy="0" r="1" gradientUnits="userSpaceOnUse" gradientTransform="translate(360.856 313.175) rotate(90) scale(216.063)">
<stop stop-color="#FED75A"/>
<stop offset="1" stop-color="#FED75A" stop-opacity="0"/>
</radialGradient>
</defs>
</svg>
