<svg width="408" height="482" viewBox="0 0 408 482" fill="none" xmlns="http://www.w3.org/2000/svg">
<g clip-path="url(#clip0_1_6565)">
<path d="M284.107 455.423L296.578 400.691L333.992 236.494C340.88 206.266 321.959 176.178 291.731 169.291L279.26 224.023L266.789 278.749C240.841 290.344 220.472 313.574 213.671 343.417C202.206 393.732 233.645 443.812 283.91 455.378C283.977 455.393 284.041 455.408 284.105 455.424L284.107 455.423Z" fill="#231F20"/>
<path d="M130.952 232.277L154.617 181.38L178.286 130.479C150.173 117.407 116.787 129.601 103.716 157.712L87.938 191.646L71.7923 226.368L32.7117 310.417L9.04318 361.318C9.10446 361.347 9.16481 361.374 9.22516 361.401C56.0403 383.05 111.568 362.722 133.326 315.928C146.231 288.172 144.36 257.334 130.951 232.275L130.952 232.277Z" fill="#231F20"/>
<path d="M326.46 161.795L155.491 103.303L126.245 188.787L297.215 247.279L326.46 161.795Z" fill="#2D2D2D"/>
<path d="M297.214 247.279L126.245 188.787L96.9994 274.27L267.968 332.762L297.214 247.279Z" fill="#2D2D2D"/>
<path d="M128.805 431.822L76.2829 413.853C74.5941 413.276 73.6935 411.438 74.2713 409.75C74.8491 408.061 76.6863 407.16 78.3751 407.738L130.898 425.707C132.586 426.285 133.487 428.122 132.909 429.811C132.331 431.5 130.494 432.4 128.805 431.822Z" fill="#2D2D2D"/>
<path d="M111.292 425.834C109.808 425.327 108.876 423.8 109.161 422.208L130.587 302.421C130.901 300.664 132.579 299.494 134.336 299.809C136.093 300.124 137.263 301.802 136.948 303.559L115.523 423.346C115.208 425.102 113.53 426.272 111.773 425.958C111.608 425.928 111.447 425.886 111.292 425.833L111.292 425.834Z" fill="#2D2D2D"/>
<path d="M198.835 455.781L146.312 437.812C144.623 437.234 143.723 435.397 144.301 433.708C144.878 432.019 146.716 431.119 148.404 431.697L200.927 449.666C202.616 450.243 203.516 452.081 202.939 453.769C202.361 455.458 200.523 456.359 198.835 455.781Z" fill="#2D2D2D"/>
<path d="M163.822 443.805C163.668 443.752 163.514 443.687 163.366 443.609C161.784 442.782 161.173 440.829 162.002 439.248L218.441 331.439C219.269 329.858 221.222 329.247 222.803 330.076C224.384 330.903 224.995 332.856 224.166 334.437L167.727 442.245C166.977 443.678 165.305 444.314 163.822 443.806L163.822 443.805Z" fill="#2D2D2D"/>
<path d="M211.699 218.024C258.911 234.176 310.277 208.997 326.429 161.786C342.581 114.574 317.402 63.2083 270.191 47.0563C222.979 30.9043 171.613 56.083 155.461 103.294C139.309 150.506 164.488 201.872 211.699 218.024Z" fill="#2D2D2D"/>
<path d="M153.235 389.007C200.447 405.159 251.813 379.981 267.965 332.769C284.117 285.558 258.938 234.192 211.727 218.04C164.516 201.888 113.149 227.066 96.9974 274.278C80.8454 321.489 106.024 372.855 153.235 389.007Z" fill="#2D2D2D"/>
<path d="M207.189 112.66C220.369 117.169 234.708 110.141 239.217 96.9613C243.725 83.7821 236.697 69.443 223.517 64.9341C210.338 60.4252 195.999 67.4539 191.49 80.6332C186.981 93.8124 194.01 108.152 207.189 112.66Z" fill="white"/>
<path d="M211.273 100.726C217.862 102.98 225.031 99.4659 227.286 92.8767C229.54 86.2874 226.026 79.1183 219.437 76.864C212.847 74.6097 205.678 78.1239 203.424 84.7131C201.17 91.3023 204.684 98.4715 211.273 100.726Z" fill="#231F20"/>
<path d="M207.764 84.4451C212.954 86.2209 218.601 83.4527 220.377 78.2621C222.153 73.0716 219.385 67.4243 214.194 65.6485C209.004 63.8727 203.356 66.6409 201.581 71.8314C199.805 77.022 202.573 82.6693 207.764 84.4451Z" fill="white"/>
<path d="M182.651 158.352C201.97 164.961 222.989 154.658 229.598 135.339C236.208 116.02 225.904 95.0011 206.586 88.3917C187.267 81.7823 166.247 92.0854 159.638 111.404C153.029 130.723 163.332 151.742 182.651 158.352Z" fill="#2D2D2D"/>
<path d="M279.875 137.528C293.054 142.036 307.393 135.008 311.902 121.829C316.411 108.649 309.382 94.3102 296.203 89.8013C283.024 85.2924 268.685 92.3211 264.176 105.5C259.667 118.68 266.696 133.019 279.875 137.528Z" fill="white"/>
<path d="M283.959 125.593C290.548 127.847 297.717 124.333 299.971 117.744C302.226 111.155 298.712 103.986 292.122 101.731C285.533 99.4769 278.364 102.991 276.11 109.58C273.855 116.17 277.369 123.339 283.959 125.593Z" fill="#231F20"/>
<path d="M280.449 109.312C285.64 111.088 291.287 108.32 293.063 103.129C294.839 97.9388 292.07 92.2914 286.88 90.5156C281.689 88.7399 276.042 91.5081 274.266 96.6986C272.49 101.889 275.258 107.536 280.449 109.312Z" fill="white"/>
<path d="M271.275 188.672C290.594 195.281 311.613 184.978 318.222 165.659C324.832 146.34 314.528 125.321 295.21 118.712C275.891 112.102 254.872 122.405 248.262 141.724C241.653 161.043 251.956 182.062 271.275 188.672Z" fill="#2D2D2D"/>
<path d="M245.703 118.634C224.913 111.521 202.736 121.313 196.171 140.503L211.702 218.021L245.704 118.634L245.703 118.634Z" fill="#C7EAFB"/>
<path d="M271.461 166.263L271.46 166.262C278.025 147.072 266.495 125.749 245.705 118.636L211.703 218.023L271.463 166.263L271.461 166.263Z" fill="#6E00FF"/>
<path d="M166.083 77.2095L163.201 85.6336L171.625 88.5157L160.117 122.153L165.659 133.459L216.086 150.711L241.502 131.242L249.724 162.219L300.151 179.471L311.458 173.93L322.966 140.292L331.39 143.174L334.272 134.75L166.083 77.2095Z" fill="white" fill-opacity="0.7"/>
<path d="M299.133 182.441L248.706 165.189C247.697 164.844 246.97 164.065 246.66 163.031L239.671 136.585L217.947 153.208C217.129 153.856 216.017 154.006 215.008 153.66L164.581 136.408C163.81 136.144 163.14 135.584 162.81 134.808L157.267 123.502C156.916 122.785 156.824 121.892 157.088 121.121L167.581 90.4501L162.123 88.5829C160.462 88.0145 159.603 86.2629 160.171 84.6018L163.054 76.1777C163.622 74.5166 165.374 73.658 167.035 74.2263L335.224 131.767C336.885 132.335 337.743 134.087 337.175 135.748L334.293 144.172C333.725 145.833 331.973 146.692 330.312 146.124L324.854 144.256L314.361 174.927C314.097 175.699 313.536 176.368 312.761 176.699L301.454 182.241C300.738 182.593 299.845 182.685 299.074 182.421L299.133 182.441ZM252.337 159.805L299.976 176.103L308.894 171.732L319.975 139.34C320.544 137.679 322.295 136.821 323.957 137.389L329.414 139.256L330.267 136.764L168.01 81.2532L167.158 83.7449L172.616 85.6121C174.277 86.1804 175.136 87.9321 174.567 89.5932L163.486 121.985L167.857 130.902L215.495 147.2L239.634 128.752C241.329 127.477 244.058 128.41 244.558 130.437L252.337 159.805Z" fill="#231F20"/>
<path d="M245.414 67.9866L197.525 51.6029C195.634 50.9559 194.606 49.1084 195.189 47.4039C195.772 45.6995 197.716 44.8687 199.608 45.5158L247.496 61.8994C249.388 62.5465 250.415 64.394 249.832 66.0984C249.249 67.8029 247.305 68.6337 245.414 67.9866Z" fill="#CACACA"/>
<path d="M326.081 83.6162L275.476 82.6449C273.478 82.6066 271.935 81.1613 271.97 79.3602C272.004 77.5592 273.601 76.1742 275.6 76.2125L326.204 77.1838C328.203 77.2222 329.746 78.6675 329.711 80.4685C329.677 82.2696 328.079 83.6546 326.081 83.6162Z" fill="#CACACA"/>
</g>
<defs>
<clipPath id="clip0_1_6565">
<rect width="290.716" height="409.802" fill="white" transform="translate(132.653) rotate(18.8869)"/>
</clipPath>
</defs>
</svg>
