<svg width="187" height="153" viewBox="0 0 187 153" fill="none" xmlns="http://www.w3.org/2000/svg">
<path d="M124.911 8.94258L126.254 6.10087L124.998 5.74218L124.192 7.44808L121.722 6.8242L120.646 9.09808L118.176 8.47435L116.832 11.3159L118.088 11.6749L118.895 9.96858L121.365 10.5923L122.441 8.3187L124.911 8.94258Z" fill="#00C800"/>
<path d="M66.242 55.8845C58.4636 66.8877 43.2381 69.5025 32.2348 61.724C21.2316 53.9455 18.6168 38.72 26.3953 27.7168L66.242 55.8845Z" fill="#231F20"/>
<path d="M26.3933 27.7163C21.7264 34.3184 23.2952 43.4534 29.8972 48.1203L38.3472 36.1663L26.3933 27.7163Z" fill="#231F20"/>
<path d="M65.7601 73.4639L74.2109 61.5107L38.3509 36.158L29.9 48.1112L65.7601 73.4639Z" fill="#231F20"/>
<path d="M39.1481 53.2217C34.7955 60.0353 36.7903 69.0867 43.6033 73.4393L51.4845 61.1028L39.1481 53.2217Z" fill="#231F20"/>
<path d="M47.1168 59.3677C42.7642 66.1813 44.7591 75.2327 51.5721 79.5853L59.4533 67.2488L47.1168 59.3677Z" fill="#6E00FF"/>
<path d="M54.9215 63.9067C50.5689 70.7204 52.5638 79.7718 59.3768 84.1244L67.2579 71.7879L54.9215 63.9067Z" fill="#231F20"/>
<path d="M62.9645 69.9971C58.6119 76.8107 60.6068 85.8621 67.4198 90.2147L75.3009 77.8782L62.9645 69.9971Z" fill="#6E00FF"/>
<path d="M64.4495 42.1571C56.1088 53.9556 39.7829 56.7593 27.9844 48.4187C16.1859 40.078 13.3822 23.7521 21.7228 11.9536L64.4495 42.1571Z" fill="#231F20"/>
<path d="M21.7241 11.9536C16.72 19.0329 18.4021 28.8281 25.4814 33.8323L34.5421 21.0143L21.7241 11.9536Z" fill="#231F20"/>
<path d="M63.9384 61.0075L73 48.1904L34.5481 21.0053L25.4865 33.8224L63.9384 61.0075Z" fill="#231F20"/>
<path d="M35.4005 39.3027C30.7334 46.6088 32.8724 56.3144 40.1778 60.9816L48.6286 47.7535L35.4005 39.3027Z" fill="#231F20"/>
<path d="M43.9474 45.8926C39.2802 53.1986 41.4193 62.9042 48.7247 67.5714L57.1755 54.3433L43.9474 45.8926Z" fill="#C7EAFB"/>
<path d="M52.3146 50.7598C47.6474 58.0658 49.7865 67.7714 57.0919 72.4386L65.5427 59.2105L52.3146 50.7598Z" fill="#231F20"/>
<path d="M60.9396 57.2905C56.2724 64.5966 58.4115 74.3022 65.7169 78.9694L74.1677 65.7413L60.9396 57.2905Z" fill="#C7EAFB"/>
<path d="M59.3652 43.7957C59.3551 44.1443 59.091 44.4328 58.7447 44.4736L52.854 45.1674C52.3843 45.2227 51.9872 44.8228 52.0459 44.3535L52.2504 42.7173C52.302 42.3043 52.6886 42.0184 53.0986 42.09L58.7834 43.0828C59.1275 43.1429 59.3753 43.4465 59.3652 43.7957V43.7957Z" fill="#FFE500"/>
<path d="M64.8212 39.3046C64.607 39.5365 64.2605 39.5887 63.9875 39.4303L55.5405 34.5293C55.1006 34.2741 55.051 33.6581 55.4443 33.3357L56.8354 32.1956C57.1109 31.9698 57.5094 31.9764 57.7774 32.2112L64.7704 38.3398C65.0557 38.5899 65.0787 39.026 64.8212 39.3046V39.3046Z" fill="#FFE500"/>
<path d="M63.8641 46.1033C64.1214 46.3712 64.1372 46.7911 63.8991 47.0762L61.2985 50.1901C61.0067 50.5395 60.4695 50.5387 60.1787 50.1884L59.1967 49.0053C58.903 48.6514 59.0065 48.1174 59.4111 47.8989L62.9916 45.9658C63.2797 45.8103 63.6372 45.8671 63.8641 46.1033V46.1033Z" fill="#FFE500"/>
<path d="M14.8219 67.1105L11.1602 66.0557L10.1897 69.4243L13.8515 70.4792L14.8219 67.1105Z" fill="#0A6FCB"/>
<path d="M57.4368 9.37068L58.4629 6.39955L57.1755 6.17976L56.5592 7.96339L54.0361 7.61219L53.2147 9.98967L50.6914 9.63864L49.6648 12.6097L50.9524 12.8297L51.5688 11.0457L54.0922 11.3967L54.9137 9.01948L57.4368 9.37068Z" fill="#FF5A00"/>
<path d="M32.6613 7.51589C34.1871 7.51589 35.4241 6.27893 35.4241 4.75306C35.4241 3.22719 34.1871 1.99023 32.6613 1.99023C31.1354 1.99023 29.8984 3.22719 29.8984 4.75306C29.8984 6.27893 31.1354 7.51589 32.6613 7.51589Z" fill="#0082FF"/>
<path d="M88.6041 134.128H84.5018L79.7864 103.478C79.7157 103.018 79.2852 102.702 78.8252 102.773C78.3652 102.844 78.0498 103.274 78.1205 103.734L82.7965 134.129H74.1282C73.6627 134.129 73.2852 134.506 73.2852 134.972C73.2852 135.437 73.6627 135.815 74.1282 135.815H83.7755C83.7755 135.815 83.7774 135.815 83.778 135.815C83.7792 135.815 83.7798 135.815 83.7811 135.815H88.6047C89.0702 135.815 89.4478 135.437 89.4478 134.972C89.4478 134.506 89.0702 134.129 88.6047 134.129L88.6041 134.128Z" fill="#2D2D2D"/>
<path d="M120.344 119.034L115.453 126.191L92.9972 105.181C92.6573 104.863 92.1239 104.881 91.806 105.221C91.4881 105.561 91.5057 106.094 91.8455 106.412L114.491 127.599L112.176 130.985C111.913 131.37 112.012 131.895 112.396 132.157C112.781 132.42 113.305 132.321 113.568 131.937L116.29 127.954C116.29 127.954 116.291 127.953 116.291 127.952C116.292 127.951 116.292 127.95 116.293 127.95L121.736 119.985C121.999 119.6 121.9 119.076 121.516 118.813C121.131 118.55 120.607 118.649 120.344 119.033L120.344 119.034Z" fill="#2D2D2D"/>
<path d="M115.699 55.8962C123.478 66.8994 138.703 69.5142 149.706 61.7357C160.71 53.9572 163.324 38.7318 155.546 27.7285L115.699 55.8962Z" fill="#231F20"/>
<path d="M104.225 81.9328C99.5585 75.3307 101.127 66.1956 107.729 61.5288L116.179 73.4828L104.225 81.9328Z" fill="#231F20"/>
<path d="M155.548 27.7285C160.215 34.3306 158.646 43.4656 152.044 48.1325L143.594 36.1785L155.548 27.7285Z" fill="#231F20"/>
<path d="M152.052 48.1319L143.602 36.1787L107.741 61.5315L116.192 73.4847L152.052 48.1319Z" fill="#231F20"/>
<path d="M142.786 53.2349C147.138 60.0485 145.143 69.0999 138.33 73.4525L130.449 61.116L142.786 53.2349Z" fill="#231F20"/>
<path d="M134.809 59.3804C139.162 66.194 137.167 75.2454 130.354 79.598L122.473 67.2615L134.809 59.3804Z" fill="#6E00FF"/>
<path d="M127.008 63.9194C131.361 70.733 129.366 79.7845 122.553 84.137L114.672 71.8006L127.008 63.9194Z" fill="#231F20"/>
<path d="M118.965 70.0093C123.318 76.8229 121.323 85.8743 114.51 90.2269L106.629 77.8904L118.965 70.0093Z" fill="#6E00FF"/>
<path d="M77.7079 81.921C82.3747 75.319 80.806 66.1839 74.2039 61.5171L65.7539 73.471L77.7079 81.921Z" fill="#231F20"/>
<path d="M117.484 42.1703C125.825 53.9688 142.151 56.7725 153.949 48.4319C165.748 40.0912 168.552 23.7653 160.211 11.9668L117.484 42.1703Z" fill="#231F20"/>
<path d="M105.181 70.0891C100.177 63.0099 101.859 53.2146 108.938 48.2104L117.999 61.0284L105.181 70.0891Z" fill="#231F20"/>
<path d="M160.205 11.9668C165.209 19.046 163.527 28.8413 156.447 33.8454L147.387 21.0275L160.205 11.9668Z" fill="#231F20"/>
<path d="M156.464 33.8444L147.402 21.0273L108.95 48.2125L118.012 61.0296L156.464 33.8444Z" fill="#231F20"/>
<path d="M146.533 39.3164C151.2 46.6225 149.061 56.3281 141.755 60.9952L133.305 47.7672L146.533 39.3164Z" fill="#231F20"/>
<path d="M137.974 45.9062C142.641 53.2123 140.502 62.9179 133.197 67.5851L124.746 54.357L137.974 45.9062Z" fill="#C7EAFB"/>
<path d="M129.619 50.7729C134.286 58.079 132.147 67.7846 124.841 72.4518L116.391 59.2237L129.619 50.7729Z" fill="#231F20"/>
<path d="M120.99 57.3032C125.657 64.6093 123.518 74.3149 116.212 78.9821L107.762 65.754L120.99 57.3032Z" fill="#C7EAFB"/>
<path d="M76.7515 70.0759C81.7557 62.9967 80.0735 53.2014 72.9943 48.1973L63.9336 61.0152L76.7515 70.0759Z" fill="#231F20"/>
<path d="M114.592 52.5073H67.4688V76.0684H114.592V52.5073Z" fill="#2D2D2D"/>
<path d="M114.592 76.0684H67.4688V99.6294H114.592V76.0684Z" fill="#2D2D2D"/>
<path d="M91.022 76.0689C104.034 76.0689 114.583 65.5203 114.583 52.5079C114.583 39.4954 104.034 28.9468 91.022 28.9468C78.0096 28.9468 67.4609 39.4954 67.4609 52.5079C67.4609 65.5203 78.0096 76.0689 91.022 76.0689Z" fill="#2D2D2D"/>
<path d="M91.0298 123.191C104.042 123.191 114.591 112.642 114.591 99.6294C114.591 86.617 104.042 76.0684 91.0298 76.0684C78.0174 76.0684 67.4688 86.617 67.4688 99.6294C67.4688 112.642 78.0174 123.191 91.0298 123.191Z" fill="#2D2D2D"/>
<path d="M81.0069 50.4524C84.6395 50.4524 87.5842 47.5076 87.5842 43.8751C87.5842 40.2426 84.6395 37.2979 81.0069 37.2979C77.3744 37.2979 74.4297 40.2426 74.4297 43.8751C74.4297 47.5076 77.3744 50.4524 81.0069 50.4524Z" fill="white"/>
<path d="M81.0117 47.164C82.8282 47.164 84.3007 45.6914 84.3007 43.875C84.3007 42.0585 82.8282 40.5859 81.0117 40.5859C79.1952 40.5859 77.7227 42.0585 77.7227 43.875C77.7227 45.6914 79.1952 47.164 81.0117 47.164Z" fill="#231F20"/>
<path d="M78.7666 43.4424C80.1975 43.4424 81.3574 42.2824 81.3574 40.8516C81.3574 39.4207 80.1975 38.2607 78.7666 38.2607C77.3357 38.2607 76.1758 39.4207 76.1758 40.8516C76.1758 42.2824 77.3357 43.4424 78.7666 43.4424Z" fill="white"/>
<path d="M78.0279 65.5816C83.3525 65.5816 87.669 61.2651 87.669 55.9405C87.669 50.6158 83.3525 46.2993 78.0279 46.2993C72.7032 46.2993 68.3867 50.6158 68.3867 55.9405C68.3867 61.2651 72.7032 65.5816 78.0279 65.5816Z" fill="#2D2D2D"/>
<path d="M101.034 50.4529C104.667 50.4529 107.612 47.5081 107.612 43.8756C107.612 40.2431 104.667 37.2983 101.034 37.2983C97.4018 37.2983 94.457 40.2431 94.457 43.8756C94.457 47.5081 97.4018 50.4529 101.034 50.4529Z" fill="white"/>
<path d="M101.039 47.1645C102.856 47.1645 104.328 45.6919 104.328 43.8755C104.328 42.059 102.856 40.5864 101.039 40.5864C99.2225 40.5864 97.75 42.059 97.75 43.8755C97.75 45.6919 99.2225 47.1645 101.039 47.1645Z" fill="#231F20"/>
<path d="M98.7978 43.4428C100.229 43.4428 101.389 42.2829 101.389 40.852C101.389 39.4212 100.229 38.2612 98.7978 38.2612C97.367 38.2612 96.207 39.4212 96.207 40.852C96.207 42.2829 97.367 43.4428 98.7978 43.4428Z" fill="white"/>
<path d="M104.016 65.5816C109.341 65.5816 113.657 61.2651 113.657 55.9405C113.657 50.6158 109.341 46.2993 104.016 46.2993C98.6915 46.2993 94.375 50.6158 94.375 55.9405C94.375 61.2651 98.6915 65.5816 104.016 65.5816Z" fill="#2D2D2D"/>
<path fill-rule="evenodd" clip-rule="evenodd" d="M128.008 57.3825C131.042 57.3825 133.502 54.9231 133.502 51.8892C133.502 48.8553 131.042 46.3958 128.008 46.3958C127.871 46.3958 127.735 46.4008 127.6 46.4107C130.228 46.804 132.243 49.0706 132.243 51.8078C132.243 54.7934 129.845 57.2191 126.871 57.2646C127.238 57.3419 127.618 57.3825 128.008 57.3825ZM128.008 59.3818C132.146 59.3818 135.501 56.0273 135.501 51.8892C135.501 47.7511 132.146 44.3965 128.008 44.3965C123.87 44.3965 120.516 47.7511 120.516 51.8892C120.516 53.2924 120.901 54.6056 121.573 55.7284H110.453V56.1939H105.07V57.1564H110.453V57.1564H105.07V58.1188H110.453V59.3809H127.374V59.3553C127.583 59.3729 127.795 59.3818 128.008 59.3818ZM121.991 57.5546H123.105L123.105 57.5547H121.991V57.5546ZM126.817 55.2658C128.712 55.2491 130.244 53.7073 130.244 51.8078C130.244 49.9465 128.773 48.4287 126.931 48.3526C128.304 48.8891 129.276 50.225 129.276 51.788C129.276 53.394 128.249 54.7601 126.817 55.2658ZM127.277 51.788C127.277 52.7201 126.521 53.4757 125.589 53.4757C124.657 53.4757 123.902 52.7201 123.902 51.788C123.902 50.856 124.657 50.1004 125.589 50.1004C126.521 50.1004 127.277 50.856 127.277 51.788Z" fill="#FEF138"/>
<mask id="mask0_2_8552" style="mask-type:alpha" maskUnits="userSpaceOnUse" x="105" y="44" width="31" height="16">
<path fill-rule="evenodd" clip-rule="evenodd" d="M128.004 57.3825C131.038 57.3825 133.498 54.9231 133.498 51.8892C133.498 48.8553 131.038 46.3958 128.004 46.3958C127.867 46.3958 127.731 46.4008 127.597 46.4107C130.224 46.8042 132.239 49.0706 132.239 51.8077C132.239 54.7935 129.841 57.2193 126.866 57.2645C127.233 57.3418 127.614 57.3825 128.004 57.3825ZM128.004 59.3818C132.142 59.3818 135.497 56.0273 135.497 51.8892C135.497 47.7511 132.142 44.3965 128.004 44.3965C123.866 44.3965 120.512 47.7511 120.512 51.8892C120.512 53.2924 120.897 54.6055 121.569 55.7283H110.453V56.1939H105.066V57.1563V57.1563V58.1187H110.453V59.3807H127.374V59.3557C127.582 59.373 127.792 59.3818 128.004 59.3818ZM121.987 57.5545H123.101L123.101 57.5546H121.987V57.5545ZM126.813 55.2656C128.709 55.2487 130.24 53.707 130.24 51.8077C130.24 49.9463 128.769 48.4284 126.926 48.3525C128.3 48.8889 129.272 50.2249 129.272 51.788C129.272 53.3938 128.246 54.7599 126.813 55.2656ZM127.273 51.788C127.273 52.7201 126.517 53.4757 125.585 53.4757C124.653 53.4757 123.898 52.7201 123.898 51.788C123.898 50.856 124.653 50.1004 125.585 50.1004C126.517 50.1004 127.273 50.856 127.273 51.788Z" fill="#FEF138"/>
</mask>
<g mask="url(#mask0_2_8552)">
<circle cx="105.68" cy="58.6374" r="1.34833" fill="#FF7EF2"/>
<circle cx="107.977" cy="55.2702" r="1.34833" fill="#FF7EF2"/>
<circle cx="112.309" cy="59.1501" r="1.34833" fill="#FF7EF2"/>
<circle cx="117.989" cy="59.1501" r="1.34833" fill="#FF7EF2"/>
<circle cx="114.591" cy="55.3981" r="1.34833" fill="#FF7EF2"/>
<circle cx="121.27" cy="56.1799" r="1.34833" fill="#FF7EF2"/>
<circle cx="123.399" cy="57.966" r="1.34833" fill="#FF7EF2"/>
<circle cx="126.676" cy="56.4543" r="1.34833" fill="#FF7EF2"/>
<circle cx="124.809" cy="46.3005" r="1.34833" fill="#FF7EF2"/>
<circle cx="121.582" cy="50.9479" r="0.941602" fill="#FF7EF2"/>
<circle cx="123.563" cy="54.1647" r="0.941602" fill="#FF7EF2"/>
<circle cx="127.617" cy="50.1564" r="0.941602" fill="#FF7EF2"/>
<circle cx="129.317" cy="47.9006" r="0.941602" fill="#FF7EF2"/>
<circle cx="134.559" cy="50.4523" r="0.941602" fill="#FF7EF2"/>
<circle cx="133.024" cy="55.6765" r="0.941602" fill="#FF7EF2"/>
</g>
<path d="M82.4883 58.1188C82.4883 63.8488 86.7763 68.4941 92.0655 68.4941L109.882 58.1181L82.4883 58.1181L82.4883 58.1188Z" fill="#C7EAFB"/>
<path d="M90.6287 48.2269C85.3846 48.9157 81.7381 54.08 82.4844 59.7612L109.644 56.1934L90.6286 48.2263L90.6287 48.2269Z" fill="#6E00FF"/>
<rect x="109.422" y="55.6836" width="1.07974" height="3.69737" fill="#FF7EF2"/>
<path d="M116.551 36.5165C116.421 36.1929 116.548 35.8229 116.849 35.647L121.971 32.6554C122.379 32.4169 122.903 32.6247 123.037 33.0782L123.504 34.6597C123.622 35.0589 123.382 35.4755 122.977 35.5738L117.37 36.9372C117.03 37.0197 116.682 36.8405 116.551 36.5165V36.5165Z" fill="#FFE500"/>
<path d="M117.25 29.5286C117.014 29.2726 116.992 28.8854 117.198 28.6044L123.818 19.5624C124.111 19.1621 124.71 19.1654 124.999 19.5689L126.584 21.7851C126.802 22.09 126.753 22.5105 126.471 22.7573L118.445 29.7787C118.148 30.0388 117.698 30.0146 117.43 29.7242L117.25 29.5286Z" fill="#FFE500"/>
<path d="M122.652 41.2148C122.624 40.8444 122.879 40.5106 123.244 40.4425L127.233 39.699C127.68 39.6155 128.094 39.9584 128.095 40.4136L128.098 41.9512C128.099 42.411 127.679 42.7567 127.228 42.6674L123.237 41.8766C122.915 41.8129 122.676 41.5413 122.652 41.2148V41.2148Z" fill="#FFE500"/>
<path d="M104.214 55.6306C98.3349 55.6306 93.3141 51.5956 92.276 46.0369C92.1657 45.4484 91.6386 45.0211 91.0217 45.0211C90.4048 45.0211 89.877 45.4484 89.7674 46.0369C88.7285 51.5956 83.7085 55.6306 77.8296 55.6306C74.5925 55.6306 71.5472 54.416 69.2547 52.2103C66.9623 50.0047 65.6992 47.0747 65.6992 43.9601C65.6992 37.5249 71.1406 32.2896 77.8289 32.2896H104.214C110.902 32.2896 116.343 37.5249 116.343 43.9601C116.343 47.0747 115.081 50.0047 112.789 52.2103C110.496 54.416 107.451 55.6306 104.214 55.6306Z" fill="#D4D4D4" fill-opacity="0.3"/>
<path d="M104.214 55.6306C98.3349 55.6306 93.3141 51.5956 92.276 46.0369C92.1657 45.4484 91.6386 45.0211 91.0217 45.0211C90.4049 45.0211 89.877 45.4484 89.7674 46.0369C88.7285 51.5956 83.7085 55.6306 77.8296 55.6306C74.5925 55.6306 71.5472 54.416 69.2547 52.2103C66.9623 50.0047 65.6992 47.0747 65.6992 43.9601C65.6992 37.5249 71.1406 32.2896 77.8289 32.2896H104.214C110.902 32.2896 116.343 37.5249 116.343 43.9601C116.343 47.0747 115.081 50.0047 112.789 52.2103C110.496 54.416 107.451 55.6306 104.214 55.6306ZM91.021 42.899C92.7068 42.899 94.1471 44.0612 94.4464 45.662C95.2955 50.2084 99.4032 53.5084 104.213 53.5084C106.861 53.5084 109.352 52.5145 111.229 50.71C113.105 48.9054 114.137 46.5081 114.137 43.9601C114.137 38.695 109.685 34.4117 104.213 34.4117H77.8289C72.3566 34.4117 67.9049 38.695 67.9049 43.9601C67.9049 46.5081 68.9379 48.9047 70.8134 50.71C72.689 52.5152 75.1806 53.5084 77.8289 53.5084C82.6387 53.5084 86.7464 50.2084 87.5956 45.662C87.8948 44.0612 89.3351 42.899 91.021 42.899Z" fill="#FFCC01"/>
<path d="M186.396 135.814H0V152.581H186.396V135.814Z" fill="#8ADD00"/>
<path d="M23.6609 80.7192H10.1719V82.218H23.6609V80.7192Z" fill="#AFA2FB"/>
<path d="M33.2187 87.4634H10.7383V90.0861H33.2187V87.4634Z" fill="#0A6FCB"/>
<path d="M33.2187 87.4635H10.7383V84.8628H22.2402L23.0199 79.3114L29.9281 76.4106L33.2187 87.4635Z" fill="#AFA2FB"/>
<path d="M19.154 52.0627L15.4922 51.0078L14.5218 54.3765L18.1836 55.4313L19.154 52.0627Z" fill="#0A6FCB"/>
<path d="M20.3645 54.5648L13.1289 52.4805L9.36626 65.5421L16.6019 67.6265L20.3645 54.5648Z" fill="#AFA2FB"/>
<path d="M18.3257 64.7969C20.033 64.7969 21.417 63.4129 21.417 61.7056C21.417 59.9983 20.033 58.6143 18.3257 58.6143C16.6184 58.6143 15.2344 59.9983 15.2344 61.7056C15.2344 63.4129 16.6184 64.7969 18.3257 64.7969Z" fill="#0A6FCB"/>
<path d="M22.8124 80.5323V78.352C27.3428 78.352 31.0288 74.8343 31.0288 70.5098C31.0288 66.1854 27.3428 62.6676 22.8124 62.6676H15.793V60.4873H22.8124C25.5831 60.4873 28.1903 61.5247 30.1533 63.4081C32.1277 65.3028 33.2153 67.8245 33.2153 70.5098C33.2153 73.1951 32.1277 75.7168 30.1533 77.6115C28.1903 79.4949 25.5831 80.5323 22.8124 80.5323Z" fill="#0A6FCB"/>
<path d="M169.348 90.0854H165.789V135.796H169.348V90.0854Z" fill="#72B503"/>
<path d="M9.36799 90.0859H5.80859V135.796H9.36799V90.0859Z" fill="#72B503"/>
<path d="M163.159 73.4911V67.352L163.967 65.5449H156.761L157.367 67.352V73.4911C154.719 74.6288 152.863 77.2796 152.863 80.3675C152.863 84.4933 156.176 87.838 160.263 87.838C164.35 87.838 167.663 84.4933 167.663 80.3675C167.663 77.2796 165.807 74.6292 163.16 73.4911H163.159Z" fill="#E2F4FD"/>
<path d="M160.174 55.9924L166.732 47.187H153.617L160.174 55.9924Z" fill="#E2F4FD"/>
<path d="M163.538 51.3081H156.605L159.149 54.7549V58.4275L160.994 56.7093V54.7549L163.538 51.3081Z" fill="#8CEB4D"/>
<path d="M174.407 90.0854H0V97.0168H174.407V90.0854Z" fill="#98DA2A"/>
<path d="M167.664 80.3447C167.664 84.4835 164.351 87.8386 160.264 87.8386C156.177 87.8386 152.863 84.4835 152.863 80.3447H167.663H167.664Z" fill="#8CEB4D"/>
<path d="M170.664 87.6504H147.809V89.8984H170.664V87.6504Z" fill="#5FBCFF"/>
<path d="M147.809 49.2469V89.3369H148.933V49.2469H147.809Z" fill="#5FBCFF"/>
<path d="M170.285 54.1182H143.684V55.2422H170.285V54.1182Z" fill="#5FBCFF"/>
<path d="M148.37 56.9291C149.508 56.9291 150.431 56.0062 150.431 54.8679C150.431 53.7295 149.508 52.8066 148.37 52.8066C147.231 52.8066 146.309 53.7295 146.309 54.8679C146.309 56.0062 147.231 56.9291 148.37 56.9291Z" fill="#0A6FCB"/>
<path d="M161.32 60.5823L160.27 58.8193V58.8018L160.265 58.8105L160.26 58.8031V58.8175L159.211 60.5806C158.992 60.9476 158.992 61.4001 159.211 61.7671C159.428 62.1314 159.827 62.3568 160.26 62.3603V62.362C160.697 62.362 161.101 62.1358 161.319 61.7688C161.537 61.4018 161.537 60.9493 161.319 60.5823H161.32Z" fill="#8CEB4D"/>
<path d="M155.581 81.6568C156.357 81.6568 156.987 80.9857 156.987 80.1578C156.987 79.3299 156.357 78.6587 155.581 78.6587C154.805 78.6587 154.176 79.3299 154.176 80.1578C154.176 80.9857 154.805 81.6568 155.581 81.6568Z" fill="#9CD9F8"/>
<path d="M157.824 78.4715C158.289 78.4715 158.667 78.052 158.667 77.5346C158.667 77.0171 158.289 76.5977 157.824 76.5977C157.358 76.5977 156.98 77.0171 156.98 77.5346C156.98 78.052 157.358 78.4715 157.824 78.4715Z" fill="#9CD9F8"/>
<path d="M100.734 92.6374L96.886 86.039V81.7809L97.3225 80.251H92.527L92.9636 81.7809V86.039L89.1157 92.6374C88.5871 93.5436 89.248 94.6768 90.3048 94.6768H99.5448C100.602 94.6768 101.262 93.5441 100.734 92.6374Z" fill="#5FBCFF"/>
<circle cx="94.9263" cy="87.1094" r="12.52" fill="url(#paint0_radial_2_8552)" fill-opacity="0.7"/>
<path d="M94.9272 84.5127L90.0923 92.3277C89.6523 93.0387 90.2024 93.9276 91.0819 93.9276H98.7725C99.6525 93.9276 100.202 93.039 99.7622 92.3277L94.9272 84.5127Z" fill="#5FBCFF"/>
<path d="M94.9272 84.5127L90.0923 92.3277C89.6523 93.0387 90.2024 93.9276 91.0819 93.9276H98.7725C99.6525 93.9276 100.202 93.039 99.7622 92.3277L94.9272 84.5127Z" fill="#BA85FF"/>
<rect x="93.75" y="81.9321" width="2.35669" height="4.45434" fill="#BA85FF"/>
<path d="M101.323 74.8492L101.018 76.7254L102.718 77.5914L100.841 77.8872L100.544 79.7674L99.6797 78.0747L97.7943 78.3666L99.1408 77.0212L98.2762 75.3286L99.9763 76.1946L101.323 74.8492Z" fill="#FFE500"/>
<path d="M89.5491 81.7481L90.2355 82.5914L91.2519 82.1937L90.6648 83.1088L91.3558 83.9503L90.3035 83.6765L89.7116 84.5935L89.6483 83.5065L88.596 83.2328L89.6124 82.8351L89.5491 81.7481Z" fill="#FFE500"/>
<path d="M89.2637 70.4375L90.4518 71.8971L92.2113 71.2088L91.1949 72.7929L92.3911 74.2494L90.5696 73.7756L89.5451 75.3628L89.4354 73.4812L87.6139 73.0074L89.3734 72.3191L89.2637 70.4375Z" fill="#FFE500"/>
<rect width="28.8624" height="4.73113" rx="0.79795" transform="matrix(-0.455719 -0.890124 -0.890124 0.455719 161.652 30.4434)" fill="#FA78C3"/>
<path d="M93.8026 7.91628L96.9456 7.96473L96.7529 6.67296L94.866 6.64357L94.4129 4.1368L91.8979 4.09777L91.4445 1.59078L88.3015 1.54188L88.4939 2.83388L90.3813 2.86326L90.8346 5.37025L93.3495 5.40951L93.8026 7.91628Z" fill="#FF5A00"/>
<path d="M137.24 25.8362L140.383 25.8847L140.19 24.5929L138.304 24.5635L137.85 22.0567L135.335 22.0177L134.882 19.5107L131.739 19.4618L131.931 20.7538L133.819 20.7832L134.272 23.2902L136.787 23.3294L137.24 25.8362Z" fill="#FF5A00"/>
<path d="M74.1652 20.0504C75.691 20.0504 76.928 18.8308 76.928 17.3264C76.928 15.8221 75.691 14.6025 74.1652 14.6025C72.6394 14.6025 71.4023 15.8221 71.4023 17.3264C71.4023 18.8308 72.6394 20.0504 74.1652 20.0504Z" fill="#00C800"/>
<path d="M51.8833 29.8938L53.2269 27.052L51.9711 26.6934L51.1642 28.3993L48.6944 27.7754L47.619 30.0493L45.1489 29.4255L43.8048 32.2671L45.0608 32.6261L45.8679 30.9197L48.338 31.5435L49.4135 29.2699L51.8833 29.8938Z" fill="#00C800"/>
<defs>
<radialGradient id="paint0_radial_2_8552" cx="0" cy="0" r="1" gradientUnits="userSpaceOnUse" gradientTransform="translate(94.9263 87.1094) rotate(90) scale(12.52)">
<stop stop-color="#C5AFF5"/>
<stop offset="1" stop-color="#C5AFF5" stop-opacity="0"/>
</radialGradient>
</defs>
</svg>
