<svg width="200" height="293" viewBox="0 0 200 293" fill="none" xmlns="http://www.w3.org/2000/svg">
<path d="M137.418 181.517L140.153 141.221L146.353 129.726L98.2132 126.458L101.455 138.594L98.7199 178.89C80.5265 185.157 66.9466 201.715 65.5708 221.983C63.7326 249.064 84.376 272.52 111.678 274.373C138.981 276.227 162.605 255.775 164.443 228.695C165.819 208.426 154.601 190.188 137.421 181.517L137.418 181.517Z" fill="#E1E1E1"/>
<path d="M125.243 65.2687L172.969 10.4491L85.3613 4.50244L125.243 65.2687Z" fill="#E1E1E1"/>
<path d="M149.854 36.093L103.547 32.9497L119.005 56.7254L117.369 80.8294L130.457 70.3885L131.327 57.5618L149.854 36.093Z" fill="#D4D4D4"/>
<path d="M164.454 228.547C162.61 255.711 138.982 276.23 111.679 274.377C84.377 272.524 63.7382 249 65.582 221.836L164.451 228.547L164.454 228.547Z" fill="#D4D4D4"/>
<path d="M181.222 277.875L28.5332 267.511L27.5316 282.267L180.22 292.631L181.222 277.875Z" fill="#E1E1E1"/>
<path d="M45.6419 15.4237L27.7803 278.566L35.2895 279.076L53.1511 15.9334L45.6419 15.4237Z" fill="#E1E1E1"/>
<path d="M193.663 57.5808L15.9434 45.5176L15.4426 52.8954L193.162 64.9587L193.663 57.5808Z" fill="#E1E1E1"/>
<path d="M45.9776 66.0837C53.5809 66.5998 60.1557 60.9623 60.6627 53.4921C61.1698 46.0219 55.4172 39.5477 47.8139 39.0316C40.2106 38.5155 33.6358 44.153 33.1288 51.6232C32.6217 59.0934 38.3743 65.5676 45.9776 66.0837Z" fill="#D4D4D4"/>
<path d="M130.87 95.9277L124.645 83.8825L124.653 83.7674L124.613 83.8225L124.586 83.7716L124.58 83.8665L116.785 94.96C115.163 97.2693 114.962 100.239 116.256 102.746C117.543 105.235 120.108 106.895 123.002 107.115L123.001 107.126C125.92 107.324 128.717 106.023 130.338 103.713C131.96 101.404 132.161 98.4347 130.867 95.9275L130.87 95.9277Z" fill="#D4D4D4"/>
<path d="M83.1459 231.679C88.3299 232.031 92.8314 227.912 93.2002 222.479C93.569 217.046 89.6654 212.357 84.4813 212.005C79.2973 211.653 74.7958 215.772 74.427 221.205C74.0582 226.638 77.9618 231.327 83.1459 231.679Z" fill="#D4D4D4"/>
<path d="M99.5805 211.789C102.691 212.001 105.399 209.419 105.63 206.024C105.86 202.628 103.526 199.704 100.415 199.493C97.3047 199.282 94.5964 201.863 94.3659 205.259C94.1354 208.655 96.4701 211.578 99.5805 211.789Z" fill="#D4D4D4"/>
</svg>
