<svg width="619" height="447" viewBox="0 0 619 447" fill="none" xmlns="http://www.w3.org/2000/svg">
<path d="M403.22 248.051C403.757 247.474 404.717 247.926 404.651 248.725L403.994 256.769C403.965 257.128 404.162 257.471 404.486 257.622L412.147 261.207C412.896 261.558 412.765 262.678 411.96 262.811L404.081 264.119C403.71 264.181 403.431 264.49 403.402 264.873L402.792 272.777C402.73 273.587 401.69 273.83 401.265 273.134L396.839 265.884C396.66 265.59 396.325 265.433 395.993 265.487L387.765 266.83C386.981 266.958 386.471 265.989 387.015 265.405L392.333 259.693C392.59 259.417 392.629 258.995 392.428 258.666L388.16 251.674C387.724 250.96 388.447 250.117 389.195 250.467L396.859 254.053C397.182 254.204 397.558 254.132 397.799 253.874L403.22 248.051Z" fill="#F8B552"/>
<rect width="93.2153" height="15.2799" rx="2" transform="matrix(0.484561 -0.874757 -0.874757 -0.484561 13.3662 399.632)" fill="#FA78C3"/>
<path d="M143.442 307.301C174.478 301.95 195.333 272.647 190.023 241.85C184.713 211.053 155.249 190.425 124.214 195.776C93.178 201.127 72.323 230.43 77.6328 261.227C82.9426 292.024 112.406 312.652 143.442 307.301Z" fill="#2D2D2D"/>
<path d="M131.695 242.924C118.159 245.258 108.933 257.279 111.087 269.772L142.851 307.629L131.695 242.924L131.695 242.924Z" fill="#C7EAFB"/>
<path d="M160.101 261.322L160.1 261.322C157.946 248.828 145.227 240.591 131.692 242.925L142.848 307.63L160.102 261.322L160.101 261.322Z" fill="#6E00FF"/>
<path d="M151.13 210.4C151.174 210.099 151.577 210.031 151.717 210.3L157.164 220.741C157.226 220.861 157.36 220.927 157.494 220.904L169.144 218.896C169.443 218.844 169.634 219.205 169.422 219.423L161.204 227.858C161.11 227.955 161.088 228.103 161.152 228.223L166.656 238.662C166.797 238.93 166.513 239.223 166.241 239.089L155.67 233.891C155.549 233.831 155.403 233.856 155.309 233.953L147.03 242.406C146.818 242.622 146.453 242.442 146.496 242.142L148.187 230.458C148.207 230.324 148.138 230.192 148.016 230.132L137.448 224.935C137.176 224.801 137.234 224.397 137.533 224.346L149.184 222.337C149.318 222.314 149.421 222.208 149.441 222.073L151.13 210.4Z" fill="#FFE500"/>
<path d="M102.181 218.84C102.224 218.539 102.628 218.47 102.768 218.74L108.214 229.18C108.277 229.301 108.411 229.367 108.545 229.344L120.195 227.335C120.494 227.284 120.684 227.645 120.473 227.862L112.255 236.298C112.161 236.395 112.139 236.542 112.203 236.662L117.706 247.101C117.848 247.37 117.563 247.662 117.291 247.528L106.721 242.33C106.6 242.271 106.454 242.296 106.36 242.392L98.0804 250.845C97.8686 251.062 97.5036 250.881 97.547 250.581L99.2382 238.897C99.2576 238.763 99.1883 238.631 99.0665 238.572L88.4987 233.375C88.2265 233.241 88.2847 232.837 88.5836 232.785L100.235 230.777C100.368 230.753 100.472 230.647 100.491 230.513L102.181 218.84Z" fill="#FFE500"/>
<path d="M184.778 216.93C184.302 216.16 184.463 215.157 185.156 214.574L197.874 203.875C198.781 203.112 200.164 203.402 200.687 204.465L202.872 208.899C203.333 209.835 202.917 210.966 201.96 211.381L187.155 217.802C186.322 218.164 185.351 217.859 184.875 217.087L184.778 216.93Z" fill="#FFE500"/>
<path d="M60.3955 237.467C60.5236 238.364 59.9749 239.219 59.1065 239.476L43.1716 244.196C42.035 244.533 40.8839 243.714 40.829 242.53L40.5998 237.593C40.5515 236.551 41.3845 235.68 42.4278 235.683L58.5658 235.717C59.4731 235.719 60.2413 236.387 60.3695 237.285L60.3955 237.467Z" fill="#FFE500"/>
<path d="M73.0579 222.68C72.5929 223.398 71.6925 223.696 70.8911 223.399L45.466 213.974C44.2708 213.531 43.8859 212.03 44.7201 211.067L48.2195 207.024C48.8039 206.349 49.7909 206.196 50.5527 206.661L72.5057 220.087C73.3821 220.623 73.644 221.776 73.0852 222.638L73.0579 222.68Z" fill="#FFE500"/>
<path d="M203.086 223.372C203.19 222.447 203.974 221.748 204.905 221.751L216.423 221.781C217.564 221.784 218.423 222.821 218.213 223.942L217.358 228.515C217.147 229.648 215.951 230.303 214.882 229.873L204.185 225.569C203.424 225.263 202.96 224.486 203.052 223.671L203.086 223.372Z" fill="#FFE500"/>
<path d="M73.7805 241.623C74.5303 242.175 74.7446 243.203 74.2778 244.008L68.504 253.975C67.932 254.962 66.6048 255.189 65.7375 254.447L62.2016 251.425C61.3255 250.676 61.3538 249.313 62.2602 248.601L71.3279 241.479C71.9733 240.972 72.8776 240.958 73.5385 241.444L73.7805 241.623Z" fill="#FFE500"/>
<path d="M393.589 170.477C417.632 180.015 444.855 168.255 454.393 144.211C463.93 120.167 452.171 92.9443 428.127 83.4069C404.083 73.8694 376.86 85.629 367.323 109.673C357.785 133.717 369.545 160.94 393.589 170.477Z" fill="#2D2D2D"/>
<path d="M423.297 141.54C427.123 131.528 422.195 120.105 412.292 116.027L375.524 120.037C374.603 120.138 374.447 121.427 375.313 121.784L423.296 141.541L423.297 141.54Z" fill="#C7EAFB"/>
<path d="M397.762 153.327L397.762 153.326C407.666 157.404 418.797 152.594 422.623 142.582L374.64 122.824C373.774 122.468 373.036 123.517 373.64 124.246L397.762 153.327L397.762 153.327Z" fill="#6E00FF"/>
<path d="M402.067 94.4218C408.693 97.0501 411.951 104.53 409.338 111.116C409.01 111.943 408.098 112.334 407.266 112.004C406.434 111.674 406.039 110.765 406.367 109.938C408.335 104.975 405.858 99.3438 400.896 97.3755C395.934 95.4073 390.258 97.8391 388.301 102.772C387.973 103.599 387.062 103.989 386.23 103.659C385.398 103.329 385.002 102.42 385.33 101.593C387.943 95.0064 395.442 91.7936 402.067 94.4218Z" fill="white"/>
<path d="M439.056 109.089C445.681 111.717 448.939 119.197 446.326 125.783C445.998 126.61 445.087 127.001 444.255 126.671C443.423 126.341 443.027 125.432 443.355 124.605C445.323 119.642 442.846 114.011 437.884 112.042C432.922 110.074 427.246 112.506 425.29 117.439C424.962 118.266 424.05 118.656 423.218 118.326C422.386 117.996 421.99 117.087 422.319 116.26C424.931 109.673 432.43 106.461 439.056 109.089Z" fill="white"/>
<path d="M360.048 109.842C361.357 106.542 359.752 102.772 356.425 101.452C353.098 100.133 349.357 101.75 348.037 105.078C346.717 108.406 348.332 112.148 351.659 113.468L353.661 114.262L373.65 122.191" stroke="#00C800" stroke-width="1.75802" stroke-linecap="round" stroke-linejoin="round"/>
<path d="M453.382 114.735L421.462 83.0209L472.972 65.3499L453.382 114.735Z" fill="#00C800" stroke="#00C800" stroke-width="0.0775596" stroke-linecap="round" stroke-linejoin="round"/>
<path d="M469.593 73.8844C474.305 75.7534 479.639 73.449 481.508 68.7374C483.377 64.0257 481.073 58.691 476.361 56.822C471.649 54.953 466.315 57.2575 464.446 61.9692C462.577 66.6808 464.881 72.0154 469.593 73.8844Z" fill="#6E00FF"/>
<path d="M471.13 126.564C473.121 128.189 476.052 127.893 477.678 125.903C479.303 123.912 479.007 120.981 477.017 119.355C475.026 117.729 472.094 118.025 470.469 120.016C468.843 122.006 469.139 124.938 471.13 126.564Z" fill="#FF5A00"/>
<path d="M448.321 148.672C450.312 150.298 453.243 150.002 454.869 148.011C456.495 146.021 456.199 143.089 454.208 141.463C452.217 139.838 449.286 140.134 447.66 142.124C446.034 144.115 446.33 147.047 448.321 148.672Z" fill="#FF00FF"/>
<path d="M386.309 74.3692C388.665 75.3037 391.332 74.1515 392.267 71.7957C393.201 69.4399 392.049 66.7725 389.693 65.838C387.338 64.9036 384.67 66.0558 383.736 68.4116C382.801 70.7674 383.953 73.4348 386.309 74.3692Z" fill="#0082FF"/>
<path d="M405.966 72.1363C408.322 73.0708 410.979 71.9454 411.9 69.6228C412.821 67.3002 411.658 64.6597 409.303 63.7252C406.947 62.7908 404.29 63.9161 403.369 66.2387C402.448 68.5614 403.611 71.2018 405.966 72.1363Z" fill="#00C800"/>
<path d="M517.12 436.175C535.476 441.289 554.502 430.554 559.615 412.198C564.729 393.842 553.994 374.816 535.639 369.703C517.283 364.589 498.257 375.324 493.143 393.68C488.029 412.035 498.764 431.061 517.12 436.175Z" fill="#2D2D2D"/>
<path d="M513.311 395.84C518.57 397.413 523.881 394.651 525.174 389.672C526.466 384.693 523.25 379.381 517.991 377.809C512.732 376.236 507.421 378.998 506.128 383.977C504.836 388.956 508.052 394.268 513.311 395.84Z" fill="white"/>
<path d="M514.479 391.337C517.109 392.123 519.764 390.742 520.411 388.253C521.057 385.763 519.449 383.108 516.82 382.321C514.19 381.535 511.535 382.916 510.889 385.405C510.242 387.895 511.85 390.55 514.479 391.337Z" fill="#231F20"/>
<path d="M541.549 403.71C546.808 405.282 552.119 402.52 553.412 397.541C554.704 392.562 551.489 387.251 546.23 385.679C540.97 384.106 535.659 386.868 534.367 391.847C533.074 396.826 536.29 402.137 541.549 403.71Z" fill="white"/>
<path d="M542.718 399.206C545.347 399.992 548.003 398.612 548.649 396.122C549.295 393.633 547.687 390.977 545.058 390.191C542.428 389.405 539.773 390.786 539.127 393.275C538.481 395.765 540.088 398.42 542.718 399.206Z" fill="#231F20"/>
<path d="M527.882 398.026C519.374 395.505 510.912 399.435 508.982 406.802L517.887 436.181L527.883 398.026L527.882 398.026Z" fill="#C7EAFB"/>
<path d="M539.024 415.443L539.023 415.443C540.954 408.075 535.621 400.059 527.113 397.539L517.117 435.694L539.025 415.443L539.024 415.443Z" fill="#6E00FF"/>
<path d="M505.129 383.921C506.746 378.114 512.764 374.719 518.569 376.336C524.374 377.954 527.77 383.972 526.152 389.778L505.127 383.92L505.129 383.921Z" fill="#0082FF"/>
<path d="M533.359 391.793C534.977 385.986 540.995 382.592 546.8 384.209C552.605 385.826 556 391.845 554.383 397.65L533.358 391.793L533.359 391.793Z" fill="#0082FF"/>
<path d="M606.236 424.006L616.386 424.163L615.764 419.991L609.671 419.897L608.207 411.802L600.086 411.676L598.622 403.58L588.473 403.422L589.094 407.594L595.188 407.689L596.652 415.785L604.773 415.912L606.236 424.006Z" fill="#FF5A00"/>
<path d="M310.279 17.8414C315.206 17.8414 319.2 13.8475 319.2 8.92072C319.2 3.99394 315.206 0 310.279 0C305.352 0 301.358 3.99394 301.358 8.92072C301.358 13.8475 305.352 17.8414 310.279 17.8414Z" fill="#0082FF"/>
</svg>
