<svg width="307" height="479" viewBox="0 0 307 479" fill="none" xmlns="http://www.w3.org/2000/svg">
<rect width="93.2153" height="15.2799" rx="2" transform="matrix(-0.710673 0.703522 0.703522 0.710673 265.062 402.431)" fill="#FED75A"/>
<circle cx="276.085" cy="204.468" r="30.5" fill="#FA78C3"/>
<path d="M63.0439 33.4357C50.6082 29.0358 38.1725 24.6359 25.7392 20.2399C23.931 19.5993 22.1228 18.9587 20.3107 18.3206C17.5146 17.3306 16.5061 21.8399 19.2781 22.8177C31.7138 27.2177 44.1496 31.6176 56.5828 36.0136C58.3911 36.6542 60.1993 37.2948 62.0114 37.9329C64.8074 38.9229 65.816 34.4136 63.0439 33.4357Z" fill="#6E00FF"/>
<path d="M69.0017 46.8439C49.9377 40.1503 30.8752 33.4504 11.8112 26.7567C9.0847 25.7993 6.35576 24.838 3.62926 23.8806C0.902755 22.9232 -0.179234 27.4023 2.59671 28.3777C21.6607 35.0714 40.7232 41.7713 59.7872 48.4649C62.5137 49.4224 65.2426 50.3837 67.9691 51.3411C70.6956 52.2985 71.7776 47.8193 69.0017 46.8439Z" fill="#6E00FF"/>
</svg>
