<svg width="496" height="272" viewBox="0 0 496 272" fill="none" xmlns="http://www.w3.org/2000/svg">
<rect width="93.2153" height="15.2799" rx="2" transform="matrix(0.521562 0.853213 0.853213 -0.521562 318.832 65.7158)" fill="#FED75A"/>
<circle cx="18.5" cy="18.5" r="18.5" fill="#FED75A"/>
<path d="M174.178 145.829C193.483 138.711 203.364 117.291 196.246 97.9853C189.128 78.6796 167.708 68.7993 148.402 75.917C129.097 83.0347 119.216 104.455 126.334 123.761C133.452 143.066 154.872 152.947 174.178 145.829Z" fill="#2D2D2D"/>
<path d="M160.031 105.196C151.064 108.65 146.007 117.721 148.738 125.457L174.172 145.259L160.032 105.196L160.031 105.196Z" fill="#C7EAFB"/>
<path d="M180.373 113.528L180.373 113.528C177.642 105.792 168.16 102.32 159.192 105.774L173.332 145.837L180.374 113.527L180.373 113.528Z" fill="#6E00FF"/>
<path d="M138.811 96.3C144.131 94.3386 150.032 97.0392 151.982 102.328C152.227 102.992 151.894 103.707 151.226 103.953C150.558 104.2 149.841 103.871 149.596 103.207C148.127 99.2231 143.669 97.2028 139.685 98.6717C135.701 100.141 133.631 104.595 135.091 108.555C135.336 109.219 135.003 109.935 134.335 110.181C133.667 110.427 132.95 110.099 132.705 109.435C130.755 104.146 133.491 98.2615 138.811 96.3Z" fill="white"/>
<path d="M168.506 85.3469C173.826 83.3855 179.727 86.0861 181.677 91.3747C181.922 92.0388 181.589 92.7541 180.921 93.0003C180.253 93.2466 179.536 92.9184 179.291 92.2543C177.822 88.27 173.365 86.2497 169.381 87.7185C165.397 89.1874 163.326 93.6415 164.786 97.6021C165.031 98.2662 164.699 98.9814 164.031 99.2277C163.363 99.474 162.645 99.1457 162.4 98.4817C160.451 93.193 163.186 87.3083 168.506 85.3469Z" fill="white"/>
<path d="M200.819 85.9884C198.306 86.9149 196.994 89.7075 197.933 92.2562C197.006 89.7398 194.215 88.4234 191.669 89.3617C189.124 90.3001 187.844 93.0808 188.784 95.6295C191.817 103.856 202.956 105.979 202.956 105.979C202.956 105.979 210.051 97.1335 207.018 88.9067C206.091 86.3903 203.3 85.0739 200.754 86.0122L200.819 85.9884Z" fill="#FF5A00"/>
<path d="M208.085 65.0965C206.09 65.8318 205.049 68.0495 205.796 70.0739C205.059 68.0751 202.843 67.029 200.823 67.7737C198.803 68.5184 197.788 70.7267 198.534 72.7512C200.943 79.2857 209.785 80.9743 209.785 80.9743C209.785 80.9743 215.415 73.9502 213.006 67.4156C212.269 65.4168 210.053 64.3707 208.033 65.1154L208.085 65.0965Z" fill="#FF5A00"/>
<path d="M187.846 55.6551C186.171 56.2727 185.296 58.1366 185.924 59.8384C185.304 58.1581 183.443 57.2784 181.746 57.9039C180.049 58.5295 179.197 60.3855 179.824 62.0873C181.849 67.5805 189.278 69.0017 189.278 69.0017C189.278 69.0017 194.006 63.0986 191.98 57.6054C191.361 55.9251 189.5 55.0454 187.803 55.6709L187.846 55.6551Z" fill="#FF5A00"/>
<path d="M486.221 17.8992L490.727 4.85145L485.073 3.88627L482.367 11.7191L471.287 10.1768L467.68 20.6175L456.598 19.076L452.09 32.1234L457.745 33.0897L460.452 25.255L471.533 26.7965L475.141 16.3569L486.221 17.8992Z" fill="#FF5A00"/>
<path d="M115.654 179.148L125.804 179.304L125.182 175.133L119.088 175.038L117.625 166.943L109.504 166.817L108.04 158.722L97.8905 158.564L98.5119 162.736L104.606 162.831L106.07 170.926L114.191 171.053L115.654 179.148Z" fill="#FF5A00"/>
<path d="M264.259 271.838C269.185 271.838 273.179 267.9 273.179 263.043C273.179 258.186 269.185 254.248 264.259 254.248C259.332 254.248 255.338 258.186 255.338 263.043C255.338 267.9 259.332 271.838 264.259 271.838Z" fill="#00C800"/>
</svg>
