<svg width="174" height="183" viewBox="0 0 174 183" fill="none" xmlns="http://www.w3.org/2000/svg">
<g clip-path="url(#clip0_2_9355)">
<rect width="174" height="183" rx="4" fill="#FFA800"/>
<path d="M124.018 106.394C111.425 107.729 102.299 119.019 103.633 131.612C104.968 144.205 116.259 153.331 128.852 151.997L124.018 106.394V106.394Z" fill="#231F20"/>
<path d="M107.922 85.0426C115.478 84.2416 122.252 89.7174 123.053 97.2736L109.372 98.7236L107.922 85.0426Z" fill="#231F20"/>
<path d="M128.85 151.997C121.294 152.798 114.52 147.322 113.719 139.766L127.4 138.316L128.85 151.997Z" fill="#6E00FF"/>
<path d="M113.722 139.765L127.402 138.315L123.052 97.2726L109.372 98.7225L113.722 139.765Z" fill="#231F20"/>
<path d="M73.9744 102.288L71.9023 99.1274L65.5779 103.274L67.6499 106.434L73.9744 102.288Z" fill="#E2F4FD"/>
<path d="M88.0526 164.485H83.9369L79.2061 133.735C79.1351 133.274 78.7033 132.957 78.2418 133.028C77.7803 133.099 77.4638 133.531 77.5347 133.992L82.2261 164.486H73.5294C73.0624 164.486 72.6836 164.865 72.6836 165.332C72.6836 165.799 73.0624 166.178 73.5294 166.178H83.2083C83.2083 166.178 83.2101 166.178 83.2108 166.178C83.212 166.178 83.2126 166.178 83.2138 166.178H88.0533C88.5203 166.178 88.8991 165.799 88.8991 165.332C88.8991 164.865 88.5203 164.486 88.0533 164.486L88.0526 164.485Z" fill="#2D2D2D"/>
<path d="M83.0332 164.774C81.4012 160.916 76.9509 159.112 73.0933 160.744" stroke="#2D2D2D" stroke-width="2.07467" stroke-linecap="round"/>
<path d="M87.5998 160.323C85.4176 160.229 83.5726 161.922 83.4791 164.105" stroke="#2D2D2D" stroke-width="1.67569" stroke-linecap="round"/>
<path d="M108.753 164.53L100.056 164.475L104.939 134.012C105.013 133.551 104.7 133.117 104.238 133.043C103.777 132.969 103.344 133.283 103.27 133.744L98.3454 164.464L94.2298 164.438C93.7627 164.435 93.3816 164.811 93.3786 165.278C93.3757 165.745 93.7521 166.127 94.2191 166.13L99.0585 166.16C99.0585 166.16 99.0603 166.16 99.0615 166.16C99.0622 166.16 99.0634 166.16 99.064 166.16L108.743 166.221C109.21 166.224 109.591 165.848 109.594 165.381C109.597 164.914 109.22 164.532 108.753 164.529L108.753 164.53Z" fill="#2D2D2D"/>
<path d="M73.9727 85.4265C65.6042 84.5393 58.1012 90.6041 57.214 98.9732L72.3667 100.579L73.9727 85.4265Z" fill="#231F20"/>
<path d="M70.0664 122.278L54.9141 120.672L57.214 98.9718L72.3663 100.578L70.0664 122.278Z" fill="#231F20"/>
<path d="M114.113 82.5967H66.8359V106.235H114.113V82.5967Z" fill="#2D2D2D"/>
<path d="M114.113 106.235H66.8359V129.874H114.113V106.235Z" fill="#2D2D2D"/>
<path d="M90.4624 106.235C103.517 106.235 114.101 95.6516 114.101 82.5966C114.101 69.5417 103.517 58.9585 90.4624 58.9585C77.4074 58.9585 66.8242 69.5417 66.8242 82.5966C66.8242 95.6516 77.4074 106.235 90.4624 106.235Z" fill="#2D2D2D"/>
<path d="M90.4741 153.512C103.529 153.512 114.112 142.928 114.112 129.874C114.112 116.819 103.529 106.235 90.4741 106.235C77.4191 106.235 66.8359 116.819 66.8359 129.874C66.8359 142.928 77.4191 153.512 90.4741 153.512Z" fill="#2D2D2D"/>
<path d="M80.4187 80.5341C84.0629 80.5341 87.017 77.5799 87.017 73.9358C87.017 70.2916 84.0629 67.3374 80.4187 67.3374C76.7745 67.3374 73.8203 70.2916 73.8203 73.9358C73.8203 77.5799 76.7745 80.5341 80.4187 80.5341Z" fill="white"/>
<path d="M80.4206 78.7884C82.2428 78.7884 83.7201 77.3112 83.7201 75.4889C83.7201 73.6667 82.2428 72.1895 80.4206 72.1895C78.5983 72.1895 77.1211 73.6667 77.1211 75.4889C77.1211 77.3112 78.5983 78.7884 80.4206 78.7884Z" fill="#231F20"/>
<path d="M78.1728 75.0537C79.608 75.0537 80.7715 73.8903 80.7715 72.4551C80.7715 71.0199 79.608 69.8564 78.1728 69.8564C76.7377 69.8564 75.5742 71.0199 75.5742 72.4551C75.5742 73.8903 76.7377 75.0537 78.1728 75.0537Z" fill="white"/>
<path d="M77.4383 95.7135C82.7804 95.7135 87.111 91.3829 87.111 86.0408C87.111 80.6988 82.7804 76.3682 77.4383 76.3682C72.0962 76.3682 67.7656 80.6988 67.7656 86.0408C67.7656 91.3829 72.0962 95.7135 77.4383 95.7135Z" fill="#2D2D2D"/>
<path d="M100.52 80.5341C104.164 80.5341 107.119 77.5799 107.119 73.9358C107.119 70.2916 104.164 67.3374 100.52 67.3374C96.8761 67.3374 93.9219 70.2916 93.9219 73.9358C93.9219 77.5799 96.8761 80.5341 100.52 80.5341Z" fill="white"/>
<path d="M100.522 78.7884C102.344 78.7884 103.822 77.3112 103.822 75.4889C103.822 73.6667 102.344 72.1895 100.522 72.1895C98.6999 72.1895 97.2227 73.6667 97.2227 75.4889C97.2227 77.3112 98.6999 78.7884 100.522 78.7884Z" fill="#231F20"/>
<path d="M98.2744 75.0537C99.7096 75.0537 100.873 73.8903 100.873 72.4551C100.873 71.0199 99.7096 69.8564 98.2744 69.8564C96.8392 69.8564 95.6758 71.0199 95.6758 72.4551C95.6758 73.8903 96.8392 75.0537 98.2744 75.0537Z" fill="white"/>
<path d="M103.513 95.7135C108.855 95.7135 113.185 91.3829 113.185 86.0408C113.185 80.6988 108.855 76.3682 103.513 76.3682C98.1704 76.3682 93.8398 80.6988 93.8398 86.0408C93.8398 91.3829 98.1704 95.7135 103.513 95.7135Z" fill="#2D2D2D"/>
<path d="M90.626 75.9351C85.4543 75.9351 81.2617 79.8052 81.2617 84.5789L90.6265 100.659V75.9351H90.626Z" fill="#C7EAFB"/>
<path d="M99.9892 84.5789C99.9892 79.8052 95.7967 75.9351 90.625 75.9351V100.659L99.9898 84.5789H99.9892Z" fill="#6E00FF"/>
<rect x="74.3008" y="63.8765" width="12.9549" height="2.29828" rx="1.14914" fill="#B3B3B3"/>
<rect x="98.3086" y="64.2764" width="12.9549" height="2.29828" rx="1.14914" transform="rotate(25.817 98.3086 64.2764)" fill="#B3B3B3"/>
<path d="M103.719 83.8441C97.8213 83.8441 92.7839 79.7959 91.7424 74.2189C91.6317 73.6284 91.1029 73.1998 90.484 73.1998C89.8651 73.1998 89.3355 73.6284 89.2256 74.2189C88.1833 79.7959 83.1467 83.8441 77.2485 83.8441C74.0006 83.8441 70.9453 82.6255 68.6454 80.4126C66.3454 78.1997 65.0781 75.2601 65.0781 72.1352C65.0781 65.6789 70.5374 60.4263 77.2477 60.4263H103.719C110.43 60.4263 115.889 65.6789 115.889 72.1352C115.889 75.2601 114.623 78.1997 112.323 80.4126C110.023 82.6255 106.967 83.8441 103.719 83.8441Z" fill="#D4D4D4" fill-opacity="0.3"/>
<path d="M103.719 83.8441C97.8213 83.8441 92.7839 79.7959 91.7424 74.2189C91.6317 73.6284 91.1029 73.1998 90.484 73.1998C89.8651 73.1998 89.3355 73.6284 89.2256 74.2189C88.1833 79.7959 83.1467 83.8441 77.2485 83.8441C74.0006 83.8441 70.9453 82.6255 68.6454 80.4126C66.3454 78.1997 65.0781 75.2601 65.0781 72.1352C65.0781 65.6789 70.5374 60.4263 77.2477 60.4263H103.719C110.43 60.4263 115.889 65.6789 115.889 72.1352C115.889 75.2601 114.623 78.1997 112.323 80.4126C110.023 82.6255 106.967 83.8441 103.719 83.8441ZM90.4832 71.0706C92.1746 71.0706 93.6197 72.2367 93.9199 73.8428C94.7719 78.4041 98.8931 81.715 103.719 81.715C106.376 81.715 108.875 80.7178 110.757 78.9073C112.64 77.0968 113.675 74.6916 113.675 72.1352C113.675 66.8528 109.209 62.5554 103.719 62.5554H77.2477C71.7575 62.5554 67.291 66.8528 67.291 72.1352C67.291 74.6916 68.3274 77.0961 70.2092 78.9073C72.0909 80.7185 74.5907 81.715 77.2477 81.715C82.0734 81.715 86.1946 78.4041 87.0466 73.8428C87.3468 72.2367 88.7918 71.0706 90.4832 71.0706Z" fill="#FFCC01"/>
<path d="M186.166 166.178H-0.84375V183H186.166V166.178Z" fill="#D38C02"/>
<path d="M22.8956 110.901H9.36328V112.405H22.8956V110.901Z" fill="#AFA2FB"/>
<path d="M32.4836 117.668H9.92969V120.299H32.4836V117.668Z" fill="#0A6FCB"/>
<path d="M32.4836 117.668H9.92969V115.058H21.4692L22.2515 109.489L29.1823 106.579L32.4836 117.668Z" fill="#AFA2FB"/>
<path d="M18.3642 82.1503L14.6914 81.0923L13.7181 84.4711L17.3909 85.5292L18.3642 82.1503Z" fill="#0A6FCB"/>
<path d="M19.5909 84.6604L12.332 82.5693L8.5573 95.6729L15.8162 97.764L19.5909 84.6604Z" fill="#AFA2FB"/>
<path d="M17.5387 94.926C19.2514 94.926 20.6398 93.5375 20.6398 91.8248C20.6398 90.1121 19.2514 88.7236 17.5387 88.7236C15.8259 88.7236 14.4375 90.1121 14.4375 91.8248C14.4375 93.5375 15.8259 94.926 17.5387 94.926Z" fill="#0A6FCB"/>
<path d="M22.0424 110.714V108.526C26.5876 108.526 30.2856 104.997 30.2856 100.658C30.2856 96.3197 26.5876 92.7905 22.0424 92.7905H15V90.603H22.0424C24.8222 90.603 27.4379 91.6438 29.4073 93.5333C31.3882 95.4342 32.4793 97.9642 32.4793 100.658C32.4793 103.352 31.3882 105.882 29.4073 107.783C27.4379 109.673 24.8222 110.714 22.0424 110.714Z" fill="#0A6FCB"/>
<path d="M169.059 120.299H165.488V166.158H169.059V120.299Z" fill="#C37A05"/>
<path d="M8.55541 120.299H4.98438V166.158H8.55541V120.299Z" fill="#C37A05"/>
<path d="M162.853 103.65V97.4907L163.663 95.6777H156.434L157.041 97.4907V103.65C154.385 104.791 152.523 107.451 152.523 110.549C152.523 114.688 155.847 118.044 159.947 118.044C164.048 118.044 167.371 114.688 167.371 110.549C167.371 107.451 165.509 104.792 162.853 103.65H162.853Z" fill="#E2F4FD"/>
<path d="M159.856 86.0924L166.434 77.2588H153.277L159.856 86.0924Z" fill="#E2F4FD"/>
<path d="M163.235 81.3936H156.281L158.833 84.8513V88.5356L160.684 86.8119V84.8513L163.235 81.3936Z" fill="#8CEB4D"/>
<path d="M174.137 120.299H-0.84375V127.253H174.137V120.299Z" fill="#FFC24C"/>
<path d="M167.371 110.525C167.371 114.677 164.048 118.043 159.947 118.043C155.847 118.043 152.523 114.677 152.523 110.525H167.371H167.371Z" fill="#8CEB4D"/>
<path d="M170.375 117.855H147.445V120.111H170.375V117.855Z" fill="#5FBCFF"/>
<path d="M147.445 79.3262V119.547H148.573L148.573 79.3262H147.445Z" fill="#5FBCFF"/>
<path d="M170.001 84.2124H143.312V85.3401H170.001V84.2124Z" fill="#5FBCFF"/>
<path d="M148.009 87.0319C149.151 87.0319 150.076 86.1062 150.076 84.9644C150.076 83.8226 149.151 82.897 148.009 82.897C146.867 82.897 145.941 83.8226 145.941 84.9644C145.941 86.1062 146.867 87.0319 148.009 87.0319Z" fill="#0A6FCB"/>
<path d="M161.006 90.6976L159.953 88.9292V88.9116L159.948 88.9204L159.943 88.9129V88.9275L158.891 90.6958C158.672 91.0639 158.672 91.5178 158.891 91.8859C159.108 92.2513 159.509 92.4774 159.943 92.4809V92.4827C160.382 92.4827 160.787 92.2557 161.006 91.8876C161.225 91.5195 161.225 91.0657 161.006 90.6976H161.006Z" fill="#8CEB4D"/>
<path d="M155.249 111.841C156.028 111.841 156.659 111.168 156.659 110.338C156.659 109.507 156.028 108.834 155.249 108.834C154.471 108.834 153.84 109.507 153.84 110.338C153.84 111.168 154.471 111.841 155.249 111.841Z" fill="#9CD9F8"/>
<path d="M157.506 108.646C157.973 108.646 158.352 108.225 158.352 107.706C158.352 107.187 157.973 106.767 157.506 106.767C157.039 106.767 156.66 107.187 156.66 107.706C156.66 108.225 157.039 108.646 157.506 108.646Z" fill="#9CD9F8"/>
<path d="M100.225 122.858L96.3647 116.238V111.966L96.8026 110.432H91.9917L92.4296 111.966V116.238L88.5694 122.858C88.0391 123.767 88.7021 124.904 89.7623 124.904H99.032C100.093 124.904 100.755 123.767 100.225 122.858Z" fill="#E2F4FD"/>
<path fill-rule="evenodd" clip-rule="evenodd" d="M95.5708 114.658H93.207V116.586H93.2297L89.542 122.547C89.1007 123.26 89.6525 124.152 90.5348 124.152H98.2494C99.1321 124.152 99.6835 123.261 99.2421 122.547L95.5545 116.586H95.5708V114.658Z" fill="#F45A7F"/>
<path d="M99.5499 165.374C101.151 161.503 105.587 159.663 109.457 161.265" stroke="#2D2D2D" stroke-width="2.07467" stroke-linecap="round"/>
<path d="M94.9524 160.959C97.1339 160.848 98.9922 162.526 99.1032 164.708" stroke="#2D2D2D" stroke-width="1.67569" stroke-linecap="round"/>
<path d="M86.0831 108.295L75.0242 108.874C74.018 108.927 73.4561 110.054 74.0127 110.903L78.879 118.325C79.4358 119.174 80.6932 119.108 81.1429 118.206L86.0831 108.295Z" fill="#E2F4FD"/>
<path d="M88.9783 108.765L86.9062 105.605L80.5818 109.752L82.6538 112.912L88.9783 108.765Z" fill="#E2F4FD"/>
<path d="M54.9141 121.436C55.7398 113.647 62.7235 108.002 70.5126 108.827C78.3017 109.653 83.9468 116.637 83.1214 124.426L54.9144 121.436L54.9141 121.436Z" fill="#231F20"/>
<g opacity="0.4">
<path d="M90.6484 107.8C92.3592 107.8 93.7461 106.413 93.7461 104.702C93.7461 102.991 92.3592 101.604 90.6484 101.604C88.9376 101.604 87.5508 102.991 87.5508 104.702C87.5508 106.413 88.9376 107.8 90.6484 107.8Z" fill="#FF3464" fill-opacity="0.5"/>
<path d="M91.3695 103.582C92.6588 103.582 93.7039 102.537 93.7039 101.247C93.7039 99.9582 92.6588 98.9131 91.3695 98.9131C90.0803 98.9131 89.0352 99.9582 89.0352 101.247C89.0352 102.537 90.0803 103.582 91.3695 103.582Z" fill="#FF3464" fill-opacity="0.5"/>
<path d="M94.2562 102.015C95.5455 102.015 96.5906 100.97 96.5906 99.681C96.5906 98.3918 95.5455 97.3467 94.2562 97.3467C92.967 97.3467 91.9219 98.3918 91.9219 99.681C91.9219 100.97 92.967 102.015 94.2562 102.015Z" fill="#FF3464" fill-opacity="0.5"/>
<path d="M98.1547 104.35C99.4439 104.35 100.489 103.305 100.489 102.016C100.489 100.726 99.4439 99.6812 98.1547 99.6812C96.8654 99.6812 95.8203 100.726 95.8203 102.016C95.8203 103.305 96.8654 104.35 98.1547 104.35Z" fill="#FF3464" fill-opacity="0.5"/>
<path d="M93.7461 107.8C95.4569 107.8 96.8438 106.413 96.8438 104.702C96.8438 102.991 95.4569 101.604 93.7461 101.604C92.0353 101.604 90.6484 102.991 90.6484 104.702C90.6484 106.413 92.0353 107.8 93.7461 107.8Z" fill="#FF3464" fill-opacity="0.5"/>
<path d="M94.3415 109.638C95.0427 109.247 95.2941 108.362 94.9032 107.66C94.5122 106.959 93.6269 106.708 92.9258 107.099C92.2246 107.49 91.9732 108.375 92.3641 109.076C92.7551 109.777 93.6404 110.029 94.3415 109.638Z" fill="#FF3464" fill-opacity="0.5"/>
<path d="M95.8203 104.251C97.5311 104.251 98.918 102.865 98.918 101.154C98.918 99.443 97.5311 98.0562 95.8203 98.0562C94.1095 98.0562 92.7227 99.443 92.7227 101.154C92.7227 102.865 94.1095 104.251 95.8203 104.251Z" fill="#FF3464" fill-opacity="0.5"/>
<path d="M97.3945 102.016C99.1053 102.016 100.492 100.629 100.492 98.918C100.492 97.2072 99.1053 95.8203 97.3945 95.8203C95.6837 95.8203 94.2969 97.2072 94.2969 98.918C94.2969 100.629 95.6837 102.016 97.3945 102.016Z" fill="#FF3464" fill-opacity="0.5"/>
<path d="M97.6094 107.8C99.3202 107.8 100.707 106.413 100.707 104.702C100.707 102.991 99.3202 101.604 97.6094 101.604C95.8986 101.604 94.5117 102.991 94.5117 104.702C94.5117 106.413 95.8986 107.8 97.6094 107.8Z" fill="#FF3464" fill-opacity="0.5"/>
<path d="M96.3884 109.13C97.0895 108.74 97.341 107.854 96.95 107.153C96.5591 106.452 95.6738 106.2 94.9726 106.591C94.2715 106.982 94.0201 107.868 94.411 108.569C94.802 109.27 95.6873 109.521 96.3884 109.13Z" fill="#FF3464" fill-opacity="0.5"/>
<path d="M95.9704 110.546C96.6716 110.156 96.923 109.27 96.5321 108.569C96.1411 107.868 95.2558 107.616 94.5547 108.007C93.8535 108.398 93.6021 109.284 93.993 109.985C94.384 110.686 95.2693 110.937 95.9704 110.546Z" fill="#FF3464" fill-opacity="0.5"/>
<path d="M95.322 111.359C96.0231 110.969 96.2746 110.083 95.8836 109.382C95.4927 108.681 94.6074 108.429 93.9062 108.82C93.2051 109.211 92.9536 110.097 93.3446 110.798C93.7356 111.499 94.6209 111.75 95.322 111.359Z" fill="#FF3464" fill-opacity="0.5"/>
<path d="M99.6875 104.251C101.398 104.251 102.785 102.865 102.785 101.154C102.785 99.443 101.398 98.0562 99.6875 98.0562C97.9767 98.0562 96.5898 99.443 96.5898 101.154C96.5898 102.865 97.9767 104.251 99.6875 104.251Z" fill="#FF3464" fill-opacity="0.5"/>
</g>
<path d="M102.925 110.909L100.757 108.535L101.522 107.332L101.124 106.582L107.783 105.75L103.244 107.93L111.029 114.275L102.613 108.921L102.925 110.909Z" fill="#D5B150"/>
<path d="M83.524 103.299L86.7234 102.987L86.9601 101.582L87.7583 101.291L83.3687 96.2147L85.2811 100.874L75.2504 100.375L85.0861 102.032L83.524 103.299Z" fill="#D5B150"/>
</g>
<defs>
<clipPath id="clip0_2_9355">
<rect width="174" height="183" rx="4" fill="white"/>
</clipPath>
</defs>
</svg>
