<svg width="174" height="183" viewBox="0 0 174 183" fill="none" xmlns="http://www.w3.org/2000/svg">
<g clip-path="url(#clip0_2_9062)">
<rect width="174" height="183" rx="4" fill="#A0FF00"/>
<path d="M124.977 41.0227L126.321 38.1809L125.065 37.8223L124.258 39.5282L121.788 38.9043L120.713 41.1782L118.243 40.5544L116.899 43.396L118.155 43.755L118.962 42.0487L121.432 42.6724L122.507 40.3988L124.977 41.0227Z" fill="#00C800"/>
<path d="M66.3084 87.9645C58.53 98.9678 43.3045 101.583 32.3013 93.8041C21.298 86.0256 18.6832 70.8001 26.4617 59.7969L66.3084 87.9645Z" fill="#231F20"/>
<path d="M26.4597 59.7969C21.7929 66.3989 23.3616 75.534 29.9637 80.2008L38.4136 68.2469L26.4597 59.7969Z" fill="#231F20"/>
<path d="M65.8265 105.545L74.2773 93.5918L38.4173 68.239L29.9665 80.1922L65.8265 105.545Z" fill="#231F20"/>
<path d="M39.2145 85.3022C34.8619 92.1159 36.8568 101.167 43.6698 105.52L51.5509 93.1834L39.2145 85.3022Z" fill="#231F20"/>
<path d="M47.1832 91.4482C42.8306 98.2619 44.8255 107.313 51.6385 111.666L59.5197 99.3294L47.1832 91.4482Z" fill="#6E00FF"/>
<path d="M54.9879 95.9873C50.6353 102.801 52.6302 111.852 59.4432 116.205L67.3244 103.868L54.9879 95.9873Z" fill="#231F20"/>
<path d="M63.0309 102.078C58.6783 108.892 60.6732 117.943 67.4862 122.296L75.3673 109.959L63.0309 102.078Z" fill="#6E00FF"/>
<path d="M64.5159 74.2377C56.1752 86.0362 39.8493 88.8399 28.0508 80.4992C16.2523 72.1586 13.4486 55.8327 21.7892 44.0342L64.5159 74.2377Z" fill="#231F20"/>
<path d="M21.7906 44.0342C16.7864 51.1134 18.4685 60.9087 25.5478 65.9128L34.6085 53.0949L21.7906 44.0342Z" fill="#231F20"/>
<path d="M64.0048 93.0886L73.0664 80.2715L34.6145 53.0863L25.5529 65.9034L64.0048 93.0886Z" fill="#231F20"/>
<path d="M35.4669 71.3833C30.7998 78.6894 32.9388 88.395 40.2442 93.0622L48.695 79.8341L35.4669 71.3833Z" fill="#231F20"/>
<path d="M44.0138 77.9731C39.3466 85.2792 41.4857 94.9848 48.7911 99.652L57.2419 86.4239L44.0138 77.9731Z" fill="#C7EAFB"/>
<path d="M52.381 82.8398C47.7138 90.1459 49.8529 99.8515 57.1583 104.519L65.6091 91.2906L52.381 82.8398Z" fill="#231F20"/>
<path d="M61.006 89.3711C56.3388 96.6772 58.4779 106.383 65.7833 111.05L74.2341 97.8219L61.006 89.3711Z" fill="#C7EAFB"/>
<path d="M59.4316 75.8762C59.4215 76.2248 59.1574 76.5133 58.8111 76.5541L52.9204 77.248C52.4507 77.3033 52.0536 76.9034 52.1123 76.4341L52.3168 74.7979C52.3685 74.3849 52.755 74.099 53.165 74.1706L58.8498 75.1633C59.1939 75.2234 59.4417 75.5271 59.4316 75.8762V75.8762Z" fill="#FFE500"/>
<path d="M64.8876 71.3852C64.6734 71.6171 64.3269 71.6693 64.0539 71.5108L55.6069 66.6099C55.167 66.3547 55.1174 65.7387 55.5107 65.4163L56.9018 64.2762C57.1774 64.0504 57.5758 64.0569 57.8438 64.2918L64.8368 70.4204C65.1221 70.6704 65.1451 71.1066 64.8876 71.3852V71.3852Z" fill="#FFE500"/>
<path d="M63.9305 78.1838C64.1878 78.4517 64.2036 78.8717 63.9655 79.1568L61.3649 82.2707C61.0731 82.6201 60.5359 82.6192 60.2451 82.269L59.2631 81.0858C58.9694 80.732 59.0729 80.1979 59.4776 79.9795L63.058 78.0464C63.3461 77.8909 63.7036 77.9477 63.9305 78.1838V78.1838Z" fill="#FFE500"/>
<path d="M14.8883 99.1911L11.2266 98.1362L10.2562 101.505L13.9179 102.56L14.8883 99.1911Z" fill="#0A6FCB"/>
<path d="M57.5032 41.4512L58.5293 38.4801L57.2419 38.2603L56.6256 40.044L54.1025 39.6928L53.2811 42.0702L50.7578 41.7192L49.7312 44.6903L51.0188 44.9103L51.6353 43.1262L54.1586 43.4773L54.9801 41.1L57.5032 41.4512Z" fill="#FF5A00"/>
<path d="M32.7277 39.5965C34.2535 39.5965 35.4905 38.3595 35.4905 36.8336C35.4905 35.3078 34.2535 34.0708 32.7277 34.0708C31.2019 34.0708 29.9648 35.3078 29.9648 36.8336C29.9648 38.3595 31.2019 39.5965 32.7277 39.5965Z" fill="#0082FF"/>
<path d="M88.6705 166.208H84.5682L79.8528 135.558C79.7821 135.098 79.3516 134.782 78.8916 134.853C78.4316 134.924 78.1162 135.354 78.1869 135.814L82.8629 166.209H74.1947C73.7291 166.209 73.3516 166.586 73.3516 167.052C73.3516 167.517 73.7291 167.895 74.1947 167.895H83.8419C83.8419 167.895 83.8438 167.895 83.8444 167.895C83.8456 167.895 83.8462 167.895 83.8475 167.895H88.6711C89.1366 167.895 89.5142 167.517 89.5142 167.052C89.5142 166.586 89.1366 166.209 88.6711 166.209L88.6705 166.208Z" fill="#2D2D2D"/>
<path d="M120.41 151.114L115.52 158.271L93.0636 137.261C92.7237 136.943 92.1903 136.961 91.8724 137.301C91.5545 137.641 91.5721 138.174 91.912 138.492L114.557 159.679L112.242 163.066C111.98 163.45 112.078 163.975 112.463 164.237C112.847 164.5 113.372 164.401 113.635 164.017L116.356 160.034C116.356 160.034 116.357 160.033 116.358 160.032C116.358 160.031 116.359 160.03 116.359 160.03L121.802 152.065C122.065 151.68 121.966 151.156 121.582 150.893C121.198 150.63 120.673 150.729 120.41 151.113L120.41 151.114Z" fill="#2D2D2D"/>
<path d="M115.766 87.9762C123.544 98.9795 138.77 101.594 149.773 93.8158C160.776 86.0373 163.391 70.8118 155.612 59.8086L115.766 87.9762Z" fill="#231F20"/>
<path d="M104.292 114.013C99.6249 107.411 101.194 98.2757 107.796 93.6089L116.246 105.563L104.292 114.013Z" fill="#231F20"/>
<path d="M155.614 59.8086C160.281 66.4107 158.712 75.5457 152.11 80.2125L143.66 68.2586L155.614 59.8086Z" fill="#231F20"/>
<path d="M152.119 80.212L143.668 68.2588L107.808 93.6116L116.259 105.565L152.119 80.212Z" fill="#231F20"/>
<path d="M142.852 85.3149C147.205 92.1286 145.21 101.18 138.397 105.533L130.516 93.1961L142.852 85.3149Z" fill="#231F20"/>
<path d="M134.876 91.4604C139.228 98.2741 137.233 107.325 130.42 111.678L122.539 99.3416L134.876 91.4604Z" fill="#6E00FF"/>
<path d="M127.075 95.9995C131.427 102.813 129.432 111.865 122.619 116.217L114.738 103.881L127.075 95.9995Z" fill="#231F20"/>
<path d="M119.032 102.089C123.384 108.903 121.389 117.954 114.576 122.307L106.695 109.971L119.032 102.089Z" fill="#6E00FF"/>
<path d="M77.7743 114.001C82.4411 107.399 80.8724 98.264 74.2703 93.5972L65.8203 105.551L77.7743 114.001Z" fill="#231F20"/>
<path d="M117.551 74.2503C125.891 86.0489 142.217 88.8526 154.016 80.5119C165.814 72.1713 168.618 55.8454 160.277 44.0469L117.551 74.2503Z" fill="#231F20"/>
<path d="M105.248 102.169C100.243 95.0899 101.926 85.2947 109.005 80.2905L118.066 93.1085L105.248 102.169Z" fill="#231F20"/>
<path d="M160.271 44.0469C165.275 51.1261 163.593 60.9214 156.514 65.9255L147.453 53.1076L160.271 44.0469Z" fill="#231F20"/>
<path d="M156.53 65.9245L147.469 53.1074L109.017 80.2926L118.078 93.1097L156.53 65.9245Z" fill="#231F20"/>
<path d="M146.599 71.3965C151.266 78.7026 149.127 88.4081 141.822 93.0753L133.371 79.8473L146.599 71.3965Z" fill="#231F20"/>
<path d="M138.041 77.9863C142.708 85.2924 140.569 94.998 133.263 99.6652L124.812 86.4371L138.041 77.9863Z" fill="#C7EAFB"/>
<path d="M129.685 82.853C134.352 90.1591 132.213 99.8647 124.908 104.532L116.457 91.3038L129.685 82.853Z" fill="#231F20"/>
<path d="M121.056 89.3833C125.723 96.6894 123.584 106.395 116.279 111.062L107.828 97.8341L121.056 89.3833Z" fill="#C7EAFB"/>
<path d="M76.8179 102.156C81.8221 95.0767 80.1399 85.2815 73.0607 80.2773L64 93.0953L76.8179 102.156Z" fill="#231F20"/>
<path d="M114.658 84.5874H67.5352V108.148H114.658V84.5874Z" fill="#2D2D2D"/>
<path d="M114.658 108.148H67.5352V131.71H114.658V108.148Z" fill="#2D2D2D"/>
<path d="M91.0884 108.149C104.101 108.149 114.65 97.6004 114.65 84.5879C114.65 71.5755 104.101 61.0269 91.0884 61.0269C78.076 61.0269 67.5273 71.5755 67.5273 84.5879C67.5273 97.6004 78.076 108.149 91.0884 108.149Z" fill="#2D2D2D"/>
<path d="M91.0962 155.271C104.109 155.271 114.657 144.722 114.657 131.71C114.657 118.697 104.109 108.148 91.0962 108.148C78.0838 108.148 67.5352 118.697 67.5352 131.71C67.5352 144.722 78.0838 155.271 91.0962 155.271Z" fill="#2D2D2D"/>
<path d="M81.0734 82.5325C84.7059 82.5325 87.6506 79.5877 87.6506 75.9552C87.6506 72.3227 84.7059 69.3779 81.0734 69.3779C77.4408 69.3779 74.4961 72.3227 74.4961 75.9552C74.4961 79.5877 77.4408 82.5325 81.0734 82.5325Z" fill="white"/>
<path d="M81.0781 79.2441C82.8946 79.2441 84.3671 77.7715 84.3671 75.955C84.3671 74.1386 82.8946 72.666 81.0781 72.666C79.2616 72.666 77.7891 74.1386 77.7891 75.955C77.7891 77.7715 79.2616 79.2441 81.0781 79.2441Z" fill="#231F20"/>
<path d="M78.833 75.5224C80.2639 75.5224 81.4238 74.3625 81.4238 72.9316C81.4238 71.5008 80.2639 70.3408 78.833 70.3408C77.4021 70.3408 76.2422 71.5008 76.2422 72.9316C76.2422 74.3625 77.4021 75.5224 78.833 75.5224Z" fill="white"/>
<path d="M78.0943 97.6617C83.4189 97.6617 87.7354 93.3452 87.7354 88.0205C87.7354 82.6959 83.4189 78.3794 78.0943 78.3794C72.7696 78.3794 68.4531 82.6959 68.4531 88.0205C68.4531 93.3452 72.7696 97.6617 78.0943 97.6617Z" fill="#2D2D2D"/>
<path d="M101.101 82.5329C104.733 82.5329 107.678 79.5882 107.678 75.9557C107.678 72.3232 104.733 69.3784 101.101 69.3784C97.4682 69.3784 94.5234 72.3232 94.5234 75.9557C94.5234 79.5882 97.4682 82.5329 101.101 82.5329Z" fill="white"/>
<path d="M101.105 79.2446C102.922 79.2446 104.394 77.772 104.394 75.9555C104.394 74.1391 102.922 72.6665 101.105 72.6665C99.289 72.6665 97.8164 74.1391 97.8164 75.9555C97.8164 77.772 99.289 79.2446 101.105 79.2446Z" fill="#231F20"/>
<path d="M98.8642 75.5229C100.295 75.5229 101.455 74.363 101.455 72.9321C101.455 71.5013 100.295 70.3413 98.8642 70.3413C97.4334 70.3413 96.2734 71.5013 96.2734 72.9321C96.2734 74.363 97.4334 75.5229 98.8642 75.5229Z" fill="white"/>
<path d="M104.083 97.6617C109.407 97.6617 113.724 93.3452 113.724 88.0205C113.724 82.6959 109.407 78.3794 104.083 78.3794C98.7579 78.3794 94.4414 82.6959 94.4414 88.0205C94.4414 93.3452 98.7579 97.6617 104.083 97.6617Z" fill="#2D2D2D"/>
<path fill-rule="evenodd" clip-rule="evenodd" d="M128.075 89.4626C131.109 89.4626 133.568 87.0031 133.568 83.9692C133.568 80.9353 131.109 78.4759 128.075 78.4759C127.937 78.4759 127.801 78.4809 127.667 78.4908C130.294 78.8841 132.309 81.1507 132.309 83.8879C132.309 86.8735 129.912 89.2992 126.937 89.3447C127.304 89.422 127.685 89.4626 128.075 89.4626ZM128.075 91.4619C132.213 91.4619 135.567 88.1073 135.567 83.9692C135.567 79.8312 132.213 76.4766 128.075 76.4766C123.937 76.4766 120.582 79.8312 120.582 83.9692C120.582 85.3725 120.968 86.6857 121.639 87.8085H110.519V88.274H105.137V89.2364H110.519V89.2365H105.137V90.1989H110.519V91.4609H127.44V91.4354C127.649 91.453 127.861 91.4619 128.075 91.4619ZM122.057 89.6347H123.171L123.171 89.6348H122.057V89.6347ZM126.883 87.3458C128.779 87.3291 130.31 85.7873 130.31 83.8879C130.31 82.0266 128.84 80.5088 126.997 80.4327C128.37 80.9692 129.343 82.3051 129.343 83.8681C129.343 85.474 128.316 86.8402 126.883 87.3458ZM127.343 83.8681C127.343 84.8002 126.588 85.5558 125.656 85.5558C124.724 85.5558 123.968 84.8002 123.968 83.8681C123.968 82.9361 124.724 82.1805 125.656 82.1805C126.588 82.1805 127.343 82.9361 127.343 83.8681Z" fill="#FEF138"/>
<mask id="mask0_2_9062" style="mask-type:alpha" maskUnits="userSpaceOnUse" x="105" y="76" width="31" height="16">
<path fill-rule="evenodd" clip-rule="evenodd" d="M128.071 89.4626C131.105 89.4626 133.564 87.0031 133.564 83.9692C133.564 80.9353 131.105 78.4759 128.071 78.4759C127.934 78.4759 127.798 78.4809 127.663 78.4908C130.291 78.8843 132.306 81.1507 132.306 83.8877C132.306 86.8736 129.908 89.2994 126.933 89.3445C127.3 89.4219 127.681 89.4626 128.071 89.4626ZM128.071 91.4619C132.209 91.4619 135.563 88.1073 135.563 83.9692C135.563 79.8312 132.209 76.4766 128.071 76.4766C123.933 76.4766 120.578 79.8312 120.578 83.9692C120.578 85.3725 120.964 86.6856 121.635 87.8083H110.52V88.274H105.133V89.2364V89.2364V90.1988H110.52V91.4608H127.44V91.4358C127.648 91.4531 127.858 91.4619 128.071 91.4619ZM122.053 89.6345H123.167L123.167 89.6346H122.053V89.6345ZM126.88 87.3457C128.775 87.3288 130.306 85.7871 130.306 83.8877C130.306 82.0263 128.836 80.5084 126.993 80.4326C128.366 80.969 129.339 82.3049 129.339 83.8681C129.339 85.4739 128.312 86.8399 126.88 87.3457ZM127.339 83.8681C127.339 84.8002 126.584 85.5558 125.652 85.5558C124.72 85.5558 123.964 84.8002 123.964 83.8681C123.964 82.9361 124.72 82.1805 125.652 82.1805C126.584 82.1805 127.339 82.9361 127.339 83.8681Z" fill="#FEF138"/>
</mask>
<g mask="url(#mask0_2_9062)">
<circle cx="105.747" cy="90.7175" r="1.34833" fill="#FF7EF2"/>
<circle cx="108.044" cy="87.3503" r="1.34833" fill="#FF7EF2"/>
<circle cx="112.376" cy="91.2302" r="1.34833" fill="#FF7EF2"/>
<circle cx="118.055" cy="91.2302" r="1.34833" fill="#FF7EF2"/>
<circle cx="114.657" cy="87.4782" r="1.34833" fill="#FF7EF2"/>
<circle cx="121.337" cy="88.2599" r="1.34833" fill="#FF7EF2"/>
<circle cx="123.466" cy="90.0461" r="1.34833" fill="#FF7EF2"/>
<circle cx="126.743" cy="88.5344" r="1.34833" fill="#FF7EF2"/>
<circle cx="124.876" cy="78.3806" r="1.34833" fill="#FF7EF2"/>
<circle cx="121.649" cy="83.028" r="0.941602" fill="#FF7EF2"/>
<circle cx="123.629" cy="86.2448" r="0.941602" fill="#FF7EF2"/>
<circle cx="127.684" cy="82.2365" r="0.941602" fill="#FF7EF2"/>
<circle cx="129.383" cy="79.9807" r="0.941602" fill="#FF7EF2"/>
<circle cx="134.625" cy="82.5324" r="0.941602" fill="#FF7EF2"/>
<circle cx="133.09" cy="87.7565" r="0.941602" fill="#FF7EF2"/>
</g>
<path d="M82.5547 90.1988C82.5547 95.9289 86.8427 100.574 92.1319 100.574L109.948 90.1982L82.5547 90.1982L82.5547 90.1988Z" fill="#C7EAFB"/>
<path d="M90.6951 80.3069C85.451 80.9958 81.8045 86.16 82.5508 91.8413L109.711 88.2735L90.695 80.3063L90.6951 80.3069Z" fill="#6E00FF"/>
<rect x="109.488" y="87.7637" width="1.07974" height="3.69737" fill="#FF7EF2"/>
<path d="M116.618 68.5965C116.488 68.273 116.614 67.9029 116.915 67.7271L122.037 64.7355C122.445 64.497 122.969 64.7047 123.103 65.1583L123.57 66.7398C123.688 67.139 123.448 67.5556 123.043 67.6539L117.436 69.0173C117.097 69.0998 116.748 68.9206 116.618 68.5965V68.5965Z" fill="#FFE500"/>
<path d="M117.316 61.6087C117.08 61.3527 117.058 60.9654 117.264 60.6845L123.885 51.6424C124.178 51.2422 124.776 51.2455 125.065 51.649L126.65 53.8652C126.869 54.17 126.82 54.5906 126.538 54.8374L118.512 61.8588C118.214 62.1189 117.764 62.0947 117.496 61.8043L117.316 61.6087Z" fill="#FFE500"/>
<path d="M122.718 73.2949C122.69 72.9244 122.946 72.5907 123.311 72.5226L127.299 71.779C127.747 71.6956 128.16 72.0384 128.161 72.4937L128.164 74.0313C128.165 74.4911 127.745 74.8368 127.294 74.7475L123.303 73.9567C122.982 73.893 122.742 73.6214 122.718 73.2949V73.2949Z" fill="#FFE500"/>
<path d="M104.28 87.7106C98.4013 87.7106 93.3805 83.6757 92.3424 78.117C92.2321 77.5285 91.705 77.1012 91.0881 77.1012C90.4713 77.1012 89.9434 77.5285 89.8338 78.117C88.7949 83.6757 83.7749 87.7106 77.896 87.7106C74.6589 87.7106 71.6136 86.496 69.3212 84.2904C67.0287 82.0848 65.7656 79.1548 65.7656 76.0401C65.7656 69.605 71.207 64.3696 77.8953 64.3696H104.28C110.968 64.3696 116.41 69.605 116.41 76.0401C116.41 79.1548 115.147 82.0848 112.855 84.2904C110.563 86.496 107.517 87.7106 104.28 87.7106Z" fill="#D4D4D4" fill-opacity="0.3"/>
<path d="M104.28 87.7106C98.4013 87.7106 93.3805 83.6757 92.3424 78.117C92.2321 77.5285 91.705 77.1012 91.0881 77.1012C90.4713 77.1012 89.9434 77.5285 89.8338 78.117C88.795 83.6757 83.7749 87.7106 77.896 87.7106C74.6589 87.7106 71.6136 86.496 69.3212 84.2904C67.0287 82.0848 65.7656 79.1548 65.7656 76.0401C65.7656 69.605 71.207 64.3696 77.8953 64.3696H104.28C110.968 64.3696 116.41 69.605 116.41 76.0401C116.41 79.1548 115.147 82.0848 112.855 84.2904C110.563 86.496 107.517 87.7106 104.28 87.7106ZM91.0874 74.979C92.7732 74.979 94.2135 76.1413 94.5128 77.7421C95.3619 82.2885 99.4696 85.5885 104.279 85.5885C106.928 85.5885 109.419 84.5946 111.295 82.79C113.171 80.9855 114.203 78.5881 114.203 76.0401C114.203 70.775 109.752 66.4918 104.279 66.4918H77.8953C72.4231 66.4918 67.9713 70.775 67.9713 76.0401C67.9713 78.5881 69.0043 80.9848 70.8798 82.79C72.7554 84.5953 75.247 85.5885 77.8953 85.5885C82.7051 85.5885 86.8128 82.2885 87.662 77.7421C87.9612 76.1413 89.4015 74.979 91.0874 74.979Z" fill="#FFCC01"/>
<path d="M186.463 167.895H0.0664062V184.662H186.463V167.895Z" fill="#8ADD00"/>
<path d="M23.7273 112.8H10.2383V114.299H23.7273V112.8Z" fill="#AFA2FB"/>
<path d="M33.2851 119.544H10.8047V122.167H33.2851V119.544Z" fill="#0A6FCB"/>
<path d="M33.2851 119.544H10.8047V116.943H22.3066L23.0863 111.392L29.9945 108.491L33.2851 119.544Z" fill="#AFA2FB"/>
<path d="M19.2204 84.1432L15.5586 83.0884L14.5882 86.4571L18.25 87.5119L19.2204 84.1432Z" fill="#0A6FCB"/>
<path d="M20.4309 86.6449L13.1953 84.5605L9.43266 97.6222L16.6683 99.7066L20.4309 86.6449Z" fill="#AFA2FB"/>
<path d="M18.3921 96.8775C20.0994 96.8775 21.4834 95.4934 21.4834 93.7861C21.4834 92.0789 20.0994 90.6948 18.3921 90.6948C16.6848 90.6948 15.3008 92.0789 15.3008 93.7861C15.3008 95.4934 16.6848 96.8775 18.3921 96.8775Z" fill="#0A6FCB"/>
<path d="M22.8788 112.613V110.433C27.4092 110.433 31.0952 106.915 31.0952 102.591C31.0952 98.2664 27.4092 94.7487 22.8788 94.7487H15.8594V92.5684H22.8788C25.6496 92.5684 28.2567 93.6058 30.2197 95.4891C32.1941 97.3838 33.2817 99.9056 33.2817 102.591C33.2817 105.276 32.1941 107.798 30.2197 109.693C28.2567 111.576 25.6496 112.613 22.8788 112.613Z" fill="#0A6FCB"/>
<path d="M169.415 122.166H165.855V167.876H169.415V122.166Z" fill="#72B503"/>
<path d="M9.43439 122.166H5.875V167.876H9.43439V122.166Z" fill="#72B503"/>
<path d="M163.226 105.572V99.433L164.033 97.626H156.827L157.433 99.433V105.572C154.786 106.71 152.93 109.361 152.93 112.449C152.93 116.574 156.243 119.919 160.329 119.919C164.416 119.919 167.729 116.574 167.729 112.449C167.729 109.361 165.873 106.71 163.226 105.572H163.226Z" fill="#E2F4FD"/>
<path d="M160.241 88.0729L166.798 79.2676H153.684L160.241 88.0729Z" fill="#E2F4FD"/>
<path d="M163.604 83.3887H156.672L159.216 86.8355V90.5081L161.06 88.7898V86.8355L163.604 83.3887Z" fill="#8CEB4D"/>
<path d="M174.473 122.166H0.0664062V129.097H174.473V122.166Z" fill="#98DA2A"/>
<path d="M167.73 112.425C167.73 116.564 164.417 119.919 160.33 119.919C156.243 119.919 152.93 116.564 152.93 112.425H167.73H167.73Z" fill="#8CEB4D"/>
<path d="M170.73 119.731H147.875V121.979H170.73V119.731Z" fill="#5FBCFF"/>
<path d="M147.875 81.3275V121.417H148.999V81.3275H147.875Z" fill="#5FBCFF"/>
<path d="M170.352 86.1982H143.75V87.3223H170.352V86.1982Z" fill="#5FBCFF"/>
<path d="M148.436 89.0096C149.575 89.0096 150.497 88.0868 150.497 86.9484C150.497 85.81 149.575 84.8872 148.436 84.8872C147.298 84.8872 146.375 85.81 146.375 86.9484C146.375 88.0868 147.298 89.0096 148.436 89.0096Z" fill="#0A6FCB"/>
<path d="M161.386 92.6629L160.336 90.8999V90.8823L160.331 90.8911L160.327 90.8836V90.8981L159.277 92.6612C159.059 93.0281 159.059 93.4806 159.277 93.8476C159.494 94.212 159.893 94.4374 160.327 94.4409V94.4426C160.764 94.4426 161.167 94.2164 161.386 93.8494C161.604 93.4824 161.604 93.0299 161.386 92.6629H161.386Z" fill="#8CEB4D"/>
<path d="M155.648 113.737C156.424 113.737 157.053 113.066 157.053 112.238C157.053 111.41 156.424 110.739 155.648 110.739C154.871 110.739 154.242 111.41 154.242 112.238C154.242 113.066 154.871 113.737 155.648 113.737Z" fill="#9CD9F8"/>
<path d="M157.89 110.553C158.356 110.553 158.733 110.133 158.733 109.616C158.733 109.098 158.356 108.679 157.89 108.679C157.424 108.679 157.047 109.098 157.047 109.616C157.047 110.133 157.424 110.553 157.89 110.553Z" fill="#9CD9F8"/>
<path d="M100.8 124.718L96.9524 118.12V113.861L97.3889 112.332H92.5935L93.03 113.861V118.12L89.1821 124.718C88.6535 125.624 89.3144 126.757 90.3712 126.757H99.6112C100.668 126.757 101.329 125.625 100.8 124.718Z" fill="#5FBCFF"/>
<circle cx="94.9927" cy="119.19" r="12.52" fill="url(#paint0_radial_2_9062)" fill-opacity="0.7"/>
<path d="M94.9937 116.593L90.1587 124.408C89.7187 125.119 90.2688 126.008 91.1484 126.008H98.839C99.7189 126.008 100.269 125.12 99.8286 124.408L94.9937 116.593Z" fill="#5FBCFF"/>
<path d="M94.9937 116.593L90.1587 124.408C89.7187 125.119 90.2688 126.008 91.1484 126.008H98.839C99.7189 126.008 100.269 125.12 99.8286 124.408L94.9937 116.593Z" fill="#BA85FF"/>
<rect x="93.8164" y="114.013" width="2.35669" height="4.45434" fill="#BA85FF"/>
<path d="M101.389 106.93L101.085 108.806L102.785 109.672L100.907 109.968L100.611 111.848L99.7461 110.156L97.8607 110.448L99.2072 109.102L98.3426 107.41L100.043 108.276L101.389 106.93Z" fill="#FFE500"/>
<path d="M89.6155 113.829L90.3019 114.672L91.3183 114.274L90.7312 115.189L91.4222 116.031L90.3699 115.757L89.7781 116.674L89.7147 115.587L88.6624 115.313L89.6789 114.916L89.6155 113.829Z" fill="#FFE500"/>
<path d="M89.3301 102.518L90.5182 103.978L92.2777 103.289L91.2613 104.873L92.4575 106.33L90.636 105.856L89.6115 107.443L89.5018 105.562L87.6803 105.088L89.4398 104.4L89.3301 102.518Z" fill="#FFE500"/>
<rect width="28.8624" height="4.73113" rx="0.79795" transform="matrix(-0.455719 -0.890124 -0.890124 0.455719 161.719 62.5234)" fill="#FA78C3"/>
<path d="M93.869 39.9964L97.012 40.0448L96.8193 38.753L94.9324 38.7237L94.4793 36.2169L91.9643 36.1779L91.5109 33.6709L88.3679 33.622L88.5604 34.914L90.4477 34.9433L90.901 37.4503L93.4159 37.4896L93.869 39.9964Z" fill="#FF5A00"/>
<path d="M137.307 57.9163L140.449 57.9647L140.257 56.673L138.37 56.6436L137.917 54.1368L135.402 54.0978L134.948 51.5908L131.805 51.5419L131.998 52.8339L133.885 52.8633L134.339 55.3703L136.853 55.4095L137.307 57.9163Z" fill="#FF5A00"/>
<path d="M74.2316 52.1304C75.7574 52.1304 76.9944 50.9109 76.9944 49.4065C76.9944 47.9022 75.7574 46.6826 74.2316 46.6826C72.7058 46.6826 71.4688 47.9022 71.4688 49.4065C71.4688 50.9109 72.7058 52.1304 74.2316 52.1304Z" fill="#00C800"/>
<path d="M51.9498 61.9743L53.2933 59.1326L52.0375 58.7739L51.2306 60.4798L48.7608 59.8559L47.6854 62.1298L45.2153 61.5061L43.8712 64.3477L45.1272 64.7066L45.9343 63.0003L48.4044 63.6241L49.4799 61.3504L51.9498 61.9743Z" fill="#00C800"/>
<g opacity="0.4">
<path d="M91.5474 108.879C92.9415 109.154 94.2948 108.247 94.57 106.853C94.8451 105.459 93.938 104.105 92.5439 103.83C91.1497 103.555 89.7965 104.462 89.5213 105.856C89.2461 107.251 90.1532 108.604 91.5474 108.879Z" fill="#AD79F4"/>
<path d="M92.8154 105.558C93.866 105.765 94.8858 105.082 95.0932 104.031C95.3006 102.981 94.617 101.961 93.5664 101.753C92.5158 101.546 91.496 102.23 91.2886 103.28C91.0812 104.331 91.7648 105.351 92.8154 105.558Z" fill="#AD79F4"/>
<path d="M95.4131 104.745C96.4637 104.952 97.4835 104.269 97.6909 103.218C97.8982 102.168 97.2146 101.148 96.164 100.94C95.1134 100.733 94.0936 101.417 93.8862 102.467C93.6789 103.518 94.3625 104.538 95.4131 104.745Z" fill="#AD79F4"/>
<path d="M98.2139 107.275C99.2645 107.482 100.284 106.799 100.492 105.748C100.699 104.697 100.015 103.678 98.9648 103.47C97.9142 103.263 96.8944 103.946 96.687 104.997C96.4797 106.048 97.1633 107.067 98.2139 107.275Z" fill="#AD79F4"/>
<path d="M94.0669 109.376C95.4611 109.652 96.8143 108.745 97.0895 107.35C97.3647 105.956 96.4575 104.603 95.0634 104.328C93.6692 104.053 92.316 104.96 92.0408 106.354C91.7657 107.748 92.6728 109.101 94.0669 109.376Z" fill="#AD79F4"/>
<path d="M94.2609 110.971C94.8952 110.765 95.2425 110.084 95.0367 109.45C94.8308 108.816 94.1498 108.468 93.5156 108.674C92.8813 108.88 92.534 109.561 92.7399 110.195C92.9457 110.83 93.6267 111.177 94.2609 110.971Z" fill="#AD79F4"/>
<path d="M96.3325 106.819C97.7267 107.095 99.0799 106.187 99.3551 104.793C99.6303 103.399 98.7232 102.046 97.329 101.771C95.9349 101.496 94.5816 102.403 94.3064 103.797C94.0313 105.191 94.9384 106.544 96.3325 106.819Z" fill="#AD79F4"/>
<path d="M97.9732 105.25C99.3673 105.525 100.721 104.618 100.996 103.224C101.271 101.83 100.364 100.477 98.9696 100.201C97.5755 99.9262 96.2222 100.833 95.9471 102.227C95.6719 103.622 96.579 104.975 97.9732 105.25Z" fill="#AD79F4"/>
<path d="M97.2193 109.999C98.6134 110.274 99.9667 109.367 100.242 107.972C100.517 106.578 99.6099 105.225 98.2157 104.95C96.8216 104.675 95.4683 105.582 95.1932 106.976C94.918 108.37 95.8251 109.723 97.2193 109.999Z" fill="#AD79F4"/>
<path d="M96.007 110.887C96.6413 110.681 96.9886 110 96.7828 109.365C96.5769 108.731 95.8959 108.384 95.2617 108.59C94.6274 108.796 94.2801 109.477 94.486 110.111C94.6918 110.745 95.3728 111.092 96.007 110.887Z" fill="#AD79F4"/>
<path d="M95.4406 111.973C96.0749 111.767 96.4222 111.086 96.2164 110.452C96.0105 109.818 95.3295 109.47 94.6953 109.676C94.061 109.882 93.7137 110.563 93.9195 111.197C94.1254 111.831 94.8064 112.179 95.4406 111.973Z" fill="#AD79F4"/>
<path d="M94.7844 112.532C95.4186 112.326 95.7659 111.645 95.5601 111.011C95.3543 110.377 94.6733 110.029 94.039 110.235C93.4048 110.441 93.0575 111.122 93.2633 111.756C93.4691 112.391 94.1501 112.738 94.7844 112.532Z" fill="#AD79F4"/>
<path d="M99.4849 107.441C100.879 107.717 102.232 106.809 102.507 105.415C102.783 104.021 101.876 102.668 100.481 102.393C99.0872 102.118 97.734 103.025 97.4588 104.419C97.1836 105.813 98.0907 107.166 99.4849 107.441Z" fill="#AD79F4"/>
</g>
</g>
<defs>
<radialGradient id="paint0_radial_2_9062" cx="0" cy="0" r="1" gradientUnits="userSpaceOnUse" gradientTransform="translate(94.9927 119.19) rotate(90) scale(12.52)">
<stop stop-color="#C5AFF5"/>
<stop offset="1" stop-color="#C5AFF5" stop-opacity="0"/>
</radialGradient>
<clipPath id="clip0_2_9062">
<rect width="174" height="183" rx="4" fill="white"/>
</clipPath>
</defs>
</svg>
