<svg width="949" height="489" viewBox="0 0 949 489" fill="none" xmlns="http://www.w3.org/2000/svg">
<path d="M381.341 434.685L569.202 409.212L587.026 440.395C591.698 448.571 587.267 459.164 578.401 460.644C578.271 460.666 578.139 460.686 578.006 460.704L386.565 486.662C386.433 486.68 386.3 486.696 386.169 486.709C377.23 487.643 370.137 478.613 372.463 469.488L381.339 434.685L381.341 434.685Z" fill="#E8E8E8"/>
<path d="M384.332 435.377L369.068 322.806C368.377 317.713 371.963 313.006 377.06 312.315L539.666 290.267C544.763 289.576 549.472 293.157 550.163 298.251L565.381 410.828L569.725 410.239L554.461 297.668C553.448 290.194 546.563 284.959 539.083 285.973L376.476 308.021C368.997 309.035 363.755 315.915 364.768 323.389L380.032 435.96" fill="#E8E8E8"/>
<path d="M376.475 308.021L539.083 285.973C546.557 284.959 553.448 290.199 554.461 297.668L569.725 410.239L380.032 435.96L364.768 323.389C363.756 315.922 369.001 309.035 376.477 308.021L376.475 308.021Z" fill="#D6D6D6"/>
<path d="M521.626 468.347L441.869 479.162L445.343 467.179C446.462 463.316 449.424 460.575 453 460.091L505.817 452.929C509.395 452.444 512.978 454.297 515.086 457.722L521.626 468.347Z" fill="#D6D6D6"/>
<path d="M384.332 435.377L369.068 322.806C368.377 317.713 371.963 313.006 377.06 312.315L539.666 290.267C544.763 289.576 549.472 293.157 550.163 298.251L565.381 410.828L569.725 410.239L554.461 297.668C553.448 290.194 546.563 284.959 539.083 285.973L376.476 308.021C368.997 309.035 363.755 315.915 364.768 323.389L380.032 435.96" fill="#E8E8E8"/>
<path d="M381.911 48.0366L374.326 50.9668L403.628 126.814L411.213 123.883L381.911 48.0366Z" fill="#D6D6D6"/>
<path d="M397.08 42.1752L389.495 45.1055L418.797 120.952L426.382 118.022L397.08 42.1752Z" fill="#D6D6D6"/>
<path d="M397.08 42.1761L374.326 50.9668L403.628 126.814L426.382 118.023L397.08 42.1761Z" fill="#E8E8E8"/>
<path d="M435.627 6.58052C441.907 4.15454 449.024 7.41053 451.51 13.8456L462.389 42.0045L439.635 50.7952L428.756 22.6362C426.27 16.2012 429.349 9.00598 435.627 6.58052Z" fill="#D6D6D6"/>
<path d="M441.985 11.752L462.71 65.3966C463.603 67.7077 462.417 70.3235 460.062 71.2334C457.708 72.1428 455.071 71.0055 454.177 68.6931L433.453 15.0485L441.984 11.7525L441.985 11.752Z" fill="#D6D6D6"/>
<path d="M453.965 20.1986L431.211 28.9893L469.67 128.538L492.424 119.748L453.965 20.1986Z" fill="#E8E8E8"/>
<path d="M435.627 6.58052C441.907 4.15454 449.024 7.41053 451.51 13.8456L462.389 42.0045L439.635 50.7952L428.756 22.6362C426.27 16.2012 429.349 9.00598 435.627 6.58052Z" fill="#D6D6D6"/>
<path d="M441.985 11.752L462.71 65.3966C463.603 67.7077 462.417 70.3235 460.062 71.2334C457.708 72.1428 455.071 71.0055 454.177 68.6931L433.453 15.0485L441.984 11.7525L441.985 11.752Z" fill="#D6D6D6"/>
<path d="M453.965 20.1986L431.211 28.9893L469.67 128.538L492.424 119.748L453.965 20.1986Z" fill="#E8E8E8"/>
<path d="M383.669 25.5653L373.084 29.6544C369.724 30.9527 368.096 34.8409 369.448 38.3404L373.959 50.0185L396.713 41.2278L392.202 29.5498C390.85 26.0503 387.03 24.2664 383.67 25.5647L383.669 25.5653Z" fill="#E8E8E8"/>
<path d="M425.108 147.934L418.172 141.896L425.757 138.966L425.108 147.934Z" fill="#D6D6D6"/>
<path d="M425.283 115.178L402.529 123.969L418.669 141.704L425.26 139.158L425.283 115.178Z" fill="#E8E8E8"/>
<path d="M397.08 42.1752L389.495 45.1055L418.797 120.952L426.382 118.022L397.08 42.1752Z" fill="#D6D6D6"/>
<path d="M397.08 42.1761L374.326 50.9668L403.628 126.814L426.382 118.023L397.08 42.1761Z" fill="#E8E8E8"/>
<path d="M381.911 48.0366L374.326 50.9668L403.628 126.814L411.213 123.883L381.911 48.0366Z" fill="#D6D6D6"/>
<path d="M130.869 65.2659L134.204 57.8506L60.0505 24.4948L56.7149 31.9101L130.869 65.2659Z" fill="#D6D6D6"/>
<path d="M124.198 80.097L127.533 72.6816L53.3796 39.3258L50.044 46.7412L124.198 80.097Z" fill="#D6D6D6"/>
<path d="M124.197 80.0967L134.204 57.8506L60.0505 24.4948L50.0438 46.7409L124.197 80.0967Z" fill="#E8E8E8"/>
<path d="M121.796 132.51C119.034 138.649 111.683 141.336 105.392 138.506L77.8615 126.122L87.8682 103.876L115.399 116.26C121.69 119.09 124.557 126.372 121.796 132.51Z" fill="#D6D6D6"/>
<path d="M113.639 133.3L61.1916 109.708C58.9321 108.692 57.937 105.998 58.9728 103.695C60.0081 101.393 62.6834 100.349 64.9441 101.366L117.391 124.958L113.639 133.298L113.639 133.3Z" fill="#D6D6D6"/>
<path d="M99.1808 135.712L109.188 113.466L11.8609 69.6863L1.85419 91.9324L99.1808 135.712Z" fill="#E8E8E8"/>
<path d="M121.796 132.51C119.034 138.649 111.683 141.336 105.392 138.506L77.8615 126.122L87.8682 103.876L115.399 116.26C121.69 119.09 124.557 126.372 121.796 132.51Z" fill="#D6D6D6"/>
<path d="M113.639 133.3L61.1916 109.708C58.9321 108.692 57.937 105.998 58.9728 103.695C60.0081 101.393 62.6834 100.349 64.9441 101.366L117.391 124.958L113.639 133.298L113.639 133.3Z" fill="#D6D6D6"/>
<path d="M99.1808 135.712L109.188 113.466L11.8609 69.6863L1.85419 91.9324L99.1808 135.712Z" fill="#E8E8E8"/>
<path d="M145.412 82.4858L150.066 72.1378C151.544 68.8522 149.969 64.9422 146.548 63.4032L135.131 58.2675L125.124 80.5135L136.541 85.6493C139.963 87.1883 143.933 85.7728 145.411 82.4872L145.412 82.4858Z" fill="#E8E8E8"/>
<path d="M29.9266 24.5697L39.1035 23.9893L35.7679 31.4046L29.9266 24.5697Z" fill="#D6D6D6"/>
<path d="M52.8243 47.9922L62.8311 25.7461L38.8847 24.4745L35.9862 30.918L52.8243 47.9922Z" fill="#E8E8E8"/>
<path d="M124.198 80.097L127.533 72.6816L53.3796 39.3258L50.044 46.7412L124.198 80.097Z" fill="#D6D6D6"/>
<path d="M124.197 80.0967L134.204 57.8506L60.0505 24.4948L50.0438 46.7409L124.197 80.0967Z" fill="#E8E8E8"/>
<path d="M130.869 65.2659L134.204 57.8506L60.0505 24.4948L56.7149 31.9101L130.869 65.2659Z" fill="#D6D6D6"/>
<path d="M948.183 340.5H642.73V5.72852H948.183" fill="#E8E8E8"/>
<path d="M637 0H948.187V11.4473H648.47V334.774H948.187V346.221H637V0Z" fill="#D6D6D6"/>
<path d="M800.898 212.909C837.158 212.909 866.553 183.565 866.553 147.369C866.553 111.172 837.158 81.8291 800.898 81.8291C764.637 81.8291 735.242 111.172 735.242 147.369C735.242 183.565 764.637 212.909 800.898 212.909Z" stroke="#D6D6D6" stroke-width="2.64177" stroke-miterlimit="10"/>
<path d="M834.127 263.164C834.127 263.164 847.098 217.176 860.964 229.678C874.831 242.18 876.171 268.076 889.591 249.77C903.011 231.464 910.165 204.228 923.136 234.142L936.107 264.056" stroke="#D6D6D6" stroke-width="2.64177" stroke-miterlimit="10"/>
<path d="M869.123 312.906H815.285V334.772H869.123V312.906Z" fill="#D6D6D6"/>
</svg>
