<svg width="543" height="369" viewBox="0 0 543 369" fill="none" xmlns="http://www.w3.org/2000/svg">
<path d="M454.556 244.663L347.553 263.134L349.569 274.815L456.572 256.345L454.556 244.663Z" fill="#F031DD" fill-opacity="0.5"/>
<path d="M539.428 284.156L361.09 314.941L364.619 335.383L542.957 304.598L539.428 284.156Z" fill="#F031DD" fill-opacity="0.5"/>
<path d="M539.43 284.16L361.092 314.944L357.593 294.674L448.838 278.924L447.555 234.587L498.455 202.518L539.43 284.16Z" fill="#F031DD" fill-opacity="0.5"/>
<path d="M380.206 27.4827L349.745 24.2764L346.58 51.8545L377.041 55.0609L380.206 27.4827Z" fill="#F031DD" fill-opacity="0.5"/>
<path d="M393.209 45.3379L333.008 39.001L320.733 145.952L380.934 152.289L393.209 45.3379Z" fill="#F031DD" fill-opacity="0.5"/>
<path d="M366.066 150.697L335.605 147.491L332.44 175.069L362.901 178.275L366.066 150.697Z" fill="#F031DD" fill-opacity="0.5"/>
<path d="M390.778 127.876C404.32 125.539 413.437 112.857 411.14 99.5513C408.843 86.2455 396.003 77.3541 382.46 79.6919C368.917 82.0297 359.8 94.7113 362.097 108.017C364.394 121.323 377.235 130.214 390.778 127.876Z" fill="#F031DD" fill-opacity="0.5"/>
<path d="M447.57 244.36L444.637 227.366C480.576 221.162 505.085 188.697 499.266 154.991C493.448 121.286 459.474 98.9152 423.534 105.119L367.849 114.732L364.915 97.7378L420.601 88.1253C442.581 84.3311 464.66 88.8465 482.766 100.838C500.978 112.902 512.999 131.067 516.612 151.997C520.225 172.927 514.99 194.071 501.876 211.542C488.837 228.91 469.55 240.566 447.57 244.36Z" fill="#F031DD" fill-opacity="0.5"/>
<path d="M300.696 235.16L273.163 152.754L283.41 105.672L292.016 89.8285L237.913 78.0534L239.156 96.0409L228.909 143.123L169.619 206.632C161.474 215.354 166.203 229.506 178.126 232.101L282.374 254.79C294.301 257.386 304.478 246.483 300.696 235.16Z" fill="#F031DD" fill-opacity="0.3"/>
<path d="M137.418 257.494L140.153 217.198L146.353 205.703L98.2132 202.435L101.455 214.571L98.7199 254.867C80.5265 261.134 66.9466 277.692 65.5708 297.96C63.7326 325.041 84.376 348.497 111.678 350.35C138.981 352.204 162.605 331.752 164.443 304.672C165.819 284.403 154.601 266.165 137.421 257.494L137.418 257.494Z" fill="#F031DD" fill-opacity="0.5"/>
<path d="M125.243 141.246L172.969 86.4262L85.3613 80.4795L125.243 141.246Z" fill="#F031DD" fill-opacity="0.5"/>
<path d="M149.854 112.07L103.547 108.927L119.005 132.702L117.369 156.806L130.457 146.366L131.327 133.539L149.854 112.07Z" fill="#F031DD" fill-opacity="0.5"/>
<path d="M164.454 304.524C162.61 331.688 138.982 352.207 111.679 350.354C84.377 348.501 63.7382 324.977 65.582 297.813L164.451 304.524L164.454 304.524Z" fill="#F031DD" fill-opacity="0.5"/>
<path d="M181.222 353.852L28.5332 343.488L27.5316 358.244L180.22 368.608L181.222 353.852Z" fill="#F031DD" fill-opacity="0.5"/>
<path d="M45.6419 91.4007L27.7803 354.543L35.2895 355.053L53.1511 91.9104L45.6419 91.4007Z" fill="#F031DD" fill-opacity="0.5"/>
<path d="M193.663 133.558L15.9434 121.495L15.4426 128.872L193.162 140.936L193.663 133.558Z" fill="#F031DD" fill-opacity="0.5"/>
<path d="M45.9776 142.061C53.5809 142.577 60.1557 136.939 60.6627 129.469C61.1698 121.999 55.4172 115.525 47.8139 115.009C40.2106 114.493 33.6358 120.13 33.1288 127.6C32.6217 135.07 38.3743 141.545 45.9776 142.061Z" fill="#F031DD" fill-opacity="0.5"/>
<path d="M130.87 171.905L124.645 159.86L124.653 159.744L124.613 159.8L124.586 159.749L124.58 159.844L116.785 170.937C115.163 173.246 114.962 176.216 116.256 178.723C117.543 181.212 120.108 182.872 123.002 183.092L123.001 183.103C125.92 183.301 128.717 182 130.338 179.69C131.96 177.381 132.161 174.412 130.867 171.905L130.87 171.905Z" fill="#F031DD" fill-opacity="0.5"/>
<path d="M83.1459 307.656C88.3299 308.008 92.8314 303.889 93.2002 298.456C93.569 293.023 89.6654 288.334 84.4813 287.982C79.2973 287.63 74.7958 291.749 74.427 297.182C74.0582 302.615 77.9618 307.304 83.1459 307.656Z" fill="#F031DD" fill-opacity="0.5"/>
<path d="M99.5805 287.767C102.691 287.978 105.399 285.396 105.63 282.001C105.86 278.605 103.526 275.681 100.415 275.47C97.3047 275.259 94.5964 277.841 94.3659 281.236C94.1354 284.632 96.4701 287.555 99.5805 287.767Z" fill="#F031DD" fill-opacity="0.5"/>
</svg>
