<svg width="543" height="692" viewBox="0 0 543 692" fill="none" xmlns="http://www.w3.org/2000/svg">
<path d="M454.556 567.697L347.553 586.167L349.569 597.849L456.572 579.378L454.556 567.697Z" fill="#E1E1E1"/>
<path d="M539.428 607.189L361.09 637.974L364.619 658.416L542.957 627.631L539.428 607.189Z" fill="#D4D4D4"/>
<path d="M539.43 607.193L361.092 637.978L357.593 617.708L448.838 601.957L447.555 557.62L498.455 525.551L539.43 607.193Z" fill="#E1E1E1"/>
<path d="M380.206 350.516L349.745 347.31L346.58 374.888L377.041 378.094L380.206 350.516Z" fill="#D4D4D4"/>
<path d="M393.209 368.371L333.008 362.034L320.733 468.985L380.934 475.322L393.209 368.371Z" fill="#E1E1E1"/>
<path d="M366.066 473.73L335.605 470.524L332.44 498.102L362.901 501.308L366.066 473.73Z" fill="#D4D4D4"/>
<path d="M390.778 450.91C404.32 448.572 413.437 435.89 411.14 422.584C408.843 409.279 396.003 400.387 382.46 402.725C368.917 405.063 359.8 417.744 362.097 431.05C364.394 444.356 377.235 453.247 390.778 450.91Z" fill="#D4D4D4"/>
<path d="M447.57 567.393L444.637 550.399C480.576 544.195 505.085 511.73 499.266 478.024C493.448 444.319 459.474 421.948 423.534 428.152L367.849 437.765L364.915 420.771L420.601 411.159C442.581 407.364 464.66 411.88 482.766 423.871C500.978 435.935 512.999 454.101 516.612 475.03C520.225 495.96 514.99 517.104 501.876 534.576C488.837 551.943 469.55 563.599 447.57 567.393Z" fill="#D4D4D4"/>
<path d="M501.39 165.94L473.857 83.5342L484.104 36.4522L492.71 20.6083L438.606 8.83318L439.85 26.8207L429.603 73.9027L370.312 137.412C362.168 146.134 366.897 160.286 378.82 162.881L483.067 185.569C494.995 188.165 505.172 177.263 501.39 165.94Z" fill="#E1E1E1"/>
<path d="M137.418 580.528L140.153 540.232L146.353 528.737L98.2132 525.469L101.455 537.605L98.7199 577.901C80.5265 584.168 66.9466 600.725 65.5708 620.994C63.7326 648.075 84.376 671.531 111.678 673.384C138.981 675.237 162.605 654.786 164.443 627.705C165.819 607.437 154.601 589.199 137.421 580.528L137.418 580.528Z" fill="#E1E1E1"/>
<path d="M125.243 464.279L172.969 409.46L85.3613 403.513L125.243 464.279Z" fill="#E1E1E1"/>
<path d="M149.854 435.104L103.547 431.96L119.005 455.736L117.369 479.84L130.457 469.399L131.327 456.573L149.854 435.104Z" fill="#D4D4D4"/>
<path d="M164.454 627.558C162.61 654.722 138.982 675.241 111.679 673.388C84.377 671.535 63.7382 648.011 65.582 620.847L164.451 627.558L164.454 627.558Z" fill="#D4D4D4"/>
<path d="M181.222 676.886L28.5332 666.522L27.5316 681.278L180.22 691.642L181.222 676.886Z" fill="#E1E1E1"/>
<path d="M45.6419 414.434L27.7803 677.577L35.2895 678.086L53.1511 414.944L45.6419 414.434Z" fill="#E1E1E1"/>
<path d="M193.663 456.592L15.9434 444.528L15.4426 451.906L193.162 463.969L193.663 456.592Z" fill="#E1E1E1"/>
<path d="M45.9776 465.094C53.5809 465.61 60.1557 459.973 60.6627 452.503C61.1698 445.033 55.4172 438.558 47.8139 438.042C40.2106 437.526 33.6358 443.164 33.1288 450.634C32.6217 458.104 38.3743 464.578 45.9776 465.094Z" fill="#D4D4D4"/>
<path d="M130.87 494.938L124.645 482.893L124.653 482.778L124.613 482.833L124.586 482.782L124.58 482.877L116.785 493.971C115.163 496.28 114.962 499.249 116.256 501.757C117.543 504.246 120.108 505.906 123.002 506.125L123.001 506.137C125.92 506.335 128.717 505.033 130.338 502.724C131.96 500.415 132.161 497.445 130.867 494.938L130.87 494.938Z" fill="#D4D4D4"/>
<path d="M83.1459 630.69C88.3299 631.042 92.8314 626.923 93.2002 621.49C93.569 616.057 89.6654 611.367 84.4813 611.016C79.2973 610.664 74.7958 614.783 74.427 620.216C74.0582 625.648 77.9618 630.338 83.1459 630.69Z" fill="#D4D4D4"/>
<path d="M99.5805 610.8C102.691 611.011 105.399 608.43 105.63 605.034C105.86 601.639 103.526 598.715 100.415 598.504C97.3047 598.293 94.5964 600.874 94.3659 604.27C94.1354 607.665 96.4701 610.589 99.5805 610.8Z" fill="#D4D4D4"/>
</svg>
