<svg width="241" height="207" viewBox="0 0 241 207" fill="none" xmlns="http://www.w3.org/2000/svg">
<path d="M31.3408 152.448L219.202 126.976L237.026 158.159C241.698 166.335 237.267 176.927 228.401 178.407C228.271 178.43 228.139 178.45 228.006 178.467L36.5649 204.426C36.4326 204.443 36.3001 204.46 36.1688 204.473C27.2298 205.407 20.1367 196.377 22.4631 187.252L31.3393 152.449L31.3408 152.448Z" fill="#E8E8E8"/>
<path d="M34.3315 153.141L19.0677 40.5696C18.3771 35.4763 21.9626 30.77 27.0602 30.0788L189.666 8.03073C194.763 7.33955 199.472 10.9211 200.163 16.0144L215.381 128.592L219.725 128.003L204.461 15.4317C203.448 7.95814 196.563 2.72227 189.083 3.73648L26.4764 25.7848C18.9966 26.799 13.755 33.6791 14.7684 41.1526L30.0322 153.724" fill="#E8E8E8"/>
<path d="M26.4751 25.785L189.083 3.73651C196.557 2.72312 203.448 7.96275 204.461 15.4317L219.725 128.003L30.0322 153.724L14.7684 41.1526C13.7558 33.6852 19.0013 26.7984 26.4766 25.7848L26.4751 25.785Z" fill="#D6D6D6"/>
<path d="M171.626 186.111L91.8685 196.925L95.3431 184.942C96.4621 181.079 99.4243 178.339 103 177.854L155.817 170.693C159.395 170.208 162.978 172.06 165.086 175.486L171.626 186.111Z" fill="#D6D6D6"/>
<path d="M34.3315 153.141L19.0677 40.5696C18.3771 35.4763 21.9626 30.77 27.0602 30.0788L189.666 8.03073C194.763 7.33955 199.472 10.9211 200.163 16.0144L215.381 128.592L219.725 128.003L204.461 15.4317C203.448 7.95814 196.563 2.72227 189.083 3.73648L26.4764 25.7848C18.9966 26.799 13.755 33.6791 14.7684 41.1526L30.0322 153.724" fill="#E8E8E8"/>
</svg>
