<svg width="242" height="338" viewBox="0 0 242 338" fill="none" xmlns="http://www.w3.org/2000/svg">
<path d="M153.379 244.663L46.376 263.134L48.3924 274.815L155.395 256.345L153.379 244.663Z" fill="#F031DD" fill-opacity="0.5"/>
<path d="M238.251 284.156L59.9131 314.941L63.4418 335.383L241.78 304.598L238.251 284.156Z" fill="#F031DD" fill-opacity="0.5"/>
<path d="M238.253 284.16L59.9148 314.944L56.4158 294.674L147.661 278.924L146.378 234.587L197.278 202.518L238.253 284.16Z" fill="#F031DD" fill-opacity="0.5"/>
<path d="M79.029 27.4827L48.5684 24.2764L45.4032 51.8545L75.8638 55.0609L79.029 27.4827Z" fill="#F031DD" fill-opacity="0.5"/>
<path d="M92.0324 45.3379L31.8311 39.001L19.5561 145.952L79.7574 152.289L92.0324 45.3379Z" fill="#F031DD" fill-opacity="0.5"/>
<path d="M64.8894 150.697L34.4287 147.491L31.2635 175.069L61.7242 178.275L64.8894 150.697Z" fill="#F031DD" fill-opacity="0.5"/>
<path d="M89.6008 127.876C103.144 125.539 112.26 112.857 109.964 99.5513C107.667 86.2455 94.8261 77.3541 81.2832 79.6919C67.7404 82.0297 58.6237 94.7113 60.9205 108.017C63.2174 121.323 76.058 130.214 89.6008 127.876Z" fill="#F031DD" fill-opacity="0.5"/>
<path d="M146.393 244.36L143.46 227.366C179.4 221.162 203.908 188.697 198.089 154.991C192.271 121.286 158.297 98.9152 122.358 105.119L66.6718 114.732L63.7383 97.7378L119.424 88.1253C141.404 84.3311 163.483 88.8465 181.589 100.838C199.802 112.902 211.822 131.067 215.435 151.997C219.048 172.927 213.813 194.071 200.699 211.542C187.66 228.91 168.374 240.566 146.393 244.36Z" fill="#F031DD" fill-opacity="0.5"/>
</svg>
