<svg width="153" height="131" viewBox="0 0 153 131" fill="none" xmlns="http://www.w3.org/2000/svg">
<path d="M130.869 52.0286L134.204 44.6133L60.0505 11.2575L56.7149 18.6728L130.869 52.0286Z" fill="#D6D6D6"/>
<path d="M124.198 66.8597L127.533 59.4443L53.3796 26.0885L50.044 33.5039L124.198 66.8597Z" fill="#D6D6D6"/>
<path d="M124.197 66.8594L134.204 44.6133L60.0505 11.2575L50.0438 33.5036L124.197 66.8594Z" fill="#E8E8E8"/>
<path d="M121.796 119.273C119.034 125.412 111.683 128.098 105.392 125.268L77.8615 112.885L87.8682 90.6386L115.399 103.022C121.69 105.852 124.557 113.135 121.796 119.273Z" fill="#D6D6D6"/>
<path d="M113.639 120.062L61.1916 96.4707C58.9321 95.4544 57.937 92.7603 58.9728 90.4576C60.0081 88.1561 62.6834 87.1115 64.9441 88.1285L117.391 111.72L113.639 120.061L113.639 120.062Z" fill="#D6D6D6"/>
<path d="M99.1808 122.475L109.188 100.229L11.8609 56.449L1.85419 78.6951L99.1808 122.475Z" fill="#E8E8E8"/>
<path d="M121.796 119.273C119.034 125.412 111.683 128.098 105.392 125.268L77.8615 112.885L87.8682 90.6386L115.399 103.022C121.69 105.852 124.557 113.135 121.796 119.273Z" fill="#D6D6D6"/>
<path d="M113.639 120.062L61.1916 96.4707C58.9321 95.4544 57.937 92.7603 58.9728 90.4576C60.0081 88.1561 62.6834 87.1115 64.9441 88.1285L117.391 111.72L113.639 120.061L113.639 120.062Z" fill="#D6D6D6"/>
<path d="M99.1808 122.475L109.188 100.229L11.8609 56.449L1.85419 78.6951L99.1808 122.475Z" fill="#E8E8E8"/>
<path d="M145.412 69.2485L150.066 58.9005C151.544 55.6149 149.969 51.7049 146.548 50.1659L135.131 45.0301L125.124 67.2762L136.541 72.412C139.963 73.951 143.933 72.5355 145.411 69.2499L145.412 69.2485Z" fill="#E8E8E8"/>
<path d="M29.9266 11.3324L39.1035 10.752L35.7679 18.1673L29.9266 11.3324Z" fill="#D6D6D6"/>
<path d="M52.8243 34.7549L62.8311 12.5088L38.8847 11.2372L35.9862 17.6807L52.8243 34.7549Z" fill="#E8E8E8"/>
<path d="M124.198 66.8597L127.533 59.4443L53.3796 26.0885L50.044 33.5039L124.198 66.8597Z" fill="#D6D6D6"/>
<path d="M124.197 66.8594L134.204 44.6133L60.0505 11.2575L50.0438 33.5036L124.197 66.8594Z" fill="#E8E8E8"/>
<path d="M130.869 52.0286L134.204 44.6133L60.0505 11.2575L56.7149 18.6728L130.869 52.0286Z" fill="#D6D6D6"/>
</svg>
