<svg width="187" height="125" viewBox="0 0 187 125" fill="none" xmlns="http://www.w3.org/2000/svg">
<path d="M124.862 47.6006C112.269 48.9356 103.143 60.2263 104.477 72.819C105.812 85.4117 117.103 94.5381 129.696 93.2037L124.862 47.6012V47.6006Z" fill="#231F20"/>
<path d="M108.766 26.2492C116.321 25.4482 123.096 30.9239 123.897 38.4801L110.216 39.9301L108.766 26.2492Z" fill="#231F20"/>
<path d="M129.693 93.2034C122.138 94.0044 115.363 88.5287 114.562 80.9725L128.243 79.5225L129.693 93.2034Z" fill="#6E00FF"/>
<path d="M114.565 80.9714L128.246 79.5215L123.896 38.4791L110.216 39.9291L114.565 80.9714Z" fill="#231F20"/>
<path d="M74.8181 43.4941L72.7461 40.334L66.4216 44.4808L68.4937 47.6409L74.8181 43.4941Z" fill="#E2F4FD"/>
<path d="M88.8964 105.692H84.7807L80.0498 74.9416C79.9789 74.4801 79.547 74.1636 79.0855 74.2345C78.624 74.3055 78.3075 74.7374 78.3785 75.1989L83.0698 105.693H74.3732C73.9062 105.693 73.5273 106.071 73.5273 106.538C73.5273 107.006 73.9062 107.384 74.3732 107.384H84.052C84.052 107.384 84.0539 107.384 84.0545 107.384C84.0557 107.384 84.0564 107.384 84.0576 107.384H88.897C89.3641 107.384 89.7429 107.006 89.7429 106.538C89.7429 106.071 89.3641 105.693 88.897 105.693L88.8964 105.692Z" fill="#2D2D2D"/>
<path d="M83.8769 105.981C82.2449 102.123 77.7947 100.319 73.9371 101.951" stroke="#2D2D2D" stroke-width="2.07467" stroke-linecap="round"/>
<path d="M88.4436 101.53C86.2613 101.436 84.4164 103.129 84.3228 105.312" stroke="#2D2D2D" stroke-width="1.67569" stroke-linecap="round"/>
<path d="M109.596 105.736L100.9 105.681L105.783 75.2176C105.857 74.7566 105.543 74.3228 105.082 74.2489C104.621 74.175 104.187 74.4888 104.113 74.9499L99.1892 105.67L95.0735 105.644C94.6065 105.641 94.2253 106.017 94.2224 106.485C94.2194 106.952 94.5958 107.333 95.0629 107.336L99.9022 107.366C99.9022 107.366 99.9041 107.366 99.9053 107.366C99.9059 107.366 99.9071 107.366 99.9078 107.366L109.586 107.427C110.053 107.43 110.435 107.054 110.438 106.587C110.441 106.12 110.064 105.738 109.597 105.735L109.596 105.736Z" fill="#2D2D2D"/>
<path d="M74.8164 26.633C66.448 25.7459 58.9449 31.8107 58.0578 40.1797L73.2104 41.7857L74.8164 26.633Z" fill="#231F20"/>
<path d="M70.9101 63.4844L55.7578 61.8784L58.0577 40.1784L73.21 41.7843L70.9101 63.4844Z" fill="#231F20"/>
<path d="M114.957 23.8032H67.6797V47.4414H114.957V23.8032Z" fill="#2D2D2D"/>
<path d="M114.957 47.4419H67.6797V71.08H114.957V47.4419Z" fill="#2D2D2D"/>
<path d="M91.3061 47.4413C104.361 47.4413 114.944 36.8582 114.944 23.8032C114.944 10.7482 104.361 0.165039 91.3061 0.165039C78.2511 0.165039 67.668 10.7482 67.668 23.8032C67.668 36.8582 78.2511 47.4413 91.3061 47.4413Z" fill="#2D2D2D"/>
<path d="M91.3178 94.7182C104.373 94.7182 114.956 84.135 114.956 71.08C114.956 58.0251 104.373 47.4419 91.3178 47.4419C78.2628 47.4419 67.6797 58.0251 67.6797 71.08C67.6797 84.135 78.2628 94.7182 91.3178 94.7182Z" fill="#2D2D2D"/>
<path d="M81.2624 21.7407C84.9066 21.7407 87.8608 18.7865 87.8608 15.1423C87.8608 11.4981 84.9066 8.54395 81.2624 8.54395C77.6183 8.54395 74.6641 11.4981 74.6641 15.1423C74.6641 18.7865 77.6183 21.7407 81.2624 21.7407Z" fill="white"/>
<path d="M81.2643 19.995C83.0866 19.995 84.5638 18.5177 84.5638 16.6955C84.5638 14.8732 83.0866 13.396 81.2643 13.396C79.4421 13.396 77.9648 14.8732 77.9648 16.6955C77.9648 18.5177 79.4421 19.995 81.2643 19.995Z" fill="#231F20"/>
<path d="M79.0166 16.2607C80.4518 16.2607 81.6152 15.0973 81.6152 13.6621C81.6152 12.2269 80.4518 11.0635 79.0166 11.0635C77.5814 11.0635 76.418 12.2269 76.418 13.6621C76.418 15.0973 77.5814 16.2607 79.0166 16.2607Z" fill="white"/>
<path d="M78.282 36.9201C83.6241 36.9201 87.9547 32.5895 87.9547 27.2474C87.9547 21.9053 83.6241 17.5747 78.282 17.5747C72.94 17.5747 68.6094 21.9053 68.6094 27.2474C68.6094 32.5895 72.94 36.9201 78.282 36.9201Z" fill="#2D2D2D"/>
<path d="M101.364 21.7407C105.008 21.7407 107.962 18.7865 107.962 15.1423C107.962 11.4981 105.008 8.54395 101.364 8.54395C97.7198 8.54395 94.7656 11.4981 94.7656 15.1423C94.7656 18.7865 97.7198 21.7407 101.364 21.7407Z" fill="white"/>
<path d="M101.366 19.995C103.188 19.995 104.665 18.5177 104.665 16.6955C104.665 14.8732 103.188 13.396 101.366 13.396C99.5436 13.396 98.0664 14.8732 98.0664 16.6955C98.0664 18.5177 99.5436 19.995 101.366 19.995Z" fill="#231F20"/>
<path d="M99.1182 16.2607C100.553 16.2607 101.717 15.0973 101.717 13.6621C101.717 12.2269 100.553 11.0635 99.1182 11.0635C97.683 11.0635 96.5195 12.2269 96.5195 13.6621C96.5195 15.0973 97.683 16.2607 99.1182 16.2607Z" fill="white"/>
<path d="M104.356 36.9201C109.698 36.9201 114.029 32.5895 114.029 27.2474C114.029 21.9053 109.698 17.5747 104.356 17.5747C99.0142 17.5747 94.6836 21.9053 94.6836 27.2474C94.6836 32.5895 99.0142 36.9201 104.356 36.9201Z" fill="#2D2D2D"/>
<path d="M91.4697 17.1416C86.2981 17.1416 82.1055 21.0117 82.1055 25.7854L91.4703 41.8654V17.1416H91.4697Z" fill="#C7EAFB"/>
<path d="M100.833 25.7854C100.833 21.0117 96.6404 17.1416 91.4688 17.1416V41.8654L100.834 25.7854H100.833Z" fill="#6E00FF"/>
<rect x="75.1445" y="5.08301" width="12.9549" height="2.29828" rx="1.14914" fill="#B3B3B3"/>
<rect x="99.1523" y="5.4834" width="12.9549" height="2.29828" rx="1.14914" transform="rotate(25.817 99.1523 5.4834)" fill="#B3B3B3"/>
<path d="M104.563 25.0507C98.665 25.0507 93.6277 21.0024 92.5861 15.4255C92.4755 14.835 91.9466 14.4063 91.3277 14.4063C90.7088 14.4063 90.1792 14.835 90.0693 15.4255C89.027 21.0024 83.9904 25.0507 78.0922 25.0507C74.8444 25.0507 71.7891 23.8321 69.4891 21.6192C67.1891 19.4063 65.9219 16.4666 65.9219 13.3417C65.9219 6.88543 71.3812 1.63281 78.0915 1.63281H104.563C111.274 1.63281 116.733 6.88543 116.733 13.3417C116.733 16.4666 115.466 19.4063 113.166 21.6192C110.866 23.8321 107.811 25.0507 104.563 25.0507Z" fill="#D4D4D4" fill-opacity="0.3"/>
<path d="M104.563 25.0507C98.665 25.0507 93.6277 21.0024 92.5861 15.4255C92.4755 14.835 91.9466 14.4063 91.3277 14.4063C90.7088 14.4063 90.1792 14.835 90.0693 15.4255C89.027 21.0024 83.9904 25.0507 78.0922 25.0507C74.8444 25.0507 71.7891 23.8321 69.4891 21.6192C67.1891 19.4063 65.9219 16.4666 65.9219 13.3417C65.9219 6.88543 71.3812 1.63281 78.0915 1.63281H104.563C111.274 1.63281 116.733 6.88543 116.733 13.3417C116.733 16.4666 115.466 19.4063 113.166 21.6192C110.866 23.8321 107.811 25.0507 104.563 25.0507ZM91.327 12.2772C93.0184 12.2772 94.4634 13.4432 94.7637 15.0493C95.6156 19.6107 99.7368 22.9215 104.562 22.9215C107.219 22.9215 109.719 21.9244 111.601 20.1139C113.484 18.3034 114.519 15.8981 114.519 13.3417C114.519 8.05931 110.053 3.76197 104.562 3.76197H78.0915C72.6012 3.76197 68.1348 8.05931 68.1348 13.3417C68.1348 15.8981 69.1712 18.3027 71.0529 20.1139C72.9346 21.9251 75.4345 22.9215 78.0915 22.9215C82.9171 22.9215 87.0383 19.6107 87.8903 15.0493C88.1905 13.4432 89.6356 12.2772 91.327 12.2772Z" fill="#FFCC01"/>
<path d="M187.01 107.384H0V124.206H187.01V107.384Z" fill="#D38C02"/>
<path d="M23.7394 52.1079H10.207V53.6115H23.7394V52.1079Z" fill="#AFA2FB"/>
<path d="M33.3273 58.874H10.7734V61.5053H33.3273V58.874Z" fill="#0A6FCB"/>
<path d="M33.3273 58.8742H10.7734V56.265H22.313L23.0953 50.6954L30.026 47.7852L33.3273 58.8742Z" fill="#AFA2FB"/>
<path d="M19.208 23.3569L15.5352 22.2988L14.5618 25.6777L18.2346 26.7357L19.208 23.3569Z" fill="#0A6FCB"/>
<path d="M20.4346 25.8669L13.1758 23.7759L9.40105 36.8795L16.6599 38.9705L20.4346 25.8669Z" fill="#AFA2FB"/>
<path d="M18.3824 36.1325C20.0951 36.1325 21.4836 34.7441 21.4836 33.0313C21.4836 31.3186 20.0951 29.9302 18.3824 29.9302C16.6697 29.9302 15.2812 31.3186 15.2812 33.0313C15.2812 34.7441 16.6697 36.1325 18.3824 36.1325Z" fill="#0A6FCB"/>
<path d="M22.8862 51.9201V49.7327C27.4314 49.7327 31.1294 46.2034 31.1294 41.8649C31.1294 37.5263 27.4314 33.997 22.8862 33.997H15.8438V31.8096H22.8862C25.6659 31.8096 28.2816 32.8504 30.2511 34.7399C32.2319 36.6408 33.323 39.1708 33.323 41.8649C33.323 44.5589 32.2319 47.0889 30.2511 48.9898C28.2816 50.8793 25.6659 51.9201 22.8862 51.9201Z" fill="#0A6FCB"/>
<path d="M169.903 61.5054H166.332V107.365H169.903V61.5054Z" fill="#C37A05"/>
<path d="M9.39916 61.5054H5.82812V107.365H9.39916V61.5054Z" fill="#C37A05"/>
<path d="M163.697 44.8565V38.6972L164.507 36.8843H157.277L157.885 38.6972V44.8565C155.229 45.9978 153.367 48.6573 153.367 51.7554C153.367 55.8946 156.691 59.2502 160.791 59.2502C164.891 59.2502 168.215 55.8946 168.215 51.7554C168.215 48.6573 166.353 45.9983 163.697 44.8565H163.697Z" fill="#E2F4FD"/>
<path d="M160.699 27.2989L167.278 18.4653H154.121L160.699 27.2989Z" fill="#E2F4FD"/>
<path d="M164.079 22.6001H157.125L159.677 26.0579V29.7422L161.528 28.0184V26.0579L164.079 22.6001Z" fill="#8CEB4D"/>
<path d="M174.981 61.5054H0V68.4595H174.981V61.5054Z" fill="#FFC24C"/>
<path d="M168.215 51.7319C168.215 55.8839 164.891 59.2499 160.791 59.2499C156.691 59.2499 153.367 55.8839 153.367 51.7319H168.215H168.215Z" fill="#8CEB4D"/>
<path d="M171.219 59.062H148.289V61.3174H171.219V59.062Z" fill="#5FBCFF"/>
<path d="M148.289 20.5328V60.7539H149.417L149.417 20.5328H148.289Z" fill="#5FBCFF"/>
<path d="M170.845 25.4189H144.156V26.5466H170.845V25.4189Z" fill="#5FBCFF"/>
<path d="M148.853 28.2384C149.994 28.2384 150.92 27.3128 150.92 26.171C150.92 25.0291 149.994 24.1035 148.853 24.1035C147.711 24.1035 146.785 25.0291 146.785 26.171C146.785 27.3128 147.711 28.2384 148.853 28.2384Z" fill="#0A6FCB"/>
<path d="M161.85 31.9041L160.797 30.1358V30.1182L160.792 30.127L160.787 30.1195V30.134L159.735 31.9024C159.516 32.2705 159.516 32.7243 159.735 33.0924C159.952 33.4579 160.352 33.6839 160.787 33.6874V33.6892C161.226 33.6892 161.63 33.4623 161.849 33.0942C162.068 32.7261 162.068 32.2722 161.849 31.9041H161.85Z" fill="#8CEB4D"/>
<path d="M156.093 53.0477C156.872 53.0477 157.503 52.3745 157.503 51.5441C157.503 50.7137 156.872 50.0405 156.093 50.0405C155.315 50.0405 154.684 50.7137 154.684 51.5441C154.684 52.3745 155.315 53.0477 156.093 53.0477Z" fill="#9CD9F8"/>
<path d="M158.35 49.8526C158.817 49.8526 159.195 49.4319 159.195 48.9129C159.195 48.3939 158.817 47.9731 158.35 47.9731C157.883 47.9731 157.504 48.3939 157.504 48.9129C157.504 49.4319 157.883 49.8526 158.35 49.8526Z" fill="#9CD9F8"/>
<path d="M101.069 64.0643L97.2084 57.4448V53.173L97.6463 51.6382H92.8355L93.2734 53.173V57.4448L89.4132 64.0643C88.8829 64.9735 89.5459 66.1103 90.6061 66.1103H99.8758C100.936 66.1103 101.599 64.9739 101.069 64.0643Z" fill="#E2F4FD"/>
<path fill-rule="evenodd" clip-rule="evenodd" d="M96.4146 55.8643H94.0508V57.7925H94.0734L90.3858 63.7531C89.9444 64.4662 90.4962 65.3579 91.3785 65.3579H99.0931C99.9758 65.3579 100.527 64.4666 100.086 63.7531L96.3983 57.7925H96.4146V55.8643Z" fill="#F45A7F"/>
<path d="M100.394 106.58C101.995 102.71 106.431 100.87 110.301 102.471" stroke="#2D2D2D" stroke-width="2.07467" stroke-linecap="round"/>
<path d="M95.7962 102.165C97.9776 102.054 99.836 103.733 99.947 105.914" stroke="#2D2D2D" stroke-width="1.67569" stroke-linecap="round"/>
<path d="M86.9269 49.5015L75.8679 50.0806C74.8618 50.1332 74.2999 51.2606 74.8564 52.1095L79.7228 59.5313C80.2796 60.3805 81.537 60.3146 81.9867 59.4126L86.9269 49.5015Z" fill="#E2F4FD"/>
<path d="M89.822 49.9717L87.75 46.8115L81.4255 50.9583L83.4976 54.1185L89.822 49.9717Z" fill="#E2F4FD"/>
<path d="M55.7578 62.642C56.5835 54.8529 63.5673 49.2079 71.3564 50.0333C79.1455 50.859 84.7905 57.8427 83.9652 65.6318L55.7582 62.642L55.7578 62.642Z" fill="#231F20"/>
</svg>
