<svg width="57" height="60" viewBox="0 0 57 60" fill="none" xmlns="http://www.w3.org/2000/svg">
<path d="M34.0736 49.4657C46.0135 46.0265 52.9047 33.5592 49.4655 21.6193C46.0263 9.67938 33.5591 2.78818 21.6192 6.22737C9.67923 9.66657 2.78802 22.1338 6.22722 34.0738C9.66641 46.0137 22.1337 52.9049 34.0736 49.4657Z" fill="#2D2D2D"/>
<path d="M17.5455 27.7379C21.1944 26.299 23.63 22.8188 22.9857 19.9644C22.3414 17.1101 18.8611 15.9626 15.2123 17.4014C11.5634 18.8402 9.12779 22.3205 9.77211 25.1748C10.4164 28.0292 13.8967 29.1767 17.5455 27.7379Z" fill="white"/>
<path d="M16.962 25.1569C18.7863 24.4375 20.004 22.6975 19.6819 21.2704C19.3597 19.8433 17.6197 19.2696 15.7954 19.989C13.9711 20.7083 12.7533 22.4484 13.0755 23.8755C13.3976 25.3025 15.1377 25.8763 16.962 25.1569Z" fill="#231F20"/>
<path d="M35.9127 22.4503C39.5616 21.0114 41.9972 17.5312 41.3529 14.6768C40.7086 11.8225 37.2283 10.675 33.5794 12.1138C29.9306 13.5526 27.495 17.0329 28.1393 19.8872C28.7836 22.7416 32.2639 23.8891 35.9127 22.4503Z" fill="white"/>
<path d="M35.3291 19.8693C37.1535 19.1499 38.3712 17.4099 38.0491 15.9828C37.7269 14.5557 35.9869 13.982 34.1626 14.7014C32.3383 15.4207 31.1205 17.1608 31.4427 18.5879C31.7648 20.015 33.5048 20.5887 35.3291 19.8693Z" fill="#231F20"/>
<path d="M28.7328 24.3344C22.4268 26.8124 18.1507 32.4828 19.1821 36.9992L34.0752 47.7247L28.7333 24.3342L28.7328 24.3344Z" fill="#C7EAFB"/>
<path d="M40.12 29.7705L40.1196 29.7707C39.0881 25.2543 33.14 23.6016 26.834 26.0796L32.1759 49.4701L40.1204 29.7704L40.12 29.7705Z" fill="#6E00FF"/>
<path d="M9.54537 24.5563C8.45743 20.7792 10.6374 16.8362 14.4134 15.7486C18.1893 14.661 22.133 16.841 23.2207 20.6172L9.54449 24.5565L9.54537 24.5563Z" fill="#FA03FF"/>
<path d="M27.9106 19.2696C26.8227 15.4926 29.0027 11.5496 32.7786 10.462C36.5545 9.37436 40.4982 11.5544 41.5859 15.3306L27.9097 19.2699L27.9106 19.2696Z" fill="#FA03FF"/>
</svg>
