<svg width="293" height="412" viewBox="0 0 293 412" fill="none" xmlns="http://www.w3.org/2000/svg">
<g clip-path="url(#clip0_1_6597)">
<path d="M290.86 383.376L285.232 327.524L268.347 159.967C265.239 129.12 237.713 106.634 206.866 109.743L212.495 165.595L218.122 221.442C197.224 240.703 185.324 269.215 188.392 299.669C193.565 351.014 239.33 388.458 290.66 383.396C290.727 383.389 290.793 383.383 290.859 383.377L290.86 383.376Z" fill="#231F20"/>
<path d="M74.5581 220.699L80.7626 164.914L86.9685 109.123C56.1556 105.696 28.3985 127.897 24.9715 158.708L20.8352 195.902L16.6017 233.96L6.35518 326.081L0.149234 381.873C0.216522 381.88 0.282322 381.887 0.348122 381.893C51.6223 387.488 97.7722 350.517 103.476 299.229C106.859 268.807 95.2546 240.175 74.5567 220.698L74.5581 220.699Z" fill="#231F20"/>
<path d="M237.394 91.5667L56.6982 90.6323L56.2311 180.979L236.927 181.914L237.394 91.5667Z" fill="#2D2D2D"/>
<path d="M236.927 181.913L56.2314 180.979L55.7643 271.325L236.46 272.26L236.927 181.913Z" fill="#2D2D2D"/>
<path d="M136.138 410.517L80.628 410.23C78.8431 410.22 77.4037 408.766 77.413 406.981C77.4222 405.196 78.8765 403.757 80.6614 403.766L136.172 404.053C137.957 404.062 139.396 405.517 139.387 407.302C139.378 409.087 137.923 410.526 136.138 410.517Z" fill="#2D2D2D"/>
<path d="M117.63 410.424C116.062 410.416 114.692 409.266 114.454 407.667L96.5733 287.299C96.3117 285.534 97.5291 283.89 99.2945 283.628C101.06 283.367 102.704 284.584 102.966 286.349L120.847 406.717C121.108 408.482 119.891 410.126 118.126 410.388C117.959 410.412 117.793 410.423 117.63 410.423L117.63 410.424Z" fill="#2D2D2D"/>
<path d="M210.151 410.899L154.641 410.612C152.856 410.603 151.416 409.149 151.426 407.364C151.435 405.579 152.889 404.14 154.674 404.149L210.185 404.436C211.969 404.445 213.409 405.9 213.4 407.684C213.39 409.469 211.936 410.909 210.151 410.899Z" fill="#2D2D2D"/>
<path d="M173.148 410.71C172.985 410.709 172.819 410.696 172.653 410.67C170.89 410.39 169.688 408.734 169.97 406.971L189.094 286.795C189.374 285.033 191.031 283.831 192.793 284.112C194.556 284.392 195.758 286.049 195.476 287.811L176.352 407.987C176.098 409.584 174.716 410.72 173.148 410.712L173.148 410.71Z" fill="#2D2D2D"/>
<path d="M146.547 181.447C196.445 181.705 237.104 141.465 237.362 91.5674C237.62 41.6702 197.379 1.0113 147.482 0.753294C97.5845 0.495288 56.9256 40.7359 56.6676 90.6331C56.4096 140.53 96.6502 181.189 146.547 181.447Z" fill="#2D2D2D"/>
<path d="M145.644 362.147C195.541 362.405 236.2 322.165 236.458 272.268C236.716 222.37 196.476 181.711 146.578 181.453C96.6812 181.195 56.0223 221.436 55.7643 271.333C55.5063 321.231 95.7468 361.889 145.644 362.147Z" fill="#2D2D2D"/>
<path d="M108.682 83.0196C122.611 83.0917 133.961 71.8583 134.033 57.9293C134.105 44.0003 122.871 32.6502 108.942 32.5782C95.0134 32.5061 83.6633 43.7395 83.5913 57.6685C83.5192 71.5975 94.7526 82.9476 108.682 83.0196Z" fill="white"/>
<path d="M108.748 70.4055C115.712 70.4415 121.387 64.8252 121.423 57.8611C121.459 50.897 115.842 45.2223 108.878 45.1863C101.914 45.1503 96.2394 50.7666 96.2034 57.7307C96.1673 64.6948 101.784 70.3695 108.748 70.4055Z" fill="#231F20"/>
<path d="M100.231 56.0931C105.717 56.1215 110.187 51.6973 110.215 46.2115C110.243 40.7257 105.819 36.2555 100.333 36.2271C94.8475 36.1988 90.3774 40.6229 90.349 46.1088C90.3207 51.5946 94.7448 56.0648 100.231 56.0931Z" fill="white"/>
<path d="M99.9901 134.15C120.408 134.255 137.046 117.789 137.151 97.3709C137.257 76.9529 120.79 60.3153 100.372 60.2097C79.9544 60.1041 63.3168 76.5706 63.2112 96.9886C63.1056 117.407 79.5721 134.044 99.9901 134.15Z" fill="#2D2D2D"/>
<path d="M185.503 83.4166C199.432 83.4886 210.782 72.2553 210.854 58.3263C210.926 44.3973 199.693 33.0472 185.764 32.9751C171.835 32.9031 160.485 44.1364 160.413 58.0655C160.341 71.9945 171.574 83.3446 185.503 83.4166Z" fill="white"/>
<path d="M185.569 70.8025C192.533 70.8385 198.208 65.2222 198.244 58.2581C198.28 51.294 192.664 45.6193 185.699 45.5833C178.735 45.5473 173.061 51.1636 173.025 58.1277C172.989 65.0918 178.605 70.7665 185.569 70.8025Z" fill="#231F20"/>
<path d="M177.052 56.4901C182.538 56.5185 187.008 52.0943 187.036 46.6085C187.065 41.1226 182.64 36.6525 177.155 36.6241C171.669 36.5957 167.199 41.0199 167.17 46.5057C167.142 51.9916 171.566 56.4617 177.052 56.4901Z" fill="white"/>
<path d="M193.656 134.634C214.074 134.74 230.712 118.273 230.817 97.8553C230.923 77.4373 214.456 60.7997 194.038 60.6941C173.62 60.5885 156.983 77.055 156.877 97.473C156.772 117.891 173.238 134.529 193.656 134.634Z" fill="#2D2D2D"/>
<path d="M147.091 76.403C125.118 76.2894 107.22 92.64 107.115 112.922L146.549 181.444L147.092 76.403L147.091 76.403Z" fill="#C7EAFB"/>
<path d="M186.69 113.335L186.688 113.335C186.793 93.0528 169.066 76.5179 147.094 76.4043L146.551 181.445L186.691 113.335L186.69 113.335Z" fill="#6E00FF"/>
<path d="M58.4189 62.5234L58.3729 71.4268L67.2763 71.4728L67.0925 107.024L75.9499 115.973L129.246 116.249L147.128 89.693L164.797 116.432L218.093 116.708L227.043 107.851L227.227 72.2999L236.13 72.3459L236.176 63.4426L58.4189 62.5234Z" fill="white" fill-opacity="0.7"/>
<path d="M218.075 119.847L164.779 119.572C163.713 119.566 162.775 119.06 162.153 118.178L147.097 95.34L131.806 118.022C131.237 118.896 130.231 119.393 129.165 119.387L75.869 119.112C75.0539 119.108 74.2405 118.79 73.6794 118.16L64.822 109.211C64.2607 108.643 63.8885 107.826 63.8927 107.011L64.0603 74.5954L58.2919 74.5655C56.5363 74.5564 55.164 73.1699 55.1731 71.4143L55.2191 62.511C55.2282 60.7554 56.6148 59.3831 58.3704 59.3922L236.128 60.3113C237.883 60.3204 239.256 61.7069 239.247 63.4625L239.201 72.3659C239.191 74.1215 237.805 75.4937 236.049 75.4847L230.281 75.4548L230.113 107.871C230.109 108.686 229.791 109.499 229.161 110.06L220.212 118.918C219.645 119.479 218.828 119.851 218.013 119.847L218.075 119.847ZM166.504 113.31L216.854 113.571L223.912 106.585L224.089 72.3505C224.098 70.5949 225.485 69.2226 227.241 69.2317L233.009 69.2615L233.023 66.6281L61.5355 65.7414L61.5219 68.3748L67.2902 68.4046C69.0459 68.4137 70.4182 69.8002 70.4091 71.5558L70.2321 105.79L77.2182 112.849L127.567 113.109L144.564 87.9282C145.765 86.1787 148.649 86.1936 149.769 87.9551L166.504 113.31Z" fill="#231F20"/>
<path d="M130.67 28.491L80.0566 28.2293C78.0577 28.2189 76.4946 26.7955 76.5039 24.9941C76.5132 23.1927 78.091 21.7855 80.0898 21.7958L130.703 22.0575C132.702 22.0678 134.265 23.4913 134.256 25.2927C134.246 27.0941 132.668 28.5013 130.67 28.491Z" fill="#CACACA"/>
<path d="M212.111 17.5879L163.837 32.8001C161.931 33.4009 160.007 32.523 159.466 30.8049C158.924 29.0868 159.997 27.2648 161.903 26.664L210.177 11.4518C212.083 10.851 214.007 11.7289 214.548 13.447C215.089 15.1651 214.017 16.9871 212.111 17.5879Z" fill="#CACACA"/>
</g>
<defs>
<clipPath id="clip0_1_6597">
<rect width="290.716" height="409.802" fill="white" transform="translate(2.11914) rotate(0.296259)"/>
</clipPath>
</defs>
</svg>
