<svg width="73" height="63" viewBox="0 0 73 63" fill="none" xmlns="http://www.w3.org/2000/svg">
<path d="M25.7717 54.352C37.5887 57.97 50.1014 51.3234 53.7194 39.5063C57.3374 27.6893 50.6908 15.1766 38.8737 11.5586C27.0567 7.94057 14.544 14.5872 10.926 26.4043C7.30797 38.2213 13.9546 50.734 25.7717 54.352Z" fill="#2D2D2D"/>
<path d="M33.1074 31.3265C26.883 28.7696 20.9475 30.2956 19.8505 34.7347L27.4262 54.317L33.1078 31.3267L33.1074 31.3265Z" fill="#C7EAFB"/>
<path d="M40.494 42.2343L40.4936 42.2342C41.5906 37.795 37.4343 32.1235 31.21 29.5667L25.5284 52.557L40.4944 42.2345L40.494 42.2343Z" fill="#6E00FF"/>
<path d="M44.9499 22.6851C45.1042 22.4925 45.4119 22.6201 45.451 22.8927L45.9828 26.6068C46.0006 26.7315 46.0822 26.8407 46.1909 26.8854L50.2624 28.5593C50.5491 28.6772 50.5428 29.1286 50.2539 29.1673L46.7129 29.6421C46.5667 29.6617 46.472 29.8068 46.4967 29.9732L47.0045 33.4003C47.0488 33.6996 46.7319 33.8516 46.5328 33.6265L43.5215 30.2204C43.4528 30.1426 43.3576 30.1034 43.2668 30.1153L39.2631 30.6412C39.0004 30.6757 38.8098 30.3152 38.9791 30.104L40.9217 27.6812C41.0159 27.5636 41.0031 27.3743 40.8924 27.2491L38.2109 24.216C37.9921 23.9685 38.1879 23.5951 38.4747 23.713L42.5472 25.3874C42.6553 25.4318 42.77 25.404 42.8403 25.3164L44.9499 22.6851Z" fill="#FFE500"/>
<path d="M26.2272 16.9521C26.3816 16.7596 26.6893 16.8871 26.7283 17.1598L27.2601 20.8739C27.278 20.9986 27.3595 21.1078 27.4682 21.1525L31.5397 22.8264C31.8265 22.9443 31.8202 23.3957 31.5313 23.4344L27.9903 23.9092C27.8441 23.9288 27.7493 24.0738 27.774 24.2403L28.2818 27.6674C28.3262 27.9667 28.0093 28.1187 27.8102 27.8935L24.7988 24.4874C24.7301 24.4097 24.6349 24.3704 24.5441 24.3824L20.5404 24.9083C20.2777 24.9428 20.0872 24.5823 20.2565 24.3711L22.199 21.9483C22.2933 21.8307 22.2805 21.6414 22.1698 21.5162L19.4882 18.4831C19.2694 18.2356 19.4652 17.8622 19.752 17.9801L23.8246 19.6544C23.9327 19.6989 24.0474 19.6711 24.1176 19.5835L26.2272 16.9521Z" fill="#FFE500"/>
<path d="M56.4093 29.8949C56.3771 29.5184 56.6257 29.1752 56.9935 29.0885L62.2945 27.8387C63.2785 27.6067 64.2194 28.3593 64.2092 29.3702V29.3702C64.2003 30.26 63.4489 30.9614 62.5606 30.9093L57.1237 30.5903C56.7458 30.5682 56.4416 30.272 56.4093 29.8949V29.8949Z" fill="#D718C4"/>
<path d="M9.00292 14.938C8.88191 15.2959 8.51678 15.5111 8.14502 15.4435L2.78655 14.4691C1.79181 14.2883 1.23041 13.2223 1.64403 12.2997V12.2997C2.00804 11.4878 2.97717 11.1453 3.7705 11.5483L8.62628 14.0148C8.96373 14.1863 9.12414 14.5794 9.00292 14.938V14.938Z" fill="#B132A4"/>
<path d="M59.4539 21.013C59.2574 20.6038 59.3779 20.1127 59.7416 19.841L68.2162 13.5093C69.2122 12.7651 70.6445 13.2123 71.0402 14.391L71.2249 14.9413C71.5239 15.8318 71.0983 16.804 70.2412 17.1884L60.6988 21.4685C60.2289 21.6792 59.6767 21.4772 59.4539 21.013V21.013Z" fill="#B132A4"/>
<path d="M16.0831 12.0166C15.7876 12.1889 15.4121 12.1331 15.1795 11.8823L8.81806 5.02572C8.03931 4.18635 8.33845 2.82755 9.3977 2.39282V2.39282C10.1397 2.08826 10.9932 2.36507 11.4152 3.04718L16.3364 11.001C16.5527 11.3505 16.4382 11.8096 16.0831 12.0166V12.0166Z" fill="#D718C4"/>
<path d="M61.6655 35.4332C61.8867 35.0957 62.3264 34.9786 62.6861 35.1615L65.8655 36.7784C66.6882 37.1967 66.93 38.2588 66.3695 38.9921V38.9921C65.8033 39.7329 64.7009 39.7703 64.0858 39.0696L61.7327 36.389C61.498 36.1217 61.4706 35.7307 61.6655 35.4332V35.4332Z" fill="#D718C4"/>
<path d="M12.9315 18.7569C13.1136 19.117 12.9956 19.5565 12.6575 19.7769L9.66984 21.7253C8.89669 22.2295 7.85566 21.909 7.49989 21.0573V21.0573C7.14053 20.197 7.65828 19.223 8.57244 19.0396L12.0697 18.3382C12.4184 18.2682 12.7709 18.4395 12.9315 18.7569V18.7569Z" fill="#D718C4"/>
</svg>
