<svg width="80" height="81" viewBox="0 0 80 81" fill="none" xmlns="http://www.w3.org/2000/svg">
<path d="M28.6696 70.1159C39.8285 74.5424 52.463 69.0846 56.8894 57.9257C61.3158 46.7668 55.8581 34.1324 44.6991 29.7059C33.5402 25.2795 20.9058 30.7373 16.4794 41.8962C12.0529 53.0551 17.5107 65.6895 28.6696 70.1159Z" fill="#2D2D2D"/>
<path d="M42.4571 56.6861C44.2328 52.0394 41.946 46.7378 37.3495 44.8452L22.1718 46.5005C21.2507 46.601 21.0951 47.8906 21.9611 48.2471L42.457 56.6864L42.4571 56.6861Z" fill="#C7EAFB"/>
<path d="M30.6069 62.1559L30.607 62.1555C35.2034 64.0482 40.3693 61.8157 42.145 57.1689L21.6492 48.7296C20.7832 48.3731 20.0449 49.4226 20.6492 50.1512L30.6067 62.1562L30.6069 62.1559Z" fill="#6E00FF"/>
<path d="M32.6047 34.8183C35.6798 36.0381 37.1915 39.5094 35.9789 42.5663C35.8267 42.9501 35.4037 43.1314 35.0176 42.9782C34.6314 42.8251 34.4477 42.4031 34.6 42.0193C35.5135 39.7163 34.3638 37.1026 32.0609 36.1891C29.7581 35.2757 27.1239 36.4043 26.2158 38.6935C26.0635 39.0774 25.6405 39.2586 25.2544 39.1054C24.8683 38.9523 24.6846 38.5304 24.8368 38.1465C26.0494 35.0896 29.5296 33.5985 32.6047 34.8183Z" fill="white"/>
<path d="M49.7712 41.6252C52.8463 42.845 54.358 46.3163 53.1454 49.3732C52.9932 49.757 52.5702 49.9383 52.1841 49.7851C51.7979 49.6319 51.6142 49.21 51.7665 48.8262C52.68 46.5232 51.5303 43.9095 49.2274 42.996C46.9246 42.0825 44.2904 43.2112 43.3823 45.5004C43.23 45.8842 42.807 46.0655 42.4209 45.9123C42.0348 45.7592 41.8511 45.3373 42.0033 44.9534C43.2159 41.8965 46.6961 40.4054 49.7712 41.6252Z" fill="white"/>
<path d="M13.1025 41.9748C13.7101 40.4432 12.9655 38.6934 11.4214 38.0809C9.87738 37.4684 8.14097 38.219 7.52823 39.7637C6.91549 41.3084 7.66529 43.0451 9.20934 43.6576L10.1383 44.0261L19.4157 47.7061" stroke="#00C800" stroke-width="1.75802" stroke-linecap="round" stroke-linejoin="round"/>
<path d="M56.4205 44.2452L41.6059 29.5265L65.5122 21.3253L56.4205 44.2452Z" fill="#00C800" stroke="#00C800" stroke-width="0.0775596" stroke-linecap="round" stroke-linejoin="round"/>
<path d="M63.9436 25.2865C66.1303 26.1539 68.6063 25.0844 69.4737 22.8977C70.3411 20.711 69.2715 18.2351 67.0848 17.3677C64.8981 16.5003 62.4223 17.5698 61.5549 19.7565C60.6875 21.9432 61.7569 24.4191 63.9436 25.2865Z" fill="#6E00FF"/>
<path d="M64.6571 49.7355C65.581 50.49 66.9415 50.3526 67.6959 49.4287C68.4504 48.5048 68.3131 47.1443 67.3892 46.3898C66.4653 45.6353 65.1047 45.7726 64.3502 46.6965C63.5958 47.6204 63.7332 48.981 64.6571 49.7355Z" fill="#FF5A00"/>
<path d="M54.0716 59.9959C54.9954 60.7504 56.356 60.6131 57.1105 59.6892C57.8649 58.7653 57.7276 57.4047 56.8037 56.6503C55.8798 55.8958 54.5193 56.0331 53.7648 56.957C53.0103 57.8809 53.1477 59.2415 54.0716 59.9959Z" fill="#FF00FF"/>
<path d="M25.291 25.5118C26.3843 25.9455 27.6222 25.4107 28.0559 24.3174C28.4897 23.224 27.9549 21.9861 26.8615 21.5524C25.7682 21.1187 24.5302 21.6534 24.0965 22.7468C23.6628 23.8402 24.1976 25.0781 25.291 25.5118Z" fill="#0082FF"/>
<path d="M34.4141 24.4751C35.5075 24.9088 36.7405 24.3865 37.1681 23.3085C37.5957 22.2306 37.0559 21.0051 35.9626 20.5714C34.8693 20.1377 33.6363 20.66 33.2087 21.7379C32.7811 22.8159 33.3208 24.0414 34.4141 24.4751Z" fill="#00C800"/>
</svg>
